<svg width="131" height="16" viewBox="0 0 131 16" fill="none" xmlns="http://www.w3.org/2000/svg">
<path d="M7.62953 15.12C6.5762 15.12 5.60286 14.9467 4.70953 14.6C3.8162 14.24 3.04286 13.74 2.38953 13.1C1.7362 12.46 1.22286 11.7067 0.849531 10.84C0.489531 9.97333 0.309531 9.02667 0.309531 8C0.309531 6.97333 0.489531 6.02667 0.849531 5.16C1.22286 4.29333 1.7362 3.54 2.38953 2.9C3.0562 2.26 3.8362 1.76667 4.72953 1.42C5.62286 1.06 6.5962 0.879999 7.64953 0.879999C8.66287 0.879999 9.6162 1.05333 10.5095 1.4C11.4029 1.73333 12.1562 2.24 12.7695 2.92L11.8295 3.86C11.2562 3.27333 10.6229 2.85333 9.92953 2.6C9.2362 2.33333 8.48953 2.2 7.68953 2.2C6.84953 2.2 6.06953 2.34667 5.34953 2.64C4.62953 2.92 4.00286 3.32667 3.46953 3.86C2.9362 4.38 2.5162 4.99333 2.20953 5.7C1.9162 6.39333 1.76953 7.16 1.76953 8C1.76953 8.84 1.9162 9.61333 2.20953 10.32C2.5162 11.0133 2.9362 11.6267 3.46953 12.16C4.00286 12.68 4.62953 13.0867 5.34953 13.38C6.06953 13.66 6.84953 13.8 7.68953 13.8C8.48953 13.8 9.2362 13.6667 9.92953 13.4C10.6229 13.1333 11.2562 12.7067 11.8295 12.12L12.7695 13.06C12.1562 13.74 11.4029 14.2533 10.5095 14.6C9.6162 14.9467 8.6562 15.12 7.62953 15.12ZM19.613 15.1C18.7196 15.1 17.9396 14.9333 17.273 14.6C16.6063 14.2667 16.0863 13.7667 15.713 13.1C15.353 12.4333 15.173 11.6 15.173 10.6V4.5H16.593V10.44C16.593 11.56 16.8663 12.4067 17.413 12.98C17.973 13.54 18.753 13.82 19.753 13.82C20.4863 13.82 21.1196 13.6733 21.653 13.38C22.1996 13.0733 22.613 12.6333 22.893 12.06C23.1863 11.4867 23.333 10.8 23.333 10V4.5H24.753V15H23.393V12.12L23.613 12.64C23.2796 13.4133 22.7596 14.02 22.053 14.46C21.3596 14.8867 20.5463 15.1 19.613 15.1ZM28.7105 15V4.5H30.0705V7.36L29.9305 6.86C30.2238 6.06 30.7171 5.45333 31.4105 5.04C32.1038 4.61333 32.9638 4.4 33.9905 4.4V5.78C33.9371 5.78 33.8838 5.78 33.8305 5.78C33.7771 5.76667 33.7238 5.76 33.6705 5.76C32.5638 5.76 31.6971 6.1 31.0705 6.78C30.4438 7.44667 30.1305 8.4 30.1305 9.64V15H28.7105ZM36.5816 15V4.5H37.9416V7.36L37.8016 6.86C38.0949 6.06 38.5882 5.45333 39.2816 5.04C39.9749 4.61333 40.8349 4.4 41.8616 4.4V5.78C41.8082 5.78 41.7549 5.78 41.7016 5.78C41.6482 5.76667 41.5949 5.76 41.5416 5.76C40.4349 5.76 39.5682 6.1 38.9416 6.78C38.3149 7.44667 38.0016 8.4 38.0016 9.64V15H36.5816ZM48.815 15.1C47.7217 15.1 46.7617 14.8733 45.935 14.42C45.1083 13.9533 44.4617 13.32 43.995 12.52C43.5283 11.7067 43.295 10.78 43.295 9.74C43.295 8.7 43.515 7.78 43.955 6.98C44.4083 6.18 45.0217 5.55333 45.795 5.1C46.5817 4.63333 47.4617 4.4 48.435 4.4C49.4217 4.4 50.295 4.62667 51.055 5.08C51.8283 5.52 52.435 6.14667 52.875 6.96C53.315 7.76 53.535 8.68667 53.535 9.74C53.535 9.80667 53.5283 9.88 53.515 9.96C53.515 10.0267 53.515 10.1 53.515 10.18H44.375V9.12H52.755L52.195 9.54C52.195 8.78 52.0283 8.10667 51.695 7.52C51.375 6.92 50.935 6.45333 50.375 6.12C49.815 5.78667 49.1683 5.62 48.435 5.62C47.715 5.62 47.0683 5.78667 46.495 6.12C45.9217 6.45333 45.475 6.92 45.155 7.52C44.835 8.12 44.675 8.80667 44.675 9.58V9.8C44.675 10.6 44.8483 11.3067 45.195 11.92C45.555 12.52 46.0483 12.9933 46.675 13.34C47.315 13.6733 48.0417 13.84 48.855 13.84C49.495 13.84 50.0883 13.7267 50.635 13.5C51.195 13.2733 51.675 12.9267 52.075 12.46L52.875 13.38C52.4083 13.94 51.8217 14.3667 51.115 14.66C50.4217 14.9533 49.655 15.1 48.815 15.1ZM61.7853 4.4C62.6386 4.4 63.3853 4.56667 64.0253 4.9C64.6786 5.22 65.1853 5.71333 65.5453 6.38C65.9186 7.04667 66.1053 7.88667 66.1053 8.9V15H64.6853V9.04C64.6853 7.93333 64.4053 7.1 63.8453 6.54C63.2986 5.96667 62.5253 5.68 61.5253 5.68C60.7786 5.68 60.1253 5.83333 59.5653 6.14C59.0186 6.43333 58.592 6.86667 58.2853 7.44C57.992 8 57.8453 8.68 57.8453 9.48V15H56.4253V4.5H57.7853V7.38L57.5653 6.84C57.8986 6.08 58.432 5.48667 59.1653 5.06C59.8986 4.62 60.772 4.4 61.7853 4.4ZM73.2609 15.1C72.2743 15.1 71.5143 14.8333 70.9809 14.3C70.4476 13.7667 70.1809 13.0133 70.1809 12.04V2.18H71.6009V11.96C71.6009 12.5733 71.7543 13.0467 72.0609 13.38C72.3809 13.7133 72.8343 13.88 73.4209 13.88C74.0476 13.88 74.5676 13.7 74.9809 13.34L75.4809 14.36C75.2009 14.6133 74.8609 14.8 74.4609 14.92C74.0743 15.04 73.6743 15.1 73.2609 15.1ZM68.3009 5.68V4.5H74.8009V5.68H68.3009ZM87.4603 15.12C86.4203 15.12 85.4203 14.9533 84.4603 14.62C83.5136 14.2733 82.7803 13.8333 82.2603 13.3L82.8403 12.16C83.3336 12.64 83.9936 13.0467 84.8203 13.38C85.6603 13.7 86.5403 13.86 87.4603 13.86C88.3403 13.86 89.0536 13.7533 89.6003 13.54C90.1603 13.3133 90.567 13.0133 90.8203 12.64C91.087 12.2667 91.2203 11.8533 91.2203 11.4C91.2203 10.8533 91.0603 10.4133 90.7403 10.08C90.4336 9.74667 90.027 9.48667 89.5203 9.3C89.0136 9.1 88.4536 8.92667 87.8403 8.78C87.227 8.63333 86.6136 8.48 86.0003 8.32C85.387 8.14667 84.8203 7.92 84.3003 7.64C83.7936 7.36 83.3803 6.99333 83.0603 6.54C82.7536 6.07333 82.6003 5.46667 82.6003 4.72C82.6003 4.02667 82.7803 3.39333 83.1403 2.82C83.5136 2.23333 84.0803 1.76667 84.8403 1.42C85.6003 1.06 86.5736 0.879999 87.7603 0.879999C88.547 0.879999 89.327 0.993333 90.1003 1.22C90.8736 1.43333 91.5403 1.73333 92.1003 2.12L91.6003 3.3C91.0003 2.9 90.3603 2.60667 89.6803 2.42C89.0136 2.23333 88.367 2.14 87.7403 2.14C86.9003 2.14 86.207 2.25333 85.6603 2.48C85.1136 2.70667 84.707 3.01333 84.4403 3.4C84.187 3.77333 84.0603 4.2 84.0603 4.68C84.0603 5.22667 84.2136 5.66667 84.5203 6C84.8403 6.33333 85.2536 6.59333 85.7603 6.78C86.2803 6.96667 86.847 7.13333 87.4603 7.28C88.0736 7.42667 88.6803 7.58667 89.2803 7.76C89.8936 7.93333 90.4536 8.16 90.9603 8.44C91.4803 8.70667 91.8936 9.06667 92.2003 9.52C92.5203 9.97333 92.6803 10.5667 92.6803 11.3C92.6803 11.98 92.4936 12.6133 92.1203 13.2C91.747 13.7733 91.1736 14.24 90.4003 14.6C89.6403 14.9467 88.6603 15.12 87.4603 15.12ZM96.725 12.28L96.765 10.46L103.305 4.5H105.045L100.425 8.92L99.625 9.6L96.725 12.28ZM95.605 15V0.159999H97.025V15H95.605ZM103.745 15L99.365 9.54L100.285 8.44L105.485 15H103.745ZM107.617 15V4.5H109.037V15H107.617ZM108.337 2.18C108.043 2.18 107.797 2.08 107.597 1.88C107.397 1.68 107.297 1.44 107.297 1.16C107.297 0.879999 107.397 0.646665 107.597 0.459999C107.797 0.259999 108.043 0.159999 108.337 0.159999C108.63 0.159999 108.877 0.253332 109.077 0.439999C109.277 0.626666 109.377 0.859999 109.377 1.14C109.377 1.43333 109.277 1.68 109.077 1.88C108.89 2.08 108.643 2.18 108.337 2.18ZM112.988 15V0.159999H114.408V15H112.988ZM118.359 15V0.159999H119.779V15H118.359ZM126.55 15.1C125.683 15.1 124.863 14.98 124.09 14.74C123.317 14.4867 122.71 14.1733 122.27 13.8L122.91 12.68C123.337 13 123.883 13.28 124.55 13.52C125.217 13.7467 125.917 13.86 126.65 13.86C127.65 13.86 128.37 13.7067 128.81 13.4C129.25 13.08 129.47 12.66 129.47 12.14C129.47 11.7533 129.343 11.4533 129.09 11.24C128.85 11.0133 128.53 10.8467 128.13 10.74C127.73 10.62 127.283 10.52 126.79 10.44C126.297 10.36 125.803 10.2667 125.31 10.16C124.83 10.0533 124.39 9.9 123.99 9.7C123.59 9.48667 123.263 9.2 123.01 8.84C122.77 8.48 122.65 8 122.65 7.4C122.65 6.82667 122.81 6.31333 123.13 5.86C123.45 5.40667 123.917 5.05333 124.53 4.8C125.157 4.53333 125.917 4.4 126.81 4.4C127.49 4.4 128.17 4.49333 128.85 4.68C129.53 4.85333 130.09 5.08667 130.53 5.38L129.91 6.52C129.443 6.2 128.943 5.97333 128.41 5.84C127.877 5.69333 127.343 5.62 126.81 5.62C125.863 5.62 125.163 5.78667 124.71 6.12C124.27 6.44 124.05 6.85333 124.05 7.36C124.05 7.76 124.17 8.07333 124.41 8.3C124.663 8.52667 124.99 8.70667 125.39 8.84C125.803 8.96 126.25 9.06 126.73 9.14C127.223 9.22 127.71 9.32 128.19 9.44C128.683 9.54667 129.13 9.7 129.53 9.9C129.943 10.0867 130.27 10.36 130.51 10.72C130.763 11.0667 130.89 11.5267 130.89 12.1C130.89 12.7133 130.717 13.2467 130.37 13.7C130.037 14.14 129.543 14.4867 128.89 14.74C128.25 14.98 127.47 15.1 126.55 15.1Z" fill="white"/>
</svg>
