<svg width="345" height="78" viewBox="0 0 345 78" fill="none" xmlns="http://www.w3.org/2000/svg">
<rect width="345" height="78" fill="white"/>
<path d="M38.4255 48V31.2H44.7135C46.1375 31.2 47.3615 31.432 48.3855 31.896C49.4095 32.344 50.1935 33 50.7375 33.864C51.2975 34.712 51.5775 35.744 51.5775 36.96C51.5775 38.144 51.2975 39.168 50.7375 40.032C50.1935 40.88 49.4095 41.536 48.3855 42C47.3615 42.448 46.1375 42.672 44.7135 42.672H39.4095L40.2015 41.856V48H38.4255ZM49.8975 48L45.5775 41.904H47.4975L51.8415 48H49.8975ZM40.2015 42L39.4095 41.16H44.6655C46.3455 41.16 47.6175 40.792 48.4815 40.056C49.3615 39.32 49.8015 38.288 49.8015 36.96C49.8015 35.616 49.3615 34.576 48.4815 33.84C47.6175 33.104 46.3455 32.736 44.6655 32.736H39.4095L40.2015 31.896V42ZM63.188 48V45.216L63.116 44.76V40.104C63.116 39.032 62.812 38.208 62.204 37.632C61.612 37.056 60.724 36.768 59.54 36.768C58.724 36.768 57.948 36.904 57.212 37.176C56.476 37.448 55.852 37.808 55.34 38.256L54.572 36.984C55.212 36.44 55.98 36.024 56.876 35.736C57.772 35.432 58.716 35.28 59.708 35.28C61.34 35.28 62.596 35.688 63.476 36.504C64.372 37.304 64.82 38.528 64.82 40.176V48H63.188ZM58.844 48.12C57.9 48.12 57.076 47.968 56.372 47.664C55.684 47.344 55.156 46.912 54.788 46.368C54.42 45.808 54.236 45.168 54.236 44.448C54.236 43.792 54.388 43.2 54.692 42.672C55.012 42.128 55.524 41.696 56.228 41.376C56.948 41.04 57.908 40.872 59.108 40.872H63.452V42.144H59.156C57.94 42.144 57.092 42.36 56.612 42.792C56.148 43.224 55.916 43.76 55.916 44.4C55.916 45.12 56.196 45.696 56.756 46.128C57.316 46.56 58.1 46.776 59.108 46.776C60.068 46.776 60.892 46.56 61.58 46.128C62.284 45.68 62.796 45.04 63.116 44.208L63.5 45.384C63.18 46.216 62.62 46.88 61.82 47.376C61.036 47.872 60.044 48.12 58.844 48.12ZM73.4323 48.12C72.2483 48.12 71.3363 47.8 70.6963 47.16C70.0563 46.52 69.7363 45.616 69.7363 44.448V32.616H71.4403V44.352C71.4403 45.088 71.6243 45.656 71.9923 46.056C72.3763 46.456 72.9203 46.656 73.6243 46.656C74.3763 46.656 75.0003 46.44 75.4963 46.008L76.0963 47.232C75.7603 47.536 75.3523 47.76 74.8723 47.904C74.4083 48.048 73.9283 48.12 73.4323 48.12ZM67.4803 36.816V35.4H75.2803V36.816H67.4803ZM84.105 48.12C82.793 48.12 81.641 47.848 80.649 47.304C79.657 46.744 78.881 45.984 78.321 45.024C77.761 44.048 77.481 42.936 77.481 41.688C77.481 40.44 77.745 39.336 78.273 38.376C78.817 37.416 79.553 36.664 80.481 36.12C81.425 35.56 82.481 35.28 83.649 35.28C84.833 35.28 85.881 35.552 86.793 36.096C87.721 36.624 88.449 37.376 88.977 38.352C89.505 39.312 89.769 40.424 89.769 41.688C89.769 41.768 89.761 41.856 89.745 41.952C89.745 42.032 89.745 42.12 89.745 42.216H78.777V40.944H88.833L88.161 41.448C88.161 40.536 87.961 39.728 87.561 39.024C87.177 38.304 86.649 37.744 85.977 37.344C85.305 36.944 84.529 36.744 83.649 36.744C82.785 36.744 82.009 36.944 81.321 37.344C80.633 37.744 80.097 38.304 79.713 39.024C79.329 39.744 79.137 40.568 79.137 41.496V41.76C79.137 42.72 79.345 43.568 79.761 44.304C80.193 45.024 80.785 45.592 81.537 46.008C82.305 46.408 83.177 46.608 84.153 46.608C84.921 46.608 85.633 46.472 86.289 46.2C86.961 45.928 87.537 45.512 88.017 44.952L88.977 46.056C88.417 46.728 87.713 47.24 86.865 47.592C86.033 47.944 85.113 48.12 84.105 48.12ZM103.143 48V32.736H97.2386V31.2H110.823V32.736H104.919V48H103.143ZM119.732 35.28C120.756 35.28 121.652 35.48 122.42 35.88C123.204 36.264 123.812 36.856 124.244 37.656C124.692 38.456 124.916 39.464 124.916 40.68V48H123.212V40.848C123.212 39.52 122.876 38.52 122.204 37.848C121.548 37.16 120.62 36.816 119.42 36.816C118.524 36.816 117.74 37 117.068 37.368C116.412 37.72 115.9 38.24 115.532 38.928C115.18 39.6 115.004 40.416 115.004 41.376V48H113.3V30.192H115.004V38.856L114.668 38.208C115.068 37.296 115.708 36.584 116.588 36.072C117.468 35.544 118.516 35.28 119.732 35.28ZM134.871 48.12C133.559 48.12 132.407 47.848 131.415 47.304C130.423 46.744 129.647 45.984 129.087 45.024C128.527 44.048 128.247 42.936 128.247 41.688C128.247 40.44 128.511 39.336 129.039 38.376C129.583 37.416 130.319 36.664 131.247 36.12C132.191 35.56 133.247 35.28 134.415 35.28C135.599 35.28 136.647 35.552 137.559 36.096C138.487 36.624 139.215 37.376 139.743 38.352C140.271 39.312 140.535 40.424 140.535 41.688C140.535 41.768 140.527 41.856 140.511 41.952C140.511 42.032 140.511 42.12 140.511 42.216H129.543V40.944H139.599L138.927 41.448C138.927 40.536 138.727 39.728 138.327 39.024C137.943 38.304 137.415 37.744 136.743 37.344C136.071 36.944 135.295 36.744 134.415 36.744C133.551 36.744 132.775 36.944 132.087 37.344C131.399 37.744 130.863 38.304 130.479 39.024C130.095 39.744 129.903 40.568 129.903 41.496V41.76C129.903 42.72 130.111 43.568 130.527 44.304C130.959 45.024 131.551 45.592 132.303 46.008C133.071 46.408 133.943 46.608 134.919 46.608C135.687 46.608 136.399 46.472 137.055 46.2C137.727 45.928 138.303 45.512 138.783 44.952L139.743 46.056C139.183 46.728 138.479 47.24 137.631 47.592C136.799 47.944 135.879 48.12 134.871 48.12ZM144.003 48V35.4H145.707V48H144.003ZM144.867 32.616C144.515 32.616 144.219 32.496 143.979 32.256C143.739 32.016 143.619 31.728 143.619 31.392C143.619 31.056 143.739 30.776 143.979 30.552C144.219 30.312 144.515 30.192 144.867 30.192C145.219 30.192 145.515 30.304 145.755 30.528C145.995 30.752 146.115 31.032 146.115 31.368C146.115 31.72 145.995 32.016 145.755 32.256C145.531 32.496 145.235 32.616 144.867 32.616ZM150.448 48V35.4H152.08V38.832L151.912 38.232C152.264 37.272 152.856 36.544 153.688 36.048C154.52 35.536 155.552 35.28 156.784 35.28V36.936C156.72 36.936 156.656 36.936 156.592 36.936C156.528 36.92 156.464 36.912 156.4 36.912C155.072 36.912 154.032 37.32 153.28 38.136C152.528 38.936 152.152 40.08 152.152 41.568V48H150.448ZM171.354 48.144C170.106 48.144 168.906 47.944 167.754 47.544C166.618 47.128 165.738 46.6 165.114 45.96L165.81 44.592C166.402 45.168 167.194 45.656 168.186 46.056C169.194 46.44 170.25 46.632 171.354 46.632C172.41 46.632 173.266 46.504 173.922 46.248C174.594 45.976 175.082 45.616 175.386 45.168C175.706 44.72 175.866 44.224 175.866 43.68C175.866 43.024 175.674 42.496 175.29 42.096C174.922 41.696 174.434 41.384 173.826 41.16C173.218 40.92 172.546 40.712 171.81 40.536C171.074 40.36 170.338 40.176 169.602 39.984C168.866 39.776 168.186 39.504 167.562 39.168C166.954 38.832 166.458 38.392 166.074 37.848C165.706 37.288 165.522 36.56 165.522 35.664C165.522 34.832 165.738 34.072 166.17 33.384C166.618 32.68 167.298 32.12 168.21 31.704C169.122 31.272 170.29 31.056 171.714 31.056C172.658 31.056 173.594 31.192 174.522 31.464C175.45 31.72 176.25 32.08 176.922 32.544L176.322 33.96C175.602 33.48 174.834 33.128 174.018 32.904C173.218 32.68 172.442 32.568 171.69 32.568C170.682 32.568 169.85 32.704 169.194 32.976C168.538 33.248 168.05 33.616 167.73 34.08C167.426 34.528 167.274 35.04 167.274 35.616C167.274 36.272 167.458 36.8 167.826 37.2C168.21 37.6 168.706 37.912 169.314 38.136C169.938 38.36 170.618 38.56 171.354 38.736C172.09 38.912 172.818 39.104 173.538 39.312C174.274 39.52 174.946 39.792 175.554 40.128C176.178 40.448 176.674 40.88 177.042 41.424C177.426 41.968 177.618 42.68 177.618 43.56C177.618 44.376 177.394 45.136 176.946 45.84C176.498 46.528 175.81 47.088 174.882 47.52C173.97 47.936 172.794 48.144 171.354 48.144ZM182.472 44.736L182.52 42.552L190.368 35.4H192.456L186.912 40.704L185.952 41.52L182.472 44.736ZM181.128 48V30.192H182.832V48H181.128ZM190.896 48L185.64 41.448L186.744 40.128L192.984 48H190.896ZM195.542 48V35.4H197.246V48H195.542ZM196.406 32.616C196.054 32.616 195.758 32.496 195.518 32.256C195.278 32.016 195.158 31.728 195.158 31.392C195.158 31.056 195.278 30.776 195.518 30.552C195.758 30.312 196.054 30.192 196.406 30.192C196.758 30.192 197.054 30.304 197.294 30.528C197.534 30.752 197.654 31.032 197.654 31.368C197.654 31.72 197.534 32.016 197.294 32.256C197.07 32.496 196.774 32.616 196.406 32.616ZM201.987 48V30.192H203.691V48H201.987ZM208.433 48V30.192H210.137V48H208.433ZM218.262 48.12C217.222 48.12 216.238 47.976 215.31 47.688C214.382 47.384 213.654 47.008 213.126 46.56L213.894 45.216C214.406 45.6 215.062 45.936 215.862 46.224C216.662 46.496 217.502 46.632 218.382 46.632C219.582 46.632 220.446 46.448 220.974 46.08C221.502 45.696 221.766 45.192 221.766 44.568C221.766 44.104 221.614 43.744 221.31 43.488C221.022 43.216 220.638 43.016 220.158 42.888C219.678 42.744 219.142 42.624 218.55 42.528C217.958 42.432 217.366 42.32 216.774 42.192C216.198 42.064 215.67 41.88 215.19 41.64C214.71 41.384 214.318 41.04 214.014 40.608C213.726 40.176 213.582 39.6 213.582 38.88C213.582 38.192 213.774 37.576 214.158 37.032C214.542 36.488 215.102 36.064 215.838 35.76C216.59 35.44 217.502 35.28 218.574 35.28C219.39 35.28 220.206 35.392 221.022 35.616C221.838 35.824 222.51 36.104 223.038 36.456L222.294 37.824C221.734 37.44 221.134 37.168 220.494 37.008C219.854 36.832 219.214 36.744 218.574 36.744C217.438 36.744 216.598 36.944 216.054 37.344C215.526 37.728 215.262 38.224 215.262 38.832C215.262 39.312 215.406 39.688 215.694 39.96C215.998 40.232 216.39 40.448 216.87 40.608C217.366 40.752 217.902 40.872 218.478 40.968C219.07 41.064 219.654 41.184 220.23 41.328C220.822 41.456 221.358 41.64 221.838 41.88C222.334 42.104 222.726 42.432 223.014 42.864C223.318 43.28 223.47 43.832 223.47 44.52C223.47 45.256 223.262 45.896 222.846 46.44C222.446 46.968 221.854 47.384 221.07 47.688C220.302 47.976 219.366 48.12 218.262 48.12Z" fill="black"/>
</svg>
