<svg width="231" height="275" viewBox="0 0 231 275" fill="none" xmlns="http://www.w3.org/2000/svg">
<rect y="4" width="229" height="271" rx="20" fill="#FFE6E2"/>
<path d="M18.052 170V157.4H19.384V168.848H26.44V170H18.052ZM32.093 170.09C31.181 170.09 30.359 169.886 29.627 169.478C28.907 169.058 28.337 168.488 27.917 167.768C27.497 167.036 27.287 166.202 27.287 165.266C27.287 164.318 27.497 163.484 27.917 162.764C28.337 162.044 28.907 161.48 29.627 161.072C30.347 160.664 31.169 160.46 32.093 160.46C33.029 160.46 33.857 160.664 34.577 161.072C35.309 161.48 35.879 162.044 36.287 162.764C36.707 163.484 36.917 164.318 36.917 165.266C36.917 166.202 36.707 167.036 36.287 167.768C35.879 168.488 35.309 169.058 34.577 169.478C33.845 169.886 33.017 170.09 32.093 170.09ZM32.093 168.956C32.777 168.956 33.383 168.806 33.911 168.506C34.439 168.194 34.853 167.762 35.153 167.21C35.465 166.646 35.621 165.998 35.621 165.266C35.621 164.522 35.465 163.874 35.153 163.322C34.853 162.77 34.439 162.344 33.911 162.044C33.383 161.732 32.783 161.576 32.111 161.576C31.439 161.576 30.839 161.732 30.311 162.044C29.783 162.344 29.363 162.77 29.051 163.322C28.739 163.874 28.583 164.522 28.583 165.266C28.583 165.998 28.739 166.646 29.051 167.21C29.363 167.762 29.783 168.194 30.311 168.506C30.839 168.806 31.433 168.956 32.093 168.956ZM39.5261 170V160.55H40.7501V163.124L40.6241 162.674C40.8881 161.954 41.3321 161.408 41.9561 161.036C42.5801 160.652 43.3541 160.46 44.2781 160.46V161.702C44.2301 161.702 44.1821 161.702 44.1341 161.702C44.0861 161.69 44.0381 161.684 43.9901 161.684C42.9941 161.684 42.2141 161.99 41.6501 162.602C41.0861 163.202 40.8041 164.06 40.8041 165.176V170H39.5261ZM50.5362 170.09C49.5522 170.09 48.6882 169.886 47.9442 169.478C47.2002 169.058 46.6182 168.488 46.1982 167.768C45.7782 167.036 45.5682 166.202 45.5682 165.266C45.5682 164.33 45.7662 163.502 46.1622 162.782C46.5702 162.062 47.1222 161.498 47.8182 161.09C48.5262 160.67 49.3182 160.46 50.1942 160.46C51.0822 160.46 51.8682 160.664 52.5522 161.072C53.2482 161.468 53.7942 162.032 54.1902 162.764C54.5862 163.484 54.7842 164.318 54.7842 165.266C54.7842 165.326 54.7782 165.392 54.7662 165.464C54.7662 165.524 54.7662 165.59 54.7662 165.662H46.5402V164.708H54.0822L53.5782 165.086C53.5782 164.402 53.4282 163.796 53.1282 163.268C52.8402 162.728 52.4442 162.308 51.9402 162.008C51.4362 161.708 50.8542 161.558 50.1942 161.558C49.5462 161.558 48.9642 161.708 48.4482 162.008C47.9322 162.308 47.5302 162.728 47.2422 163.268C46.9542 163.808 46.8102 164.426 46.8102 165.122V165.32C46.8102 166.04 46.9662 166.676 47.2782 167.228C47.6022 167.768 48.0462 168.194 48.6102 168.506C49.1862 168.806 49.8402 168.956 50.5722 168.956C51.1482 168.956 51.6822 168.854 52.1742 168.65C52.6782 168.446 53.1102 168.134 53.4702 167.714L54.1902 168.542C53.7702 169.046 53.2422 169.43 52.6062 169.694C51.9822 169.958 51.2922 170.09 50.5362 170.09ZM69.1935 160.46C69.9615 160.46 70.6275 160.61 71.1915 160.91C71.7675 161.198 72.2115 161.642 72.5235 162.242C72.8475 162.842 73.0095 163.598 73.0095 164.51V170H71.7315V164.636C71.7315 163.64 71.4915 162.89 71.0115 162.386C70.5435 161.87 69.8775 161.612 69.0135 161.612C68.3655 161.612 67.8015 161.75 67.3215 162.026C66.8535 162.29 66.4875 162.68 66.2235 163.196C65.9715 163.7 65.8455 164.312 65.8455 165.032V170H64.5675V164.636C64.5675 163.64 64.3275 162.89 63.8475 162.386C63.3675 161.87 62.6955 161.612 61.8315 161.612C61.1955 161.612 60.6375 161.75 60.1575 162.026C59.6775 162.29 59.3055 162.68 59.0415 163.196C58.7895 163.7 58.6635 164.312 58.6635 165.032V170H57.3855V160.55H58.6095V163.106L58.4115 162.656C58.6995 161.972 59.1615 161.438 59.7975 161.054C60.4455 160.658 61.2075 160.46 62.0835 160.46C63.0075 160.46 63.7935 160.694 64.4415 161.162C65.0895 161.618 65.5095 162.308 65.7015 163.232L65.1975 163.034C65.4735 162.266 65.9595 161.648 66.6555 161.18C67.3635 160.7 68.2095 160.46 69.1935 160.46ZM81.1863 170V160.55H82.4643V170H81.1863ZM81.8343 158.462C81.5703 158.462 81.3483 158.372 81.1683 158.192C80.9883 158.012 80.8983 157.796 80.8983 157.544C80.8983 157.292 80.9883 157.082 81.1683 156.914C81.3483 156.734 81.5703 156.644 81.8343 156.644C82.0983 156.644 82.3203 156.728 82.5003 156.896C82.6803 157.064 82.7703 157.274 82.7703 157.526C82.7703 157.79 82.6803 158.012 82.5003 158.192C82.3323 158.372 82.1103 158.462 81.8343 158.462ZM90.8983 170.09C90.0823 170.09 89.3443 169.904 88.6843 169.532C88.0243 169.148 87.4963 168.602 87.1003 167.894C86.7163 167.174 86.5243 166.298 86.5243 165.266C86.5243 164.234 86.7163 163.364 87.1003 162.656C87.4843 161.936 88.0063 161.39 88.6663 161.018C89.3263 160.646 90.0703 160.46 90.8983 160.46C91.7983 160.46 92.6023 160.664 93.3103 161.072C94.0303 161.468 94.5943 162.032 95.0023 162.764C95.4103 163.484 95.6143 164.318 95.6143 165.266C95.6143 166.226 95.4103 167.066 95.0023 167.786C94.5943 168.506 94.0303 169.07 93.3103 169.478C92.6023 169.886 91.7983 170.09 90.8983 170.09ZM86.0203 173.492V160.55H87.2443V163.394L87.1183 165.284L87.2983 167.192V173.492H86.0203ZM90.8083 168.956C91.4803 168.956 92.0803 168.806 92.6083 168.506C93.1363 168.194 93.5563 167.762 93.8683 167.21C94.1803 166.646 94.3363 165.998 94.3363 165.266C94.3363 164.534 94.1803 163.892 93.8683 163.34C93.5563 162.788 93.1363 162.356 92.6083 162.044C92.0803 161.732 91.4803 161.576 90.8083 161.576C90.1363 161.576 89.5303 161.732 88.9903 162.044C88.4623 162.356 88.0423 162.788 87.7303 163.34C87.4303 163.892 87.2803 164.534 87.2803 165.266C87.2803 165.998 87.4303 166.646 87.7303 167.21C88.0423 167.762 88.4623 168.194 88.9903 168.506C89.5303 168.806 90.1363 168.956 90.8083 168.956ZM100.758 170.09C99.9775 170.09 99.2395 169.982 98.5435 169.766C97.8475 169.538 97.3015 169.256 96.9055 168.92L97.4815 167.912C97.8655 168.2 98.3575 168.452 98.9575 168.668C99.5575 168.872 100.188 168.974 100.848 168.974C101.748 168.974 102.396 168.836 102.792 168.56C103.188 168.272 103.386 167.894 103.386 167.426C103.386 167.078 103.272 166.808 103.044 166.616C102.828 166.412 102.54 166.262 102.18 166.166C101.82 166.058 101.418 165.968 100.974 165.896C100.53 165.824 100.086 165.74 99.6415 165.644C99.2095 165.548 98.8135 165.41 98.4535 165.23C98.0935 165.038 97.7995 164.78 97.5715 164.456C97.3555 164.132 97.2475 163.7 97.2475 163.16C97.2475 162.644 97.3915 162.182 97.6795 161.774C97.9675 161.366 98.3875 161.048 98.9395 160.82C99.5035 160.58 100.188 160.46 100.992 160.46C101.604 160.46 102.216 160.544 102.828 160.712C103.44 160.868 103.944 161.078 104.34 161.342L103.782 162.368C103.362 162.08 102.912 161.876 102.432 161.756C101.952 161.624 101.472 161.558 100.992 161.558C100.14 161.558 99.5095 161.708 99.1015 162.008C98.7055 162.296 98.5075 162.668 98.5075 163.124C98.5075 163.484 98.6155 163.766 98.8315 163.97C99.0595 164.174 99.3535 164.336 99.7135 164.456C100.086 164.564 100.488 164.654 100.92 164.726C101.364 164.798 101.802 164.888 102.234 164.996C102.678 165.092 103.08 165.23 103.44 165.41C103.812 165.578 104.106 165.824 104.322 166.148C104.55 166.46 104.664 166.874 104.664 167.39C104.664 167.942 104.508 168.422 104.196 168.83C103.896 169.226 103.452 169.538 102.864 169.766C102.288 169.982 101.586 170.09 100.758 170.09ZM110.915 170.09C110.111 170.09 109.409 169.94 108.809 169.64C108.209 169.34 107.741 168.89 107.405 168.29C107.081 167.69 106.919 166.94 106.919 166.04V160.55H108.197V165.896C108.197 166.904 108.443 167.666 108.935 168.182C109.439 168.686 110.141 168.938 111.041 168.938C111.701 168.938 112.271 168.806 112.751 168.542C113.243 168.266 113.615 167.87 113.867 167.354C114.131 166.838 114.263 166.22 114.263 165.5V160.55H115.541V170H114.317V167.408L114.515 167.876C114.215 168.572 113.747 169.118 113.111 169.514C112.487 169.898 111.755 170.09 110.915 170.09ZM130.91 160.46C131.678 160.46 132.344 160.61 132.908 160.91C133.484 161.198 133.928 161.642 134.24 162.242C134.564 162.842 134.726 163.598 134.726 164.51V170H133.448V164.636C133.448 163.64 133.208 162.89 132.728 162.386C132.26 161.87 131.594 161.612 130.73 161.612C130.082 161.612 129.518 161.75 129.038 162.026C128.57 162.29 128.204 162.68 127.94 163.196C127.688 163.7 127.562 164.312 127.562 165.032V170H126.284V164.636C126.284 163.64 126.044 162.89 125.564 162.386C125.084 161.87 124.412 161.612 123.548 161.612C122.912 161.612 122.354 161.75 121.874 162.026C121.394 162.29 121.022 162.68 120.758 163.196C120.506 163.7 120.38 164.312 120.38 165.032V170H119.102V160.55H120.326V163.106L120.128 162.656C120.416 161.972 120.878 161.438 121.514 161.054C122.162 160.658 122.924 160.46 123.8 160.46C124.724 160.46 125.51 160.694 126.158 161.162C126.806 161.618 127.226 162.308 127.418 163.232L126.914 163.034C127.19 162.266 127.676 161.648 128.372 161.18C129.08 160.7 129.926 160.46 130.91 160.46ZM146.665 170.09C145.765 170.09 144.955 169.886 144.235 169.478C143.527 169.07 142.969 168.506 142.561 167.786C142.153 167.054 141.949 166.214 141.949 165.266C141.949 164.306 142.153 163.466 142.561 162.746C142.969 162.026 143.527 161.468 144.235 161.072C144.955 160.664 145.765 160.46 146.665 160.46C147.493 160.46 148.231 160.646 148.879 161.018C149.539 161.39 150.061 161.936 150.445 162.656C150.841 163.364 151.039 164.234 151.039 165.266C151.039 166.286 150.847 167.156 150.463 167.876C150.079 168.596 149.557 169.148 148.897 169.532C148.249 169.904 147.505 170.09 146.665 170.09ZM146.755 168.956C147.427 168.956 148.027 168.806 148.555 168.506C149.095 168.194 149.515 167.762 149.815 167.21C150.127 166.646 150.283 165.998 150.283 165.266C150.283 164.522 150.127 163.874 149.815 163.322C149.515 162.77 149.095 162.344 148.555 162.044C148.027 161.732 147.427 161.576 146.755 161.576C146.095 161.576 145.501 161.732 144.973 162.044C144.445 162.344 144.025 162.77 143.713 163.322C143.401 163.874 143.245 164.522 143.245 165.266C143.245 165.998 143.401 166.646 143.713 167.21C144.025 167.762 144.445 168.194 144.973 168.506C145.501 168.806 146.095 168.956 146.755 168.956ZM150.319 170V167.156L150.445 165.248L150.265 163.34V156.644H151.543V170H150.319ZM158.954 170.09C158.042 170.09 157.22 169.886 156.488 169.478C155.768 169.058 155.198 168.488 154.778 167.768C154.358 167.036 154.148 166.202 154.148 165.266C154.148 164.318 154.358 163.484 154.778 162.764C155.198 162.044 155.768 161.48 156.488 161.072C157.208 160.664 158.03 160.46 158.954 160.46C159.89 160.46 160.718 160.664 161.438 161.072C162.17 161.48 162.74 162.044 163.148 162.764C163.568 163.484 163.778 164.318 163.778 165.266C163.778 166.202 163.568 167.036 163.148 167.768C162.74 168.488 162.17 169.058 161.438 169.478C160.706 169.886 159.878 170.09 158.954 170.09ZM158.954 168.956C159.638 168.956 160.244 168.806 160.772 168.506C161.3 168.194 161.714 167.762 162.014 167.21C162.326 166.646 162.482 165.998 162.482 165.266C162.482 164.522 162.326 163.874 162.014 163.322C161.714 162.77 161.3 162.344 160.772 162.044C160.244 161.732 159.644 161.576 158.972 161.576C158.3 161.576 157.7 161.732 157.172 162.044C156.644 162.344 156.224 162.77 155.912 163.322C155.6 163.874 155.444 164.522 155.444 165.266C155.444 165.998 155.6 166.646 155.912 167.21C156.224 167.762 156.644 168.194 157.172 168.506C157.7 168.806 158.294 168.956 158.954 168.956ZM166.387 170V156.644H167.665V170H166.387ZM175.073 170.09C174.161 170.09 173.339 169.886 172.607 169.478C171.887 169.058 171.317 168.488 170.897 167.768C170.477 167.036 170.267 166.202 170.267 165.266C170.267 164.318 170.477 163.484 170.897 162.764C171.317 162.044 171.887 161.48 172.607 161.072C173.327 160.664 174.149 160.46 175.073 160.46C176.009 160.46 176.837 160.664 177.557 161.072C178.289 161.48 178.859 162.044 179.267 162.764C179.687 163.484 179.897 164.318 179.897 165.266C179.897 166.202 179.687 167.036 179.267 167.768C178.859 168.488 178.289 169.058 177.557 169.478C176.825 169.886 175.997 170.09 175.073 170.09ZM175.073 168.956C175.757 168.956 176.363 168.806 176.891 168.506C177.419 168.194 177.833 167.762 178.133 167.21C178.445 166.646 178.601 165.998 178.601 165.266C178.601 164.522 178.445 163.874 178.133 163.322C177.833 162.77 177.419 162.344 176.891 162.044C176.363 161.732 175.763 161.576 175.091 161.576C174.419 161.576 173.819 161.732 173.291 162.044C172.763 162.344 172.343 162.77 172.031 163.322C171.719 163.874 171.563 164.522 171.563 165.266C171.563 165.998 171.719 166.646 172.031 167.21C172.343 167.762 172.763 168.194 173.291 168.506C173.819 168.806 174.413 168.956 175.073 168.956ZM182.507 170V160.55H183.731V163.124L183.605 162.674C183.869 161.954 184.313 161.408 184.937 161.036C185.561 160.652 186.335 160.46 187.259 160.46V161.702C187.211 161.702 187.163 161.702 187.115 161.702C187.067 161.69 187.019 161.684 186.971 161.684C185.975 161.684 185.195 161.99 184.631 162.602C184.067 163.202 183.785 164.06 183.785 165.176V170H182.507ZM20.32 192.09C19.54 192.09 18.802 191.982 18.106 191.766C17.41 191.538 16.864 191.256 16.468 190.92L17.044 189.912C17.428 190.2 17.92 190.452 18.52 190.668C19.12 190.872 19.75 190.974 20.41 190.974C21.31 190.974 21.958 190.836 22.354 190.56C22.75 190.272 22.948 189.894 22.948 189.426C22.948 189.078 22.834 188.808 22.606 188.616C22.39 188.412 22.102 188.262 21.742 188.166C21.382 188.058 20.98 187.968 20.536 187.896C20.092 187.824 19.648 187.74 19.204 187.644C18.772 187.548 18.376 187.41 18.016 187.23C17.656 187.038 17.362 186.78 17.134 186.456C16.918 186.132 16.81 185.7 16.81 185.16C16.81 184.644 16.954 184.182 17.242 183.774C17.53 183.366 17.95 183.048 18.502 182.82C19.066 182.58 19.75 182.46 20.554 182.46C21.166 182.46 21.778 182.544 22.39 182.712C23.002 182.868 23.506 183.078 23.902 183.342L23.344 184.368C22.924 184.08 22.474 183.876 21.994 183.756C21.514 183.624 21.034 183.558 20.554 183.558C19.702 183.558 19.072 183.708 18.664 184.008C18.268 184.296 18.07 184.668 18.07 185.124C18.07 185.484 18.178 185.766 18.394 185.97C18.622 186.174 18.916 186.336 19.276 186.456C19.648 186.564 20.05 186.654 20.482 186.726C20.926 186.798 21.364 186.888 21.796 186.996C22.24 187.092 22.642 187.23 23.002 187.41C23.374 187.578 23.668 187.824 23.884 188.148C24.112 188.46 24.226 188.874 24.226 189.39C24.226 189.942 24.07 190.422 23.758 190.83C23.458 191.226 23.014 191.538 22.426 191.766C21.85 191.982 21.148 192.09 20.32 192.09ZM26.5711 192V182.55H27.8491V192H26.5711ZM27.2191 180.462C26.9551 180.462 26.7331 180.372 26.5531 180.192C26.3731 180.012 26.2831 179.796 26.2831 179.544C26.2831 179.292 26.3731 179.082 26.5531 178.914C26.7331 178.734 26.9551 178.644 27.2191 178.644C27.4831 178.644 27.7051 178.728 27.8851 178.896C28.0651 179.064 28.1551 179.274 28.1551 179.526C28.1551 179.79 28.0651 180.012 27.8851 180.192C27.7171 180.372 27.4951 180.462 27.2191 180.462ZM34.393 192.09C33.505 192.09 32.821 191.85 32.341 191.37C31.861 190.89 31.621 190.212 31.621 189.336V180.462H32.899V189.264C32.899 189.816 33.037 190.242 33.313 190.542C33.601 190.842 34.009 190.992 34.537 190.992C35.101 190.992 35.569 190.83 35.941 190.506L36.391 191.424C36.139 191.652 35.833 191.82 35.473 191.928C35.125 192.036 34.765 192.09 34.393 192.09ZM29.929 183.612V182.55H35.779V183.612H29.929ZM49.3505 192V189.912L49.2965 189.57V186.078C49.2965 185.274 49.0685 184.656 48.6125 184.224C48.1685 183.792 47.5025 183.576 46.6145 183.576C46.0025 183.576 45.4205 183.678 44.8685 183.882C44.3165 184.086 43.8485 184.356 43.4645 184.692L42.8885 183.738C43.3685 183.33 43.9445 183.018 44.6165 182.802C45.2885 182.574 45.9965 182.46 46.7405 182.46C47.9645 182.46 48.9065 182.766 49.5665 183.378C50.2385 183.978 50.5745 184.896 50.5745 186.132V192H49.3505ZM46.0925 192.09C45.3845 192.09 44.7665 191.976 44.2385 191.748C43.7225 191.508 43.3265 191.184 43.0505 190.776C42.7745 190.356 42.6365 189.876 42.6365 189.336C42.6365 188.844 42.7505 188.4 42.9785 188.004C43.2185 187.596 43.6025 187.272 44.1305 187.032C44.6705 186.78 45.3905 186.654 46.2905 186.654H49.5485V187.608H46.3265C45.4145 187.608 44.7785 187.77 44.4185 188.094C44.0705 188.418 43.8965 188.82 43.8965 189.3C43.8965 189.84 44.1065 190.272 44.5265 190.596C44.9465 190.92 45.5345 191.082 46.2905 191.082C47.0105 191.082 47.6285 190.92 48.1445 190.596C48.6725 190.26 49.0565 189.78 49.2965 189.156L49.5845 190.038C49.3445 190.662 48.9245 191.16 48.3245 191.532C47.7365 191.904 46.9925 192.09 46.0925 192.09ZM65.8537 182.46C66.6217 182.46 67.2877 182.61 67.8517 182.91C68.4277 183.198 68.8717 183.642 69.1837 184.242C69.5077 184.842 69.6697 185.598 69.6697 186.51V192H68.3917V186.636C68.3917 185.64 68.1517 184.89 67.6717 184.386C67.2037 183.87 66.5377 183.612 65.6737 183.612C65.0257 183.612 64.4617 183.75 63.9817 184.026C63.5137 184.29 63.1477 184.68 62.8837 185.196C62.6317 185.7 62.5057 186.312 62.5057 187.032V192H61.2277V186.636C61.2277 185.64 60.9877 184.89 60.5077 184.386C60.0277 183.87 59.3557 183.612 58.4917 183.612C57.8557 183.612 57.2977 183.75 56.8177 184.026C56.3377 184.29 55.9657 184.68 55.7017 185.196C55.4497 185.7 55.3237 186.312 55.3237 187.032V192H54.0457V182.55H55.2697V185.106L55.0717 184.656C55.3597 183.972 55.8217 183.438 56.4577 183.054C57.1057 182.658 57.8677 182.46 58.7437 182.46C59.6677 182.46 60.4537 182.694 61.1017 183.162C61.7497 183.618 62.1697 184.308 62.3617 185.232L61.8577 185.034C62.1337 184.266 62.6197 183.648 63.3157 183.18C64.0237 182.7 64.8697 182.46 65.8537 182.46ZM77.1495 192.09C76.1655 192.09 75.3015 191.886 74.5575 191.478C73.8135 191.058 73.2315 190.488 72.8115 189.768C72.3915 189.036 72.1815 188.202 72.1815 187.266C72.1815 186.33 72.3795 185.502 72.7755 184.782C73.1835 184.062 73.7355 183.498 74.4315 183.09C75.1395 182.67 75.9315 182.46 76.8075 182.46C77.6955 182.46 78.4815 182.664 79.1655 183.072C79.8615 183.468 80.4075 184.032 80.8035 184.764C81.1995 185.484 81.3975 186.318 81.3975 187.266C81.3975 187.326 81.3915 187.392 81.3795 187.464C81.3795 187.524 81.3795 187.59 81.3795 187.662H73.1535V186.708H80.6955L80.1915 187.086C80.1915 186.402 80.0415 185.796 79.7415 185.268C79.4535 184.728 79.0575 184.308 78.5535 184.008C78.0495 183.708 77.4675 183.558 76.8075 183.558C76.1595 183.558 75.5775 183.708 75.0615 184.008C74.5455 184.308 74.1435 184.728 73.8555 185.268C73.5675 185.808 73.4235 186.426 73.4235 187.122V187.32C73.4235 188.04 73.5795 188.676 73.8915 189.228C74.2155 189.768 74.6595 190.194 75.2235 190.506C75.7995 190.806 76.4535 190.956 77.1855 190.956C77.7615 190.956 78.2955 190.854 78.7875 190.65C79.2915 190.446 79.7235 190.134 80.0835 189.714L80.8035 190.542C80.3835 191.046 79.8555 191.43 79.2195 191.694C78.5955 191.958 77.9055 192.09 77.1495 192.09ZM86.9868 192.09C86.0988 192.09 85.4148 191.85 84.9348 191.37C84.4548 190.89 84.2148 190.212 84.2148 189.336V180.462H85.4928V189.264C85.4928 189.816 85.6308 190.242 85.9068 190.542C86.1948 190.842 86.6028 190.992 87.1308 190.992C87.6948 190.992 88.1628 190.83 88.5348 190.506L88.9848 191.424C88.7328 191.652 88.4268 191.82 88.0668 191.928C87.7188 192.036 87.3588 192.09 86.9868 192.09ZM82.5228 183.612V182.55H88.3728V183.612H82.5228ZM90.7131 194.628L91.5051 191.298L91.6491 192.072C91.3731 192.072 91.1391 191.982 90.9471 191.802C90.7671 191.622 90.6771 191.388 90.6771 191.1C90.6771 190.812 90.7671 190.578 90.9471 190.398C91.1391 190.218 91.3671 190.128 91.6311 190.128C91.9071 190.128 92.1291 190.224 92.2971 190.416C92.4771 190.608 92.5671 190.836 92.5671 191.1C92.5671 191.196 92.5611 191.292 92.5491 191.388C92.5371 191.484 92.5131 191.592 92.4771 191.712C92.4411 191.832 92.3931 191.976 92.3331 192.144L91.5771 194.628H90.7131ZM103.936 192.09C103 192.09 102.16 191.886 101.416 191.478C100.684 191.058 100.108 190.488 99.6885 189.768C99.2685 189.036 99.0585 188.202 99.0585 187.266C99.0585 186.318 99.2685 185.484 99.6885 184.764C100.108 184.044 100.684 183.48 101.416 183.072C102.16 182.664 103 182.46 103.936 182.46C104.74 182.46 105.466 182.616 106.114 182.928C106.762 183.24 107.272 183.708 107.644 184.332L106.69 184.98C106.366 184.5 105.964 184.146 105.484 183.918C105.004 183.69 104.482 183.576 103.918 183.576C103.246 183.576 102.64 183.732 102.1 184.044C101.56 184.344 101.134 184.77 100.822 185.322C100.51 185.874 100.354 186.522 100.354 187.266C100.354 188.01 100.51 188.658 100.822 189.21C101.134 189.762 101.56 190.194 102.1 190.506C102.64 190.806 103.246 190.956 103.918 190.956C104.482 190.956 105.004 190.842 105.484 190.614C105.964 190.386 106.366 190.038 106.69 189.57L107.644 190.218C107.272 190.83 106.762 191.298 106.114 191.622C105.466 191.934 104.74 192.09 103.936 192.09ZM113.849 192.09C112.937 192.09 112.115 191.886 111.383 191.478C110.663 191.058 110.093 190.488 109.673 189.768C109.253 189.036 109.043 188.202 109.043 187.266C109.043 186.318 109.253 185.484 109.673 184.764C110.093 184.044 110.663 183.48 111.383 183.072C112.103 182.664 112.925 182.46 113.849 182.46C114.785 182.46 115.613 182.664 116.333 183.072C117.065 183.48 117.635 184.044 118.043 184.764C118.463 185.484 118.673 186.318 118.673 187.266C118.673 188.202 118.463 189.036 118.043 189.768C117.635 190.488 117.065 191.058 116.333 191.478C115.601 191.886 114.773 192.09 113.849 192.09ZM113.849 190.956C114.533 190.956 115.139 190.806 115.667 190.506C116.195 190.194 116.609 189.762 116.909 189.21C117.221 188.646 117.377 187.998 117.377 187.266C117.377 186.522 117.221 185.874 116.909 185.322C116.609 184.77 116.195 184.344 115.667 184.044C115.139 183.732 114.539 183.576 113.867 183.576C113.195 183.576 112.595 183.732 112.067 184.044C111.539 184.344 111.119 184.77 110.807 185.322C110.495 185.874 110.339 186.522 110.339 187.266C110.339 187.998 110.495 188.646 110.807 189.21C111.119 189.762 111.539 190.194 112.067 190.506C112.595 190.806 113.189 190.956 113.849 190.956ZM126.106 182.46C126.874 182.46 127.546 182.61 128.122 182.91C128.71 183.198 129.166 183.642 129.49 184.242C129.826 184.842 129.994 185.598 129.994 186.51V192H128.716V186.636C128.716 185.64 128.464 184.89 127.96 184.386C127.468 183.87 126.772 183.612 125.872 183.612C125.2 183.612 124.612 183.75 124.108 184.026C123.616 184.29 123.232 184.68 122.956 185.196C122.692 185.7 122.56 186.312 122.56 187.032V192H121.282V182.55H122.506V185.142L122.308 184.656C122.608 183.972 123.088 183.438 123.748 183.054C124.408 182.658 125.194 182.46 126.106 182.46ZM135.984 192.09C135.204 192.09 134.466 191.982 133.77 191.766C133.074 191.538 132.528 191.256 132.132 190.92L132.708 189.912C133.092 190.2 133.584 190.452 134.184 190.668C134.784 190.872 135.414 190.974 136.074 190.974C136.974 190.974 137.622 190.836 138.018 190.56C138.414 190.272 138.612 189.894 138.612 189.426C138.612 189.078 138.498 188.808 138.27 188.616C138.054 188.412 137.766 188.262 137.406 188.166C137.046 188.058 136.644 187.968 136.2 187.896C135.756 187.824 135.312 187.74 134.868 187.644C134.436 187.548 134.04 187.41 133.68 187.23C133.32 187.038 133.026 186.78 132.798 186.456C132.582 186.132 132.474 185.7 132.474 185.16C132.474 184.644 132.618 184.182 132.906 183.774C133.194 183.366 133.614 183.048 134.166 182.82C134.73 182.58 135.414 182.46 136.218 182.46C136.83 182.46 137.442 182.544 138.054 182.712C138.666 182.868 139.17 183.078 139.566 183.342L139.008 184.368C138.588 184.08 138.138 183.876 137.658 183.756C137.178 183.624 136.698 183.558 136.218 183.558C135.366 183.558 134.736 183.708 134.328 184.008C133.932 184.296 133.734 184.668 133.734 185.124C133.734 185.484 133.842 185.766 134.058 185.97C134.286 186.174 134.58 186.336 134.94 186.456C135.312 186.564 135.714 186.654 136.146 186.726C136.59 186.798 137.028 186.888 137.46 186.996C137.904 187.092 138.306 187.23 138.666 187.41C139.038 187.578 139.332 187.824 139.548 188.148C139.776 188.46 139.89 188.874 139.89 189.39C139.89 189.942 139.734 190.422 139.422 190.83C139.122 191.226 138.678 191.538 138.09 191.766C137.514 191.982 136.812 192.09 135.984 192.09ZM146.249 192.09C145.265 192.09 144.401 191.886 143.657 191.478C142.913 191.058 142.331 190.488 141.911 189.768C141.491 189.036 141.281 188.202 141.281 187.266C141.281 186.33 141.479 185.502 141.875 184.782C142.283 184.062 142.835 183.498 143.531 183.09C144.239 182.67 145.031 182.46 145.907 182.46C146.795 182.46 147.581 182.664 148.265 183.072C148.961 183.468 149.507 184.032 149.903 184.764C150.299 185.484 150.497 186.318 150.497 187.266C150.497 187.326 150.491 187.392 150.479 187.464C150.479 187.524 150.479 187.59 150.479 187.662H142.253V186.708H149.795L149.291 187.086C149.291 186.402 149.141 185.796 148.841 185.268C148.553 184.728 148.157 184.308 147.653 184.008C147.149 183.708 146.567 183.558 145.907 183.558C145.259 183.558 144.677 183.708 144.161 184.008C143.645 184.308 143.243 184.728 142.955 185.268C142.667 185.808 142.523 186.426 142.523 187.122V187.32C142.523 188.04 142.679 188.676 142.991 189.228C143.315 189.768 143.759 190.194 144.323 190.506C144.899 190.806 145.553 190.956 146.285 190.956C146.861 190.956 147.395 190.854 147.887 190.65C148.391 190.446 148.823 190.134 149.183 189.714L149.903 190.542C149.483 191.046 148.955 191.43 148.319 191.694C147.695 191.958 147.005 192.09 146.249 192.09ZM157.022 192.09C156.086 192.09 155.246 191.886 154.502 191.478C153.77 191.058 153.194 190.488 152.774 189.768C152.354 189.036 152.144 188.202 152.144 187.266C152.144 186.318 152.354 185.484 152.774 184.764C153.194 184.044 153.77 183.48 154.502 183.072C155.246 182.664 156.086 182.46 157.022 182.46C157.826 182.46 158.552 182.616 159.2 182.928C159.848 183.24 160.358 183.708 160.73 184.332L159.776 184.98C159.452 184.5 159.05 184.146 158.57 183.918C158.09 183.69 157.568 183.576 157.004 183.576C156.332 183.576 155.726 183.732 155.186 184.044C154.646 184.344 154.22 184.77 153.908 185.322C153.596 185.874 153.44 186.522 153.44 187.266C153.44 188.01 153.596 188.658 153.908 189.21C154.22 189.762 154.646 190.194 155.186 190.506C155.726 190.806 156.332 190.956 157.004 190.956C157.568 190.956 158.09 190.842 158.57 190.614C159.05 190.386 159.452 190.038 159.776 189.57L160.73 190.218C160.358 190.83 159.848 191.298 159.2 191.622C158.552 191.934 157.826 192.09 157.022 192.09ZM166.334 192.09C165.446 192.09 164.762 191.85 164.282 191.37C163.802 190.89 163.562 190.212 163.562 189.336V180.462H164.84V189.264C164.84 189.816 164.978 190.242 165.254 190.542C165.542 190.842 165.95 190.992 166.478 190.992C167.042 190.992 167.51 190.83 167.882 190.506L168.332 191.424C168.08 191.652 167.774 191.82 167.414 191.928C167.066 192.036 166.706 192.09 166.334 192.09ZM161.87 183.612V182.55H167.72V183.612H161.87ZM174.339 192.09C173.355 192.09 172.491 191.886 171.747 191.478C171.003 191.058 170.421 190.488 170.001 189.768C169.581 189.036 169.371 188.202 169.371 187.266C169.371 186.33 169.569 185.502 169.965 184.782C170.373 184.062 170.925 183.498 171.621 183.09C172.329 182.67 173.121 182.46 173.997 182.46C174.885 182.46 175.671 182.664 176.355 183.072C177.051 183.468 177.597 184.032 177.993 184.764C178.389 185.484 178.587 186.318 178.587 187.266C178.587 187.326 178.581 187.392 178.569 187.464C178.569 187.524 178.569 187.59 178.569 187.662H170.343V186.708H177.885L177.381 187.086C177.381 186.402 177.231 185.796 176.931 185.268C176.643 184.728 176.247 184.308 175.743 184.008C175.239 183.708 174.657 183.558 173.997 183.558C173.349 183.558 172.767 183.708 172.251 184.008C171.735 184.308 171.333 184.728 171.045 185.268C170.757 185.808 170.613 186.426 170.613 187.122V187.32C170.613 188.04 170.769 188.676 171.081 189.228C171.405 189.768 171.849 190.194 172.413 190.506C172.989 190.806 173.643 190.956 174.375 190.956C174.951 190.956 175.485 190.854 175.977 190.65C176.481 190.446 176.913 190.134 177.273 189.714L177.993 190.542C177.573 191.046 177.045 191.43 176.409 191.694C175.785 191.958 175.095 192.09 174.339 192.09ZM184.176 192.09C183.288 192.09 182.604 191.85 182.124 191.37C181.644 190.89 181.404 190.212 181.404 189.336V180.462H182.682V189.264C182.682 189.816 182.82 190.242 183.096 190.542C183.384 190.842 183.792 190.992 184.32 190.992C184.884 190.992 185.352 190.83 185.724 190.506L186.174 191.424C185.922 191.652 185.616 191.82 185.256 191.928C184.908 192.036 184.548 192.09 184.176 192.09ZM179.712 183.612V182.55H185.562V183.612H179.712ZM192.407 192.09C191.603 192.09 190.901 191.94 190.301 191.64C189.701 191.34 189.233 190.89 188.897 190.29C188.573 189.69 188.411 188.94 188.411 188.04V182.55H189.689V187.896C189.689 188.904 189.935 189.666 190.427 190.182C190.931 190.686 191.633 190.938 192.533 190.938C193.193 190.938 193.763 190.806 194.243 190.542C194.735 190.266 195.107 189.87 195.359 189.354C195.623 188.838 195.755 188.22 195.755 187.5V182.55H197.033V192H195.809V189.408L196.007 189.876C195.707 190.572 195.239 191.118 194.603 191.514C193.979 191.898 193.247 192.09 192.407 192.09ZM200.595 192V182.55H201.819V185.124L201.693 184.674C201.957 183.954 202.401 183.408 203.025 183.036C203.649 182.652 204.423 182.46 205.347 182.46V183.702C205.299 183.702 205.251 183.702 205.203 183.702C205.155 183.69 205.107 183.684 205.059 183.684C204.062 183.684 203.283 183.99 202.719 184.602C202.155 185.202 201.873 186.06 201.873 187.176V192H200.595ZM23.704 216V213.912L23.65 213.57V210.078C23.65 209.274 23.422 208.656 22.966 208.224C22.522 207.792 21.856 207.576 20.968 207.576C20.356 207.576 19.774 207.678 19.222 207.882C18.67 208.086 18.202 208.356 17.818 208.692L17.242 207.738C17.722 207.33 18.298 207.018 18.97 206.802C19.642 206.574 20.35 206.46 21.094 206.46C22.318 206.46 23.26 206.766 23.92 207.378C24.592 207.978 24.928 208.896 24.928 210.132V216H23.704ZM20.446 216.09C19.738 216.09 19.12 215.976 18.592 215.748C18.076 215.508 17.68 215.184 17.404 214.776C17.128 214.356 16.99 213.876 16.99 213.336C16.99 212.844 17.104 212.4 17.332 212.004C17.572 211.596 17.956 211.272 18.484 211.032C19.024 210.78 19.744 210.654 20.644 210.654H23.902V211.608H20.68C19.768 211.608 19.132 211.77 18.772 212.094C18.424 212.418 18.25 212.82 18.25 213.3C18.25 213.84 18.46 214.272 18.88 214.596C19.3 214.92 19.888 215.082 20.644 215.082C21.364 215.082 21.982 214.92 22.498 214.596C23.026 214.26 23.41 213.78 23.65 213.156L23.938 214.038C23.698 214.662 23.278 215.16 22.678 215.532C22.09 215.904 21.346 216.09 20.446 216.09ZM32.1612 216.09C31.2612 216.09 30.4512 215.886 29.7312 215.478C29.0232 215.07 28.4652 214.506 28.0572 213.786C27.6492 213.054 27.4452 212.214 27.4452 211.266C27.4452 210.306 27.6492 209.466 28.0572 208.746C28.4652 208.026 29.0232 207.468 29.7312 207.072C30.4512 206.664 31.2612 206.46 32.1612 206.46C32.9892 206.46 33.7272 206.646 34.3752 207.018C35.0352 207.39 35.5572 207.936 35.9412 208.656C36.3372 209.364 36.5352 210.234 36.5352 211.266C36.5352 212.286 36.3432 213.156 35.9592 213.876C35.5752 214.596 35.0532 215.148 34.3932 215.532C33.7452 215.904 33.0012 216.09 32.1612 216.09ZM32.2512 214.956C32.9232 214.956 33.5232 214.806 34.0512 214.506C34.5912 214.194 35.0112 213.762 35.3112 213.21C35.6232 212.646 35.7792 211.998 35.7792 211.266C35.7792 210.522 35.6232 209.874 35.3112 209.322C35.0112 208.77 34.5912 208.344 34.0512 208.044C33.5232 207.732 32.9232 207.576 32.2512 207.576C31.5912 207.576 30.9972 207.732 30.4692 208.044C29.9412 208.344 29.5212 208.77 29.2092 209.322C28.8972 209.874 28.7412 210.522 28.7412 211.266C28.7412 211.998 28.8972 212.646 29.2092 213.21C29.5212 213.762 29.9412 214.194 30.4692 214.506C30.9972 214.806 31.5912 214.956 32.2512 214.956ZM35.8152 216V213.156L35.9412 211.248L35.7612 209.34V202.644H37.0392V216H35.8152ZM40.5984 216V206.55H41.8764V216H40.5984ZM41.2464 204.462C40.9824 204.462 40.7604 204.372 40.5804 204.192C40.4004 204.012 40.3104 203.796 40.3104 203.544C40.3104 203.292 40.4004 203.082 40.5804 202.914C40.7604 202.734 40.9824 202.644 41.2464 202.644C41.5104 202.644 41.7324 202.728 41.9124 202.896C42.0924 203.064 42.1824 203.274 42.1824 203.526C42.1824 203.79 42.0924 204.012 41.9124 204.192C41.7444 204.372 41.5224 204.462 41.2464 204.462ZM50.3104 216.09C49.4944 216.09 48.7564 215.904 48.0964 215.532C47.4364 215.148 46.9084 214.602 46.5124 213.894C46.1284 213.174 45.9364 212.298 45.9364 211.266C45.9364 210.234 46.1284 209.364 46.5124 208.656C46.8964 207.936 47.4184 207.39 48.0784 207.018C48.7384 206.646 49.4824 206.46 50.3104 206.46C51.2104 206.46 52.0144 206.664 52.7224 207.072C53.4424 207.468 54.0064 208.032 54.4144 208.764C54.8224 209.484 55.0264 210.318 55.0264 211.266C55.0264 212.226 54.8224 213.066 54.4144 213.786C54.0064 214.506 53.4424 215.07 52.7224 215.478C52.0144 215.886 51.2104 216.09 50.3104 216.09ZM45.4324 219.492V206.55H46.6564V209.394L46.5304 211.284L46.7104 213.192V219.492H45.4324ZM50.2204 214.956C50.8924 214.956 51.4924 214.806 52.0204 214.506C52.5484 214.194 52.9684 213.762 53.2804 213.21C53.5924 212.646 53.7484 211.998 53.7484 211.266C53.7484 210.534 53.5924 209.892 53.2804 209.34C52.9684 208.788 52.5484 208.356 52.0204 208.044C51.4924 207.732 50.8924 207.576 50.2204 207.576C49.5484 207.576 48.9424 207.732 48.4024 208.044C47.8744 208.356 47.4544 208.788 47.1424 209.34C46.8424 209.892 46.6924 210.534 46.6924 211.266C46.6924 211.998 46.8424 212.646 47.1424 213.21C47.4544 213.762 47.8744 214.194 48.4024 214.506C48.9424 214.806 49.5484 214.956 50.2204 214.956ZM57.6316 216V206.55H58.9096V216H57.6316ZM58.2796 204.462C58.0156 204.462 57.7936 204.372 57.6136 204.192C57.4336 204.012 57.3436 203.796 57.3436 203.544C57.3436 203.292 57.4336 203.082 57.6136 202.914C57.7936 202.734 58.0156 202.644 58.2796 202.644C58.5436 202.644 58.7656 202.728 58.9456 202.896C59.1256 203.064 59.2156 203.274 59.2156 203.526C59.2156 203.79 59.1256 204.012 58.9456 204.192C58.7776 204.372 58.5556 204.462 58.2796 204.462ZM65.0036 216.09C64.2236 216.09 63.4856 215.982 62.7896 215.766C62.0936 215.538 61.5476 215.256 61.1516 214.92L61.7276 213.912C62.1116 214.2 62.6036 214.452 63.2036 214.668C63.8036 214.872 64.4336 214.974 65.0936 214.974C65.9936 214.974 66.6416 214.836 67.0376 214.56C67.4336 214.272 67.6316 213.894 67.6316 213.426C67.6316 213.078 67.5176 212.808 67.2896 212.616C67.0736 212.412 66.7856 212.262 66.4256 212.166C66.0656 212.058 65.6636 211.968 65.2196 211.896C64.7756 211.824 64.3316 211.74 63.8876 211.644C63.4556 211.548 63.0596 211.41 62.6996 211.23C62.3396 211.038 62.0456 210.78 61.8176 210.456C61.6016 210.132 61.4936 209.7 61.4936 209.16C61.4936 208.644 61.6376 208.182 61.9256 207.774C62.2136 207.366 62.6336 207.048 63.1856 206.82C63.7496 206.58 64.4336 206.46 65.2376 206.46C65.8496 206.46 66.4616 206.544 67.0736 206.712C67.6856 206.868 68.1896 207.078 68.5856 207.342L68.0276 208.368C67.6076 208.08 67.1576 207.876 66.6776 207.756C66.1976 207.624 65.7176 207.558 65.2376 207.558C64.3856 207.558 63.7556 207.708 63.3476 208.008C62.9516 208.296 62.7536 208.668 62.7536 209.124C62.7536 209.484 62.8616 209.766 63.0776 209.97C63.3056 210.174 63.5996 210.336 63.9596 210.456C64.3316 210.564 64.7336 210.654 65.1656 210.726C65.6096 210.798 66.0476 210.888 66.4796 210.996C66.9236 211.092 67.3256 211.23 67.6856 211.41C68.0576 211.578 68.3516 211.824 68.5676 212.148C68.7956 212.46 68.9096 212.874 68.9096 213.39C68.9096 213.942 68.7536 214.422 68.4416 214.83C68.1416 215.226 67.6976 215.538 67.1096 215.766C66.5336 215.982 65.8316 216.09 65.0036 216.09ZM75.1787 216.09C74.2427 216.09 73.4027 215.886 72.6587 215.478C71.9267 215.058 71.3507 214.488 70.9307 213.768C70.5107 213.036 70.3007 212.202 70.3007 211.266C70.3007 210.318 70.5107 209.484 70.9307 208.764C71.3507 208.044 71.9267 207.48 72.6587 207.072C73.4027 206.664 74.2427 206.46 75.1787 206.46C75.9827 206.46 76.7087 206.616 77.3567 206.928C78.0047 207.24 78.5147 207.708 78.8867 208.332L77.9327 208.98C77.6087 208.5 77.2067 208.146 76.7267 207.918C76.2467 207.69 75.7247 207.576 75.1607 207.576C74.4887 207.576 73.8827 207.732 73.3427 208.044C72.8027 208.344 72.3767 208.77 72.0647 209.322C71.7527 209.874 71.5967 210.522 71.5967 211.266C71.5967 212.01 71.7527 212.658 72.0647 213.21C72.3767 213.762 72.8027 214.194 73.3427 214.506C73.8827 214.806 74.4887 214.956 75.1607 214.956C75.7247 214.956 76.2467 214.842 76.7267 214.614C77.2067 214.386 77.6087 214.038 77.9327 213.57L78.8867 214.218C78.5147 214.83 78.0047 215.298 77.3567 215.622C76.7087 215.934 75.9827 216.09 75.1787 216.09ZM81.2566 216V206.55H82.5346V216H81.2566ZM81.9046 204.462C81.6406 204.462 81.4186 204.372 81.2386 204.192C81.0586 204.012 80.9686 203.796 80.9686 203.544C80.9686 203.292 81.0586 203.082 81.2386 202.914C81.4186 202.734 81.6406 202.644 81.9046 202.644C82.1686 202.644 82.3906 202.728 82.5706 202.896C82.7506 203.064 82.8406 203.274 82.8406 203.526C82.8406 203.79 82.7506 204.012 82.5706 204.192C82.4026 204.372 82.1806 204.462 81.9046 204.462ZM90.9146 206.46C91.6826 206.46 92.3546 206.61 92.9306 206.91C93.5186 207.198 93.9746 207.642 94.2986 208.242C94.6346 208.842 94.8026 209.598 94.8026 210.51V216H93.5246V210.636C93.5246 209.64 93.2726 208.89 92.7686 208.386C92.2766 207.87 91.5806 207.612 90.6806 207.612C90.0086 207.612 89.4206 207.75 88.9166 208.026C88.4246 208.29 88.0406 208.68 87.7646 209.196C87.5006 209.7 87.3686 210.312 87.3686 211.032V216H86.0906V206.55H87.3146V209.142L87.1166 208.656C87.4166 207.972 87.8966 207.438 88.5566 207.054C89.2166 206.658 90.0026 206.46 90.9146 206.46ZM102.287 219.582C101.423 219.582 100.595 219.456 99.8027 219.204C99.0107 218.952 98.3687 218.592 97.8767 218.124L98.5247 217.152C98.9687 217.548 99.5147 217.86 100.163 218.088C100.823 218.328 101.519 218.448 102.251 218.448C103.451 218.448 104.333 218.166 104.897 217.602C105.461 217.05 105.743 216.186 105.743 215.01V212.652L105.923 211.032L105.797 209.412V206.55H107.021V214.848C107.021 216.48 106.619 217.674 105.815 218.43C105.023 219.198 103.847 219.582 102.287 219.582ZM102.053 215.64C101.153 215.64 100.343 215.448 99.6227 215.064C98.9027 214.668 98.3327 214.122 97.9127 213.426C97.5047 212.73 97.3007 211.932 97.3007 211.032C97.3007 210.132 97.5047 209.34 97.9127 208.656C98.3327 207.96 98.9027 207.42 99.6227 207.036C100.343 206.652 101.153 206.46 102.053 206.46C102.893 206.46 103.649 206.634 104.321 206.982C104.993 207.33 105.527 207.846 105.923 208.53C106.319 209.214 106.517 210.048 106.517 211.032C106.517 212.016 106.319 212.85 105.923 213.534C105.527 214.218 104.993 214.74 104.321 215.1C103.649 215.46 102.893 215.64 102.053 215.64ZM102.179 214.506C102.875 214.506 103.493 214.362 104.033 214.074C104.573 213.774 104.999 213.366 105.311 212.85C105.623 212.322 105.779 211.716 105.779 211.032C105.779 210.348 105.623 209.748 105.311 209.232C104.999 208.716 104.573 208.314 104.033 208.026C103.493 207.726 102.875 207.576 102.179 207.576C101.495 207.576 100.877 207.726 100.325 208.026C99.7847 208.314 99.3587 208.716 99.0467 209.232C98.7467 209.748 98.5967 210.348 98.5967 211.032C98.5967 211.716 98.7467 212.322 99.0467 212.85C99.3587 213.366 99.7847 213.774 100.325 214.074C100.877 214.362 101.495 214.506 102.179 214.506ZM119.302 216.09C118.318 216.09 117.454 215.886 116.71 215.478C115.966 215.058 115.384 214.488 114.964 213.768C114.544 213.036 114.334 212.202 114.334 211.266C114.334 210.33 114.532 209.502 114.928 208.782C115.336 208.062 115.888 207.498 116.584 207.09C117.292 206.67 118.084 206.46 118.96 206.46C119.848 206.46 120.634 206.664 121.318 207.072C122.014 207.468 122.56 208.032 122.956 208.764C123.352 209.484 123.55 210.318 123.55 211.266C123.55 211.326 123.544 211.392 123.532 211.464C123.532 211.524 123.532 211.59 123.532 211.662H115.306V210.708H122.848L122.344 211.086C122.344 210.402 122.194 209.796 121.894 209.268C121.606 208.728 121.21 208.308 120.706 208.008C120.202 207.708 119.62 207.558 118.96 207.558C118.312 207.558 117.73 207.708 117.214 208.008C116.698 208.308 116.296 208.728 116.008 209.268C115.72 209.808 115.576 210.426 115.576 211.122V211.32C115.576 212.04 115.732 212.676 116.044 213.228C116.368 213.768 116.812 214.194 117.376 214.506C117.952 214.806 118.606 214.956 119.338 214.956C119.914 214.956 120.448 214.854 120.94 214.65C121.444 214.446 121.876 214.134 122.236 213.714L122.956 214.542C122.536 215.046 122.008 215.43 121.372 215.694C120.748 215.958 120.058 216.09 119.302 216.09ZM126.151 216V202.644H127.429V216H126.151ZM130.985 216V206.55H132.263V216H130.985ZM131.633 204.462C131.369 204.462 131.147 204.372 130.967 204.192C130.787 204.012 130.697 203.796 130.697 203.544C130.697 203.292 130.787 203.082 130.967 202.914C131.147 202.734 131.369 202.644 131.633 202.644C131.897 202.644 132.119 202.728 132.299 202.896C132.479 203.064 132.569 203.274 132.569 203.526C132.569 203.79 132.479 204.012 132.299 204.192C132.131 204.372 131.909 204.462 131.633 204.462ZM138.807 216.09C137.919 216.09 137.235 215.85 136.755 215.37C136.275 214.89 136.035 214.212 136.035 213.336V204.462H137.313V213.264C137.313 213.816 137.451 214.242 137.727 214.542C138.015 214.842 138.423 214.992 138.951 214.992C139.515 214.992 139.983 214.83 140.355 214.506L140.805 215.424C140.553 215.652 140.247 215.82 139.887 215.928C139.539 216.036 139.179 216.09 138.807 216.09ZM134.343 207.612V206.55H140.193V207.612H134.343ZM142.533 218.628L143.325 215.298L143.469 216.072C143.193 216.072 142.959 215.982 142.767 215.802C142.587 215.622 142.497 215.388 142.497 215.1C142.497 214.812 142.587 214.578 142.767 214.398C142.959 214.218 143.187 214.128 143.451 214.128C143.727 214.128 143.949 214.224 144.117 214.416C144.297 214.608 144.387 214.836 144.387 215.1C144.387 215.196 144.381 215.292 144.369 215.388C144.357 215.484 144.333 215.592 144.297 215.712C144.261 215.832 144.213 215.976 144.153 216.144L143.397 218.628H142.533ZM154.371 216.09C153.591 216.09 152.853 215.982 152.157 215.766C151.461 215.538 150.915 215.256 150.519 214.92L151.095 213.912C151.479 214.2 151.971 214.452 152.571 214.668C153.171 214.872 153.801 214.974 154.461 214.974C155.361 214.974 156.009 214.836 156.405 214.56C156.801 214.272 156.999 213.894 156.999 213.426C156.999 213.078 156.885 212.808 156.657 212.616C156.441 212.412 156.153 212.262 155.793 212.166C155.433 212.058 155.031 211.968 154.587 211.896C154.143 211.824 153.699 211.74 153.255 211.644C152.823 211.548 152.427 211.41 152.067 211.23C151.707 211.038 151.413 210.78 151.185 210.456C150.969 210.132 150.861 209.7 150.861 209.16C150.861 208.644 151.005 208.182 151.293 207.774C151.581 207.366 152.001 207.048 152.553 206.82C153.117 206.58 153.801 206.46 154.605 206.46C155.217 206.46 155.829 206.544 156.441 206.712C157.053 206.868 157.557 207.078 157.953 207.342L157.395 208.368C156.975 208.08 156.525 207.876 156.045 207.756C155.565 207.624 155.085 207.558 154.605 207.558C153.753 207.558 153.123 207.708 152.715 208.008C152.319 208.296 152.121 208.668 152.121 209.124C152.121 209.484 152.229 209.766 152.445 209.97C152.673 210.174 152.967 210.336 153.327 210.456C153.699 210.564 154.101 210.654 154.533 210.726C154.977 210.798 155.415 210.888 155.847 210.996C156.291 211.092 156.693 211.23 157.053 211.41C157.425 211.578 157.719 211.824 157.935 212.148C158.163 212.46 158.277 212.874 158.277 213.39C158.277 213.942 158.121 214.422 157.809 214.83C157.509 215.226 157.065 215.538 156.477 215.766C155.901 215.982 155.199 216.09 154.371 216.09ZM164.636 216.09C163.652 216.09 162.788 215.886 162.044 215.478C161.3 215.058 160.718 214.488 160.298 213.768C159.878 213.036 159.668 212.202 159.668 211.266C159.668 210.33 159.866 209.502 160.262 208.782C160.67 208.062 161.222 207.498 161.918 207.09C162.626 206.67 163.418 206.46 164.294 206.46C165.182 206.46 165.968 206.664 166.652 207.072C167.348 207.468 167.894 208.032 168.29 208.764C168.686 209.484 168.884 210.318 168.884 211.266C168.884 211.326 168.878 211.392 168.866 211.464C168.866 211.524 168.866 211.59 168.866 211.662H160.64V210.708H168.182L167.678 211.086C167.678 210.402 167.528 209.796 167.228 209.268C166.94 208.728 166.544 208.308 166.04 208.008C165.536 207.708 164.954 207.558 164.294 207.558C163.646 207.558 163.064 207.708 162.548 208.008C162.032 208.308 161.63 208.728 161.342 209.268C161.054 209.808 160.91 210.426 160.91 211.122V211.32C160.91 212.04 161.066 212.676 161.378 213.228C161.702 213.768 162.146 214.194 162.71 214.506C163.286 214.806 163.94 214.956 164.672 214.956C165.248 214.956 165.782 214.854 166.274 214.65C166.778 214.446 167.21 214.134 167.57 213.714L168.29 214.542C167.87 215.046 167.342 215.43 166.706 215.694C166.082 215.958 165.392 216.09 164.636 216.09ZM175.247 216.09C174.347 216.09 173.537 215.886 172.817 215.478C172.109 215.07 171.551 214.506 171.143 213.786C170.735 213.054 170.531 212.214 170.531 211.266C170.531 210.306 170.735 209.466 171.143 208.746C171.551 208.026 172.109 207.468 172.817 207.072C173.537 206.664 174.347 206.46 175.247 206.46C176.075 206.46 176.813 206.646 177.461 207.018C178.121 207.39 178.643 207.936 179.027 208.656C179.423 209.364 179.621 210.234 179.621 211.266C179.621 212.286 179.429 213.156 179.045 213.876C178.661 214.596 178.139 215.148 177.479 215.532C176.831 215.904 176.087 216.09 175.247 216.09ZM175.337 214.956C176.009 214.956 176.609 214.806 177.137 214.506C177.677 214.194 178.097 213.762 178.397 213.21C178.709 212.646 178.865 211.998 178.865 211.266C178.865 210.522 178.709 209.874 178.397 209.322C178.097 208.77 177.677 208.344 177.137 208.044C176.609 207.732 176.009 207.576 175.337 207.576C174.677 207.576 174.083 207.732 173.555 208.044C173.027 208.344 172.607 208.77 172.295 209.322C171.983 209.874 171.827 210.522 171.827 211.266C171.827 211.998 171.983 212.646 172.295 213.21C172.607 213.762 173.027 214.194 173.555 214.506C174.083 214.806 174.677 214.956 175.337 214.956ZM178.901 216V213.156L179.027 211.248L178.847 209.34V202.644H180.125V216H178.901Z" fill="#343434"/>
<path d="M18.256 79V62.2H25.168C26.656 62.2 27.928 62.44 28.984 62.92C30.056 63.4 30.88 64.088 31.456 64.984C32.032 65.88 32.32 66.944 32.32 68.176C32.32 69.408 32.032 70.472 31.456 71.368C30.88 72.264 30.056 72.952 28.984 73.432C27.928 73.912 26.656 74.152 25.168 74.152H19.984L21.376 72.688V79H18.256ZM21.376 73.024L19.984 71.512H25.024C26.4 71.512 27.432 71.224 28.12 70.648C28.824 70.056 29.176 69.232 29.176 68.176C29.176 67.104 28.824 66.28 28.12 65.704C27.432 65.128 26.4 64.84 25.024 64.84H19.984L21.376 63.304V73.024ZM35.0305 79V66.184H37.8865V69.712L37.5505 68.68C37.9345 67.816 38.5345 67.16 39.3505 66.712C40.1825 66.264 41.2145 66.04 42.4465 66.04V68.896C42.3185 68.864 42.1985 68.848 42.0865 68.848C41.9745 68.832 41.8625 68.824 41.7505 68.824C40.6145 68.824 39.7105 69.16 39.0385 69.832C38.3665 70.488 38.0305 71.472 38.0305 72.784V79H35.0305ZM50.6343 79.168C49.3223 79.168 48.1543 78.888 47.1303 78.328C46.1063 77.752 45.2983 76.968 44.7063 75.976C44.1143 74.984 43.8183 73.856 43.8183 72.592C43.8183 71.312 44.1143 70.184 44.7063 69.208C45.2983 68.216 46.1063 67.44 47.1303 66.88C48.1543 66.32 49.3223 66.04 50.6343 66.04C51.9623 66.04 53.1383 66.32 54.1623 66.88C55.2023 67.44 56.0103 68.208 56.5863 69.184C57.1783 70.16 57.4743 71.296 57.4743 72.592C57.4743 73.856 57.1783 74.984 56.5863 75.976C56.0103 76.968 55.2023 77.752 54.1623 78.328C53.1383 78.888 51.9623 79.168 50.6343 79.168ZM50.6343 76.6C51.3703 76.6 52.0263 76.44 52.6023 76.12C53.1783 75.8 53.6263 75.336 53.9463 74.728C54.2823 74.12 54.4503 73.408 54.4503 72.592C54.4503 71.76 54.2823 71.048 53.9463 70.456C53.6263 69.848 53.1783 69.384 52.6023 69.064C52.0263 68.744 51.3783 68.584 50.6583 68.584C49.9223 68.584 49.2663 68.744 48.6903 69.064C48.1303 69.384 47.6823 69.848 47.3463 70.456C47.0103 71.048 46.8423 71.76 46.8423 72.592C46.8423 73.408 47.0103 74.12 47.3463 74.728C47.6823 75.336 48.1303 75.8 48.6903 76.12C49.2663 76.44 49.9143 76.6 50.6343 76.6ZM66.151 83.824C64.967 83.824 63.807 83.664 62.671 83.344C61.551 83.04 60.631 82.592 59.911 82L61.255 79.744C61.815 80.208 62.519 80.576 63.367 80.848C64.231 81.136 65.103 81.28 65.983 81.28C67.391 81.28 68.423 80.952 69.079 80.296C69.735 79.656 70.063 78.688 70.063 77.392V75.112L70.303 72.208L70.207 69.304V66.184H73.063V77.056C73.063 79.376 72.471 81.08 71.287 82.168C70.103 83.272 68.391 83.824 66.151 83.824ZM65.767 78.424C64.551 78.424 63.447 78.168 62.455 77.656C61.479 77.128 60.703 76.4 60.127 75.472C59.567 74.544 59.287 73.456 59.287 72.208C59.287 70.976 59.567 69.896 60.127 68.968C60.703 68.04 61.479 67.32 62.455 66.808C63.447 66.296 64.551 66.04 65.767 66.04C66.855 66.04 67.831 66.256 68.695 66.688C69.559 67.12 70.247 67.792 70.759 68.704C71.287 69.616 71.551 70.784 71.551 72.208C71.551 73.632 71.287 74.808 70.759 75.736C70.247 76.648 69.559 77.328 68.695 77.776C67.831 78.208 66.855 78.424 65.767 78.424ZM66.223 75.88C66.975 75.88 67.647 75.728 68.239 75.424C68.831 75.104 69.287 74.672 69.607 74.128C69.943 73.568 70.111 72.928 70.111 72.208C70.111 71.488 69.943 70.856 69.607 70.312C69.287 69.752 68.831 69.328 68.239 69.04C67.647 68.736 66.975 68.584 66.223 68.584C65.471 68.584 64.791 68.736 64.183 69.04C63.591 69.328 63.127 69.752 62.791 70.312C62.471 70.856 62.311 71.488 62.311 72.208C62.311 72.928 62.471 73.568 62.791 74.128C63.127 74.672 63.591 75.104 64.183 75.424C64.791 75.728 65.471 75.88 66.223 75.88ZM77.0071 79V66.184H79.8631V69.712L79.5271 68.68C79.9111 67.816 80.5111 67.16 81.3271 66.712C82.1591 66.264 83.1911 66.04 84.4231 66.04V68.896C84.2951 68.864 84.1751 68.848 84.0631 68.848C83.9511 68.832 83.8391 68.824 83.7271 68.824C82.5911 68.824 81.6871 69.16 81.0151 69.832C80.3431 70.488 80.0071 71.472 80.0071 72.784V79H77.0071ZM92.8748 79.168C91.4508 79.168 90.2028 78.888 89.1308 78.328C88.0748 77.752 87.2508 76.968 86.6588 75.976C86.0828 74.984 85.7948 73.856 85.7948 72.592C85.7948 71.312 86.0748 70.184 86.6348 69.208C87.2108 68.216 87.9948 67.44 88.9868 66.88C89.9948 66.32 91.1388 66.04 92.4188 66.04C93.6668 66.04 94.7788 66.312 95.7548 66.856C96.7308 67.4 97.4988 68.168 98.0588 69.16C98.6188 70.152 98.8988 71.32 98.8988 72.664C98.8988 72.792 98.8908 72.936 98.8748 73.096C98.8748 73.256 98.8668 73.408 98.8508 73.552H88.1708V71.56H97.2668L96.0908 72.184C96.1068 71.448 95.9548 70.8 95.6348 70.24C95.3148 69.68 94.8748 69.24 94.3148 68.92C93.7708 68.6 93.1388 68.44 92.4188 68.44C91.6828 68.44 91.0348 68.6 90.4748 68.92C89.9308 69.24 89.4988 69.688 89.1788 70.264C88.8748 70.824 88.7228 71.488 88.7228 72.256V72.736C88.7228 73.504 88.8988 74.184 89.2508 74.776C89.6028 75.368 90.0988 75.824 90.7388 76.144C91.3788 76.464 92.1148 76.624 92.9468 76.624C93.6668 76.624 94.3148 76.512 94.8908 76.288C95.4668 76.064 95.9788 75.712 96.4268 75.232L98.0348 77.08C97.4588 77.752 96.7308 78.272 95.8508 78.64C94.9868 78.992 93.9948 79.168 92.8748 79.168ZM105.741 79.168C104.669 79.168 103.637 79.032 102.645 78.76C101.669 78.472 100.893 78.128 100.317 77.728L101.469 75.448C102.045 75.816 102.733 76.12 103.533 76.36C104.333 76.6 105.133 76.72 105.933 76.72C106.877 76.72 107.557 76.592 107.973 76.336C108.405 76.08 108.621 75.736 108.621 75.304C108.621 74.952 108.477 74.688 108.189 74.512C107.901 74.32 107.525 74.176 107.061 74.08C106.597 73.984 106.077 73.896 105.501 73.816C104.941 73.736 104.373 73.632 103.797 73.504C103.237 73.36 102.725 73.16 102.261 72.904C101.797 72.632 101.421 72.272 101.133 71.824C100.845 71.376 100.701 70.784 100.701 70.048C100.701 69.232 100.933 68.528 101.396 67.936C101.861 67.328 102.509 66.864 103.34 66.544C104.189 66.208 105.189 66.04 106.341 66.04C107.205 66.04 108.077 66.136 108.957 66.328C109.837 66.52 110.565 66.792 111.141 67.144L109.989 69.424C109.381 69.056 108.765 68.808 108.141 68.68C107.533 68.536 106.925 68.464 106.317 68.464C105.405 68.464 104.725 68.6 104.277 68.872C103.845 69.144 103.629 69.488 103.629 69.904C103.629 70.288 103.773 70.576 104.061 70.768C104.349 70.96 104.725 71.112 105.189 71.224C105.653 71.336 106.165 71.432 106.725 71.512C107.301 71.576 107.869 71.68 108.429 71.824C108.989 71.968 109.501 72.168 109.965 72.424C110.445 72.664 110.829 73.008 111.117 73.456C111.405 73.904 111.549 74.488 111.549 75.208C111.549 76.008 111.309 76.704 110.829 77.296C110.365 77.888 109.701 78.352 108.837 78.688C107.973 79.008 106.941 79.168 105.741 79.168ZM118.092 79.168C117.02 79.168 115.988 79.032 114.996 78.76C114.02 78.472 113.244 78.128 112.668 77.728L113.82 75.448C114.396 75.816 115.084 76.12 115.884 76.36C116.684 76.6 117.484 76.72 118.284 76.72C119.228 76.72 119.908 76.592 120.324 76.336C120.756 76.08 120.972 75.736 120.972 75.304C120.972 74.952 120.828 74.688 120.54 74.512C120.252 74.32 119.876 74.176 119.412 74.08C118.948 73.984 118.428 73.896 117.852 73.816C117.292 73.736 116.724 73.632 116.148 73.504C115.588 73.36 115.076 73.16 114.612 72.904C114.148 72.632 113.772 72.272 113.484 71.824C113.196 71.376 113.052 70.784 113.052 70.048C113.052 69.232 113.284 68.528 113.748 67.936C114.212 67.328 114.86 66.864 115.692 66.544C116.54 66.208 117.54 66.04 118.692 66.04C119.556 66.04 120.428 66.136 121.308 66.328C122.188 66.52 122.916 66.792 123.492 67.144L122.34 69.424C121.732 69.056 121.116 68.808 120.492 68.68C119.884 68.536 119.276 68.464 118.668 68.464C117.756 68.464 117.076 68.6 116.628 68.872C116.196 69.144 115.98 69.488 115.98 69.904C115.98 70.288 116.124 70.576 116.412 70.768C116.7 70.96 117.076 71.112 117.54 71.224C118.004 71.336 118.516 71.432 119.076 71.512C119.652 71.576 120.22 71.68 120.78 71.824C121.34 71.968 121.852 72.168 122.316 72.424C122.796 72.664 123.18 73.008 123.468 73.456C123.756 73.904 123.9 74.488 123.9 75.208C123.9 76.008 123.66 76.704 123.18 77.296C122.716 77.888 122.052 78.352 121.188 78.688C120.324 79.008 119.292 79.168 118.092 79.168ZM21.664 108V93.84H16.096V91.2H30.352V93.84H24.784V108H21.664ZM32.1008 108V95.184H34.9568V98.712L34.6208 97.68C35.0048 96.816 35.6048 96.16 36.4208 95.712C37.2528 95.264 38.2848 95.04 39.5168 95.04V97.896C39.3888 97.864 39.2688 97.848 39.1568 97.848C39.0448 97.832 38.9328 97.824 38.8208 97.824C37.6848 97.824 36.7808 98.16 36.1088 98.832C35.4368 99.488 35.1008 100.472 35.1008 101.784V108H32.1008ZM49.0437 108V105.408L48.8757 104.856V100.32C48.8757 99.44 48.6117 98.76 48.0837 98.28C47.5557 97.784 46.7557 97.536 45.6837 97.536C44.9637 97.536 44.2517 97.648 43.5477 97.872C42.8597 98.096 42.2757 98.408 41.7957 98.808L40.6197 96.624C41.3077 96.096 42.1237 95.704 43.0677 95.448C44.0277 95.176 45.0197 95.04 46.0437 95.04C47.8997 95.04 49.3317 95.488 50.3397 96.384C51.3637 97.264 51.8757 98.632 51.8757 100.488V108H49.0437ZM45.0117 108.168C44.0517 108.168 43.2117 108.008 42.4917 107.688C41.7717 107.352 41.2117 106.896 40.8117 106.32C40.4277 105.728 40.2357 105.064 40.2357 104.328C40.2357 103.608 40.4037 102.96 40.7397 102.384C41.0917 101.808 41.6597 101.352 42.4437 101.016C43.2277 100.68 44.2677 100.512 45.5637 100.512H49.2837V102.504H45.7797C44.7557 102.504 44.0677 102.672 43.7157 103.008C43.3637 103.328 43.1877 103.728 43.1877 104.208C43.1877 104.752 43.4037 105.184 43.8357 105.504C44.2677 105.824 44.8677 105.984 45.6357 105.984C46.3717 105.984 47.0277 105.816 47.6037 105.48C48.1957 105.144 48.6197 104.648 48.8757 103.992L49.3797 105.792C49.0917 106.544 48.5717 107.128 47.8197 107.544C47.0837 107.96 46.1477 108.168 45.0117 108.168ZM61.6293 108.168C60.2853 108.168 59.0853 107.888 58.0293 107.328C56.9893 106.752 56.1733 105.968 55.5813 104.976C54.9893 103.984 54.6933 102.856 54.6933 101.592C54.6933 100.312 54.9893 99.184 55.5813 98.208C56.1733 97.216 56.9893 96.44 58.0293 95.88C59.0853 95.32 60.2853 95.04 61.6293 95.04C62.8773 95.04 63.9733 95.296 64.9173 95.808C65.8773 96.304 66.6053 97.04 67.1013 98.016L64.7973 99.36C64.4133 98.752 63.9413 98.304 63.3813 98.016C62.8373 97.728 62.2453 97.584 61.6053 97.584C60.8693 97.584 60.2053 97.744 59.6133 98.064C59.0213 98.384 58.5573 98.848 58.2213 99.456C57.8853 100.048 57.7173 100.76 57.7173 101.592C57.7173 102.424 57.8853 103.144 58.2213 103.752C58.5573 104.344 59.0213 104.8 59.6133 105.12C60.2053 105.44 60.8693 105.6 61.6053 105.6C62.2453 105.6 62.8373 105.456 63.3813 105.168C63.9413 104.88 64.4133 104.432 64.7973 103.824L67.1013 105.168C66.6053 106.128 65.8773 106.872 64.9173 107.4C63.9733 107.912 62.8773 108.168 61.6293 108.168ZM72.0254 105.144L72.0974 101.376L78.7934 95.184H82.3934L76.7054 100.896L75.1214 102.216L72.0254 105.144ZM69.5774 108V90.192H72.5774V108H69.5774ZM79.2494 108L74.5694 102.216L76.4654 99.816L82.8974 108H79.2494ZM84.8352 108V95.184H87.8352V108H84.8352ZM86.3472 93.072C85.7872 93.072 85.3232 92.896 84.9552 92.544C84.6032 92.192 84.4272 91.768 84.4272 91.272C84.4272 90.76 84.6032 90.336 84.9552 90C85.3232 89.648 85.7872 89.472 86.3472 89.472C86.9072 89.472 87.3632 89.64 87.7152 89.976C88.0832 90.296 88.2672 90.704 88.2672 91.2C88.2672 91.728 88.0912 92.176 87.7392 92.544C87.3872 92.896 86.9232 93.072 86.3472 93.072ZM99.0447 95.04C100.069 95.04 100.981 95.24 101.781 95.64C102.597 96.04 103.237 96.656 103.701 97.488C104.165 98.304 104.397 99.36 104.397 100.656V108H101.397V101.04C101.397 99.904 101.125 99.056 100.581 98.496C100.053 97.936 99.3087 97.656 98.3487 97.656C97.6447 97.656 97.0207 97.8 96.4767 98.088C95.9327 98.376 95.5087 98.808 95.2047 99.384C94.9167 99.944 94.7727 100.656 94.7727 101.52V108H91.7727V95.184H94.6287V98.64L94.1247 97.584C94.5727 96.768 95.2207 96.144 96.0687 95.712C96.9327 95.264 97.9247 95.04 99.0447 95.04ZM114.034 112.824C112.85 112.824 111.69 112.664 110.554 112.344C109.434 112.04 108.514 111.592 107.794 111L109.138 108.744C109.698 109.208 110.402 109.576 111.25 109.848C112.114 110.136 112.986 110.28 113.866 110.28C115.274 110.28 116.306 109.952 116.962 109.296C117.618 108.656 117.946 107.688 117.946 106.392V104.112L118.186 101.208L118.09 98.304V95.184H120.946V106.056C120.946 108.376 120.354 110.08 119.17 111.168C117.986 112.272 116.274 112.824 114.034 112.824ZM113.65 107.424C112.434 107.424 111.33 107.168 110.338 106.656C109.362 106.128 108.586 105.4 108.01 104.472C107.45 103.544 107.17 102.456 107.17 101.208C107.17 99.976 107.45 98.896 108.01 97.968C108.586 97.04 109.362 96.32 110.338 95.808C111.33 95.296 112.434 95.04 113.65 95.04C114.738 95.04 115.714 95.256 116.578 95.688C117.442 96.12 118.13 96.792 118.642 97.704C119.17 98.616 119.434 99.784 119.434 101.208C119.434 102.632 119.17 103.808 118.642 104.736C118.13 105.648 117.442 106.328 116.578 106.776C115.714 107.208 114.738 107.424 113.65 107.424ZM114.106 104.88C114.858 104.88 115.53 104.728 116.122 104.424C116.714 104.104 117.17 103.672 117.49 103.128C117.826 102.568 117.994 101.928 117.994 101.208C117.994 100.488 117.826 99.856 117.49 99.312C117.17 98.752 116.714 98.328 116.122 98.04C115.53 97.736 114.858 97.584 114.106 97.584C113.354 97.584 112.674 97.736 112.066 98.04C111.474 98.328 111.01 98.752 110.674 99.312C110.354 99.856 110.194 100.488 110.194 101.208C110.194 101.928 110.354 102.568 110.674 103.128C111.01 103.672 111.474 104.104 112.066 104.424C112.674 104.728 113.354 104.88 114.106 104.88Z" fill="#FF6D55"/>
<path d="M125.468 25.5761C128.212 12.6048 139.685 3.34141 152.943 3.39232L229.424 3.68596L229.495 57.9959C229.523 79.1186 202.007 87.2694 190.525 69.5394C186.098 62.7024 178.143 59.009 170.063 60.0391L163.661 60.8552C161.084 61.1838 158.47 61.0842 155.925 60.5606L147.198 58.765C132.007 55.6393 122.258 40.7502 125.468 25.5761Z" fill="#FFBFB4"/>
</svg>
