<svg width="437" height="78" viewBox="0 0 437 78" fill="none" xmlns="http://www.w3.org/2000/svg">
<rect width="437" height="78" fill="white"/>
<path d="M47.736 48V31.2H54.024C55.448 31.2 56.672 31.432 57.696 31.896C58.72 32.344 59.504 33 60.048 33.864C60.608 34.712 60.888 35.744 60.888 36.96C60.888 38.144 60.608 39.168 60.048 40.032C59.504 40.88 58.72 41.536 57.696 42C56.672 42.464 55.448 42.696 54.024 42.696H48.72L49.512 41.856V48H47.736ZM49.512 42L48.72 41.136H53.976C55.656 41.136 56.928 40.776 57.792 40.056C58.672 39.32 59.112 38.288 59.112 36.96C59.112 35.616 58.672 34.576 57.792 33.84C56.928 33.104 55.656 32.736 53.976 32.736H48.72L49.512 31.896V42ZM64.0635 48V35.4H65.6955V38.832L65.5275 38.232C65.8795 37.272 66.4715 36.544 67.3035 36.048C68.1355 35.536 69.1675 35.28 70.3995 35.28V36.936C70.3355 36.936 70.2715 36.936 70.2075 36.936C70.1435 36.92 70.0795 36.912 70.0155 36.912C68.6875 36.912 67.6475 37.32 66.8955 38.136C66.1435 38.936 65.7675 40.08 65.7675 41.568V48H64.0635ZM78.5276 48.12C77.3116 48.12 76.2156 47.848 75.2396 47.304C74.2796 46.744 73.5196 45.984 72.9596 45.024C72.3996 44.048 72.1196 42.936 72.1196 41.688C72.1196 40.424 72.3996 39.312 72.9596 38.352C73.5196 37.392 74.2796 36.64 75.2396 36.096C76.1996 35.552 77.2956 35.28 78.5276 35.28C79.7756 35.28 80.8796 35.552 81.8396 36.096C82.8156 36.64 83.5756 37.392 84.1196 38.352C84.6796 39.312 84.9596 40.424 84.9596 41.688C84.9596 42.936 84.6796 44.048 84.1196 45.024C83.5756 45.984 82.8156 46.744 81.8396 47.304C80.8636 47.848 79.7596 48.12 78.5276 48.12ZM78.5276 46.608C79.4396 46.608 80.2476 46.408 80.9516 46.008C81.6556 45.592 82.2076 45.016 82.6076 44.28C83.0236 43.528 83.2316 42.664 83.2316 41.688C83.2316 40.696 83.0236 39.832 82.6076 39.096C82.2076 38.36 81.6556 37.792 80.9516 37.392C80.2476 36.976 79.4476 36.768 78.5516 36.768C77.6556 36.768 76.8556 36.976 76.1516 37.392C75.4476 37.792 74.8876 38.36 74.4716 39.096C74.0556 39.832 73.8476 40.696 73.8476 41.688C73.8476 42.664 74.0556 43.528 74.4716 44.28C74.8876 45.016 75.4476 45.592 76.1516 46.008C76.8556 46.408 77.6476 46.608 78.5276 46.608ZM93.8145 52.776C92.6625 52.776 91.5585 52.608 90.5025 52.272C89.4465 51.936 88.5905 51.456 87.9345 50.832L88.7985 49.536C89.3905 50.064 90.1185 50.48 90.9825 50.784C91.8625 51.104 92.7905 51.264 93.7665 51.264C95.3665 51.264 96.5425 50.888 97.2945 50.136C98.0465 49.4 98.4225 48.248 98.4225 46.68V43.536L98.6625 41.376L98.4945 39.216V35.4H100.127V46.464C100.127 48.64 99.5905 50.232 98.5185 51.24C97.4625 52.264 95.8945 52.776 93.8145 52.776ZM93.5025 47.52C92.3025 47.52 91.2225 47.264 90.2625 46.752C89.3025 46.224 88.5425 45.496 87.9825 44.568C87.4385 43.64 87.1665 42.576 87.1665 41.376C87.1665 40.176 87.4385 39.12 87.9825 38.208C88.5425 37.28 89.3025 36.56 90.2625 36.048C91.2225 35.536 92.3025 35.28 93.5025 35.28C94.6225 35.28 95.6305 35.512 96.5265 35.976C97.4225 36.44 98.1345 37.128 98.6625 38.04C99.1905 38.952 99.4545 40.064 99.4545 41.376C99.4545 42.688 99.1905 43.8 98.6625 44.712C98.1345 45.624 97.4225 46.32 96.5265 46.8C95.6305 47.28 94.6225 47.52 93.5025 47.52ZM93.6705 46.008C94.5985 46.008 95.4225 45.816 96.1425 45.432C96.8625 45.032 97.4305 44.488 97.8465 43.8C98.2625 43.096 98.4705 42.288 98.4705 41.376C98.4705 40.464 98.2625 39.664 97.8465 38.976C97.4305 38.288 96.8625 37.752 96.1425 37.368C95.4225 36.968 94.5985 36.768 93.6705 36.768C92.7585 36.768 91.9345 36.968 91.1985 37.368C90.4785 37.752 89.9105 38.288 89.4945 38.976C89.0945 39.664 88.8945 40.464 88.8945 41.376C88.8945 42.288 89.0945 43.096 89.4945 43.8C89.9105 44.488 90.4785 45.032 91.1985 45.432C91.9345 45.816 92.7585 46.008 93.6705 46.008ZM104.868 48V35.4H106.5V38.832L106.332 38.232C106.684 37.272 107.276 36.544 108.108 36.048C108.94 35.536 109.972 35.28 111.204 35.28V36.936C111.14 36.936 111.076 36.936 111.012 36.936C110.948 36.92 110.884 36.912 110.82 36.912C109.492 36.912 108.452 37.32 107.7 38.136C106.948 38.936 106.572 40.08 106.572 41.568V48H104.868ZM119.548 48.12C118.236 48.12 117.084 47.848 116.092 47.304C115.1 46.744 114.324 45.984 113.764 45.024C113.204 44.048 112.924 42.936 112.924 41.688C112.924 40.44 113.188 39.336 113.716 38.376C114.26 37.416 114.996 36.664 115.924 36.12C116.868 35.56 117.924 35.28 119.092 35.28C120.276 35.28 121.324 35.552 122.236 36.096C123.164 36.624 123.892 37.376 124.42 38.352C124.948 39.312 125.212 40.424 125.212 41.688C125.212 41.768 125.204 41.856 125.188 41.952C125.188 42.032 125.188 42.12 125.188 42.216H114.22V40.944H124.276L123.604 41.448C123.604 40.536 123.404 39.728 123.004 39.024C122.62 38.304 122.092 37.744 121.42 37.344C120.748 36.944 119.972 36.744 119.092 36.744C118.228 36.744 117.452 36.944 116.764 37.344C116.076 37.744 115.54 38.304 115.156 39.024C114.772 39.744 114.58 40.568 114.58 41.496V41.76C114.58 42.72 114.788 43.568 115.204 44.304C115.636 45.024 116.228 45.592 116.98 46.008C117.748 46.408 118.62 46.608 119.596 46.608C120.364 46.608 121.076 46.472 121.732 46.2C122.404 45.928 122.98 45.512 123.46 44.952L124.42 46.056C123.86 46.728 123.156 47.24 122.308 47.592C121.476 47.944 120.556 48.12 119.548 48.12ZM132.065 48.12C131.025 48.12 130.041 47.976 129.113 47.688C128.185 47.384 127.457 47.008 126.929 46.56L127.697 45.216C128.209 45.6 128.865 45.936 129.665 46.224C130.465 46.496 131.305 46.632 132.185 46.632C133.385 46.632 134.249 46.448 134.777 46.08C135.305 45.696 135.569 45.192 135.569 44.568C135.569 44.104 135.417 43.744 135.113 43.488C134.825 43.216 134.441 43.016 133.961 42.888C133.481 42.744 132.945 42.624 132.353 42.528C131.761 42.432 131.169 42.32 130.577 42.192C130.001 42.064 129.473 41.88 128.993 41.64C128.513 41.384 128.121 41.04 127.817 40.608C127.529 40.176 127.385 39.6 127.385 38.88C127.385 38.192 127.577 37.576 127.961 37.032C128.345 36.488 128.905 36.064 129.641 35.76C130.393 35.44 131.305 35.28 132.377 35.28C133.193 35.28 134.009 35.392 134.825 35.616C135.641 35.824 136.313 36.104 136.841 36.456L136.097 37.824C135.537 37.44 134.937 37.168 134.297 37.008C133.657 36.832 133.017 36.744 132.377 36.744C131.241 36.744 130.401 36.944 129.857 37.344C129.329 37.728 129.065 38.224 129.065 38.832C129.065 39.312 129.209 39.688 129.497 39.96C129.801 40.232 130.193 40.448 130.673 40.608C131.169 40.752 131.705 40.872 132.281 40.968C132.873 41.064 133.457 41.184 134.033 41.328C134.625 41.456 135.161 41.64 135.641 41.88C136.137 42.104 136.529 42.432 136.817 42.864C137.121 43.28 137.273 43.832 137.273 44.52C137.273 45.256 137.065 45.896 136.649 46.44C136.249 46.968 135.657 47.384 134.873 47.688C134.105 47.976 133.169 48.12 132.065 48.12ZM143.783 48.12C142.743 48.12 141.759 47.976 140.831 47.688C139.903 47.384 139.175 47.008 138.647 46.56L139.415 45.216C139.927 45.6 140.583 45.936 141.383 46.224C142.183 46.496 143.023 46.632 143.903 46.632C145.103 46.632 145.967 46.448 146.495 46.08C147.023 45.696 147.287 45.192 147.287 44.568C147.287 44.104 147.135 43.744 146.831 43.488C146.543 43.216 146.159 43.016 145.679 42.888C145.199 42.744 144.663 42.624 144.071 42.528C143.479 42.432 142.887 42.32 142.295 42.192C141.719 42.064 141.191 41.88 140.711 41.64C140.231 41.384 139.839 41.04 139.535 40.608C139.247 40.176 139.103 39.6 139.103 38.88C139.103 38.192 139.295 37.576 139.679 37.032C140.063 36.488 140.623 36.064 141.359 35.76C142.111 35.44 143.023 35.28 144.095 35.28C144.911 35.28 145.727 35.392 146.543 35.616C147.359 35.824 148.031 36.104 148.559 36.456L147.815 37.824C147.255 37.44 146.655 37.168 146.015 37.008C145.375 36.832 144.735 36.744 144.095 36.744C142.959 36.744 142.119 36.944 141.575 37.344C141.047 37.728 140.783 38.224 140.783 38.832C140.783 39.312 140.927 39.688 141.215 39.96C141.519 40.232 141.911 40.448 142.391 40.608C142.887 40.752 143.423 40.872 143.999 40.968C144.591 41.064 145.175 41.184 145.751 41.328C146.343 41.456 146.879 41.64 147.359 41.88C147.855 42.104 148.247 42.432 148.535 42.864C148.839 43.28 148.991 43.832 148.991 44.52C148.991 45.256 148.783 45.896 148.367 46.44C147.967 46.968 147.375 47.384 146.591 47.688C145.823 47.976 144.887 48.12 143.783 48.12ZM162.023 48V32.736H156.119V31.2H169.703V32.736H163.799V48H162.023ZM171.853 48V35.4H173.485V38.832L173.317 38.232C173.669 37.272 174.261 36.544 175.093 36.048C175.925 35.536 176.957 35.28 178.189 35.28V36.936C178.125 36.936 178.061 36.936 177.997 36.936C177.933 36.92 177.869 36.912 177.805 36.912C176.477 36.912 175.437 37.32 174.685 38.136C173.933 38.936 173.557 40.08 173.557 41.568V48H171.853ZM188.256 48V45.216L188.184 44.76V40.104C188.184 39.032 187.88 38.208 187.272 37.632C186.68 37.056 185.792 36.768 184.608 36.768C183.792 36.768 183.016 36.904 182.28 37.176C181.544 37.448 180.92 37.808 180.408 38.256L179.64 36.984C180.28 36.44 181.048 36.024 181.944 35.736C182.84 35.432 183.784 35.28 184.776 35.28C186.408 35.28 187.664 35.688 188.544 36.504C189.44 37.304 189.888 38.528 189.888 40.176V48H188.256ZM183.912 48.12C182.968 48.12 182.144 47.968 181.44 47.664C180.752 47.344 180.224 46.912 179.856 46.368C179.488 45.808 179.304 45.168 179.304 44.448C179.304 43.792 179.456 43.2 179.76 42.672C180.08 42.128 180.592 41.696 181.296 41.376C182.016 41.04 182.976 40.872 184.176 40.872H188.52V42.144H184.224C183.008 42.144 182.16 42.36 181.68 42.792C181.216 43.224 180.984 43.76 180.984 44.4C180.984 45.12 181.264 45.696 181.824 46.128C182.384 46.56 183.168 46.776 184.176 46.776C185.136 46.776 185.96 46.56 186.648 46.128C187.352 45.68 187.864 45.04 188.184 44.208L188.568 45.384C188.248 46.216 187.688 46.88 186.888 47.376C186.104 47.872 185.112 48.12 183.912 48.12ZM199.749 48.12C198.501 48.12 197.381 47.848 196.389 47.304C195.413 46.744 194.645 45.984 194.085 45.024C193.525 44.048 193.245 42.936 193.245 41.688C193.245 40.424 193.525 39.312 194.085 38.352C194.645 37.392 195.413 36.64 196.389 36.096C197.381 35.552 198.501 35.28 199.749 35.28C200.821 35.28 201.789 35.488 202.653 35.904C203.517 36.32 204.197 36.944 204.693 37.776L203.421 38.64C202.989 38 202.453 37.528 201.813 37.224C201.173 36.92 200.477 36.768 199.725 36.768C198.829 36.768 198.021 36.976 197.301 37.392C196.581 37.792 196.013 38.36 195.597 39.096C195.181 39.832 194.973 40.696 194.973 41.688C194.973 42.68 195.181 43.544 195.597 44.28C196.013 45.016 196.581 45.592 197.301 46.008C198.021 46.408 198.829 46.608 199.725 46.608C200.477 46.608 201.173 46.456 201.813 46.152C202.453 45.848 202.989 45.384 203.421 44.76L204.693 45.624C204.197 46.44 203.517 47.064 202.653 47.496C201.789 47.912 200.821 48.12 199.749 48.12ZM209.197 44.736L209.245 42.552L217.093 35.4H219.181L213.637 40.704L212.677 41.52L209.197 44.736ZM207.853 48V30.192H209.557V48H207.853ZM217.621 48L212.365 41.448L213.469 40.128L219.709 48H217.621ZM222.267 48V35.4H223.971V48H222.267ZM223.131 32.616C222.779 32.616 222.483 32.496 222.243 32.256C222.003 32.016 221.883 31.728 221.883 31.392C221.883 31.056 222.003 30.776 222.243 30.552C222.483 30.312 222.779 30.192 223.131 30.192C223.483 30.192 223.779 30.304 224.019 30.528C224.259 30.752 224.379 31.032 224.379 31.368C224.379 31.72 224.259 32.016 224.019 32.256C223.795 32.496 223.499 32.616 223.131 32.616ZM235.144 35.28C236.168 35.28 237.064 35.48 237.832 35.88C238.616 36.264 239.224 36.856 239.656 37.656C240.104 38.456 240.328 39.464 240.328 40.68V48H238.624V40.848C238.624 39.52 238.288 38.52 237.616 37.848C236.96 37.16 236.032 36.816 234.832 36.816C233.936 36.816 233.152 37 232.48 37.368C231.824 37.72 231.312 38.24 230.944 38.928C230.592 39.6 230.416 40.416 230.416 41.376V48H228.712V35.4H230.344V38.856L230.08 38.208C230.48 37.296 231.12 36.584 232 36.072C232.88 35.544 233.928 35.28 235.144 35.28ZM250.307 52.776C249.155 52.776 248.051 52.608 246.995 52.272C245.939 51.936 245.083 51.456 244.427 50.832L245.291 49.536C245.883 50.064 246.611 50.48 247.475 50.784C248.355 51.104 249.283 51.264 250.259 51.264C251.859 51.264 253.035 50.888 253.787 50.136C254.539 49.4 254.915 48.248 254.915 46.68V43.536L255.155 41.376L254.987 39.216V35.4H256.619V46.464C256.619 48.64 256.083 50.232 255.011 51.24C253.955 52.264 252.387 52.776 250.307 52.776ZM249.995 47.52C248.795 47.52 247.715 47.264 246.755 46.752C245.795 46.224 245.035 45.496 244.475 44.568C243.931 43.64 243.659 42.576 243.659 41.376C243.659 40.176 243.931 39.12 244.475 38.208C245.035 37.28 245.795 36.56 246.755 36.048C247.715 35.536 248.795 35.28 249.995 35.28C251.115 35.28 252.123 35.512 253.019 35.976C253.915 36.44 254.627 37.128 255.155 38.04C255.683 38.952 255.947 40.064 255.947 41.376C255.947 42.688 255.683 43.8 255.155 44.712C254.627 45.624 253.915 46.32 253.019 46.8C252.123 47.28 251.115 47.52 249.995 47.52ZM250.163 46.008C251.091 46.008 251.915 45.816 252.635 45.432C253.355 45.032 253.923 44.488 254.339 43.8C254.755 43.096 254.963 42.288 254.963 41.376C254.963 40.464 254.755 39.664 254.339 38.976C253.923 38.288 253.355 37.752 252.635 37.368C251.915 36.968 251.091 36.768 250.163 36.768C249.251 36.768 248.427 36.968 247.691 37.368C246.971 37.752 246.403 38.288 245.987 38.976C245.587 39.664 245.387 40.464 245.387 41.376C245.387 42.288 245.587 43.096 245.987 43.8C246.403 44.488 246.971 45.032 247.691 45.432C248.427 45.816 249.251 46.008 250.163 46.008Z" fill="black"/>
</svg>
