<svg width="437" height="78" viewBox="0 0 437 78" fill="none" xmlns="http://www.w3.org/2000/svg">
<mask id="path-1-inside-1_506_1519" fill="white">
<path d="M0 0H437V78H0V0Z"/>
</mask>
<path d="M0 0H437V78H0V0Z" fill="#FFE6E2"/>
<path d="M5 78V0H-5V78H5Z" fill="#FFBFB4" mask="url(#path-1-inside-1_506_1519)"/>
<path d="M52.368 48.144C51.12 48.144 49.92 47.944 48.768 47.544C47.632 47.128 46.752 46.6 46.128 45.96L46.824 44.592C47.416 45.168 48.208 45.656 49.2 46.056C50.208 46.44 51.264 46.632 52.368 46.632C53.424 46.632 54.28 46.504 54.936 46.248C55.608 45.976 56.096 45.616 56.4 45.168C56.72 44.72 56.88 44.224 56.88 43.68C56.88 43.024 56.688 42.496 56.304 42.096C55.936 41.696 55.448 41.384 54.84 41.16C54.232 40.92 53.56 40.712 52.824 40.536C52.088 40.36 51.352 40.176 50.616 39.984C49.88 39.776 49.2 39.504 48.576 39.168C47.968 38.832 47.472 38.392 47.088 37.848C46.72 37.288 46.536 36.56 46.536 35.664C46.536 34.832 46.752 34.072 47.184 33.384C47.632 32.68 48.312 32.12 49.224 31.704C50.136 31.272 51.304 31.056 52.728 31.056C53.672 31.056 54.608 31.192 55.536 31.464C56.464 31.72 57.264 32.08 57.936 32.544L57.336 33.96C56.616 33.48 55.848 33.128 55.032 32.904C54.232 32.68 53.456 32.568 52.704 32.568C51.696 32.568 50.864 32.704 50.208 32.976C49.552 33.248 49.064 33.616 48.744 34.08C48.44 34.528 48.288 35.04 48.288 35.616C48.288 36.272 48.472 36.8 48.84 37.2C49.224 37.6 49.72 37.912 50.328 38.136C50.952 38.36 51.632 38.56 52.368 38.736C53.104 38.912 53.832 39.104 54.552 39.312C55.288 39.52 55.96 39.792 56.568 40.128C57.192 40.448 57.688 40.88 58.056 41.424C58.44 41.968 58.632 42.68 58.632 43.56C58.632 44.376 58.408 45.136 57.96 45.84C57.512 46.528 56.824 47.088 55.896 47.52C54.984 47.936 53.808 48.144 52.368 48.144ZM63.4856 44.736L63.5336 42.552L71.3816 35.4H73.4696L67.9256 40.704L66.9656 41.52L63.4856 44.736ZM62.1416 48V30.192H63.8456V48H62.1416ZM71.9096 48L66.6536 41.448L67.7576 40.128L73.9976 48H71.9096ZM76.5557 48V35.4H78.2597V48H76.5557ZM77.4197 32.616C77.0677 32.616 76.7717 32.496 76.5317 32.256C76.2917 32.016 76.1717 31.728 76.1717 31.392C76.1717 31.056 76.2917 30.776 76.5317 30.552C76.7717 30.312 77.0677 30.192 77.4197 30.192C77.7717 30.192 78.0677 30.304 78.3077 30.528C78.5477 30.752 78.6677 31.032 78.6677 31.368C78.6677 31.72 78.5477 32.016 78.3077 32.256C78.0837 32.496 77.7877 32.616 77.4197 32.616ZM83.001 48V30.192H84.705V48H83.001ZM89.4463 48V30.192H91.1503V48H89.4463ZM99.2756 48.12C98.2356 48.12 97.2516 47.976 96.3236 47.688C95.3956 47.384 94.6676 47.008 94.1396 46.56L94.9076 45.216C95.4196 45.6 96.0756 45.936 96.8756 46.224C97.6756 46.496 98.5156 46.632 99.3956 46.632C100.596 46.632 101.46 46.448 101.988 46.08C102.516 45.696 102.78 45.192 102.78 44.568C102.78 44.104 102.628 43.744 102.324 43.488C102.036 43.216 101.652 43.016 101.172 42.888C100.692 42.744 100.156 42.624 99.5636 42.528C98.9716 42.432 98.3796 42.32 97.7876 42.192C97.2116 42.064 96.6836 41.88 96.2036 41.64C95.7236 41.384 95.3316 41.04 95.0276 40.608C94.7396 40.176 94.5956 39.6 94.5956 38.88C94.5956 38.192 94.7876 37.576 95.1716 37.032C95.5556 36.488 96.1156 36.064 96.8516 35.76C97.6036 35.44 98.5156 35.28 99.5876 35.28C100.404 35.28 101.22 35.392 102.036 35.616C102.852 35.824 103.524 36.104 104.052 36.456L103.308 37.824C102.748 37.44 102.148 37.168 101.508 37.008C100.868 36.832 100.228 36.744 99.5876 36.744C98.4516 36.744 97.6116 36.944 97.0676 37.344C96.5396 37.728 96.2756 38.224 96.2756 38.832C96.2756 39.312 96.4196 39.688 96.7076 39.96C97.0116 40.232 97.4036 40.448 97.8836 40.608C98.3796 40.752 98.9156 40.872 99.4916 40.968C100.084 41.064 100.668 41.184 101.244 41.328C101.836 41.456 102.372 41.64 102.852 41.88C103.348 42.104 103.74 42.432 104.028 42.864C104.332 43.28 104.484 43.832 104.484 44.52C104.484 45.256 104.276 45.896 103.86 46.44C103.46 46.968 102.868 47.384 102.084 47.688C101.316 47.976 100.38 48.12 99.2756 48.12ZM111.564 48L119.244 31.2H120.996L128.676 48H126.804L119.748 32.232H120.468L113.412 48H111.564ZM114.588 43.512L115.116 42.072H124.884L125.412 43.512H114.588ZM137.527 35.28C138.551 35.28 139.447 35.48 140.215 35.88C140.999 36.264 141.607 36.856 142.039 37.656C142.487 38.456 142.711 39.464 142.711 40.68V48H141.007V40.848C141.007 39.52 140.671 38.52 139.999 37.848C139.343 37.16 138.415 36.816 137.215 36.816C136.319 36.816 135.535 37 134.863 37.368C134.207 37.72 133.695 38.24 133.327 38.928C132.975 39.6 132.799 40.416 132.799 41.376V48H131.095V35.4H132.727V38.856L132.463 38.208C132.863 37.296 133.503 36.584 134.383 36.072C135.263 35.544 136.311 35.28 137.527 35.28ZM152.33 48.12C151.13 48.12 150.05 47.848 149.09 47.304C148.146 46.76 147.402 46.008 146.858 45.048C146.314 44.072 146.042 42.952 146.042 41.688C146.042 40.408 146.314 39.288 146.858 38.328C147.402 37.368 148.146 36.624 149.09 36.096C150.05 35.552 151.13 35.28 152.33 35.28C153.434 35.28 154.418 35.528 155.282 36.024C156.162 36.52 156.858 37.248 157.37 38.208C157.898 39.152 158.161 40.312 158.161 41.688C158.161 43.048 157.906 44.208 157.394 45.168C156.882 46.128 156.186 46.864 155.306 47.376C154.442 47.872 153.45 48.12 152.33 48.12ZM152.45 46.608C153.346 46.608 154.146 46.408 154.85 46.008C155.57 45.592 156.13 45.016 156.53 44.28C156.946 43.528 157.154 42.664 157.154 41.688C157.154 40.696 156.946 39.832 156.53 39.096C156.13 38.36 155.57 37.792 154.85 37.392C154.146 36.976 153.346 36.768 152.45 36.768C151.57 36.768 150.778 36.976 150.074 37.392C149.37 37.792 148.81 38.36 148.394 39.096C147.978 39.832 147.77 40.696 147.77 41.688C147.77 42.664 147.978 43.528 148.394 44.28C148.81 45.016 149.37 45.592 150.074 46.008C150.778 46.408 151.57 46.608 152.45 46.608ZM157.202 48V44.208L157.37 41.664L157.13 39.12V30.192H158.834V48H157.202ZM177.516 48.144C176.252 48.144 175.084 47.936 174.012 47.52C172.94 47.088 172.012 46.488 171.228 45.72C170.444 44.952 169.828 44.048 169.38 43.008C168.948 41.968 168.732 40.832 168.732 39.6C168.732 38.368 168.948 37.232 169.38 36.192C169.828 35.152 170.444 34.248 171.228 33.48C172.028 32.712 172.964 32.12 174.036 31.704C175.108 31.272 176.276 31.056 177.54 31.056C178.756 31.056 179.9 31.264 180.972 31.68C182.044 32.08 182.948 32.688 183.684 33.504L182.556 34.632C181.868 33.928 181.108 33.424 180.276 33.12C179.444 32.8 178.548 32.64 177.588 32.64C176.58 32.64 175.644 32.816 174.78 33.168C173.916 33.504 173.164 33.992 172.524 34.632C171.884 35.256 171.38 35.992 171.012 36.84C170.66 37.672 170.484 38.592 170.484 39.6C170.484 40.608 170.66 41.536 171.012 42.384C171.38 43.216 171.884 43.952 172.524 44.592C173.164 45.216 173.916 45.704 174.78 46.056C175.644 46.392 176.58 46.56 177.588 46.56C178.548 46.56 179.444 46.4 180.276 46.08C181.108 45.76 181.868 45.248 182.556 44.544L183.684 45.672C182.948 46.488 182.044 47.104 180.972 47.52C179.9 47.936 178.748 48.144 177.516 48.144ZM191.9 48.12C190.588 48.12 189.436 47.848 188.444 47.304C187.452 46.744 186.676 45.984 186.116 45.024C185.556 44.048 185.276 42.936 185.276 41.688C185.276 40.44 185.54 39.336 186.068 38.376C186.612 37.416 187.348 36.664 188.276 36.12C189.22 35.56 190.276 35.28 191.444 35.28C192.628 35.28 193.676 35.552 194.588 36.096C195.516 36.624 196.244 37.376 196.772 38.352C197.3 39.312 197.564 40.424 197.564 41.688C197.564 41.768 197.556 41.856 197.54 41.952C197.54 42.032 197.54 42.12 197.54 42.216H186.572V40.944H196.628L195.956 41.448C195.956 40.536 195.756 39.728 195.356 39.024C194.972 38.304 194.444 37.744 193.772 37.344C193.1 36.944 192.324 36.744 191.444 36.744C190.58 36.744 189.804 36.944 189.116 37.344C188.428 37.744 187.892 38.304 187.508 39.024C187.124 39.744 186.932 40.568 186.932 41.496V41.76C186.932 42.72 187.14 43.568 187.556 44.304C187.988 45.024 188.58 45.592 189.332 46.008C190.1 46.408 190.972 46.608 191.948 46.608C192.716 46.608 193.428 46.472 194.084 46.2C194.756 45.928 195.332 45.512 195.812 44.952L196.772 46.056C196.212 46.728 195.508 47.24 194.66 47.592C193.828 47.944 192.908 48.12 191.9 48.12ZM201.032 48V35.4H202.664V38.832L202.496 38.232C202.848 37.272 203.44 36.544 204.272 36.048C205.104 35.536 206.136 35.28 207.368 35.28V36.936C207.304 36.936 207.24 36.936 207.176 36.936C207.112 36.92 207.048 36.912 206.984 36.912C205.656 36.912 204.616 37.32 203.864 38.136C203.112 38.936 202.736 40.08 202.736 41.568V48H201.032ZM215.001 48.12C213.817 48.12 212.905 47.8 212.265 47.16C211.625 46.52 211.305 45.616 211.305 44.448V32.616H213.009V44.352C213.009 45.088 213.193 45.656 213.561 46.056C213.945 46.456 214.489 46.656 215.193 46.656C215.945 46.656 216.569 46.44 217.065 46.008L217.665 47.232C217.329 47.536 216.921 47.76 216.441 47.904C215.977 48.048 215.497 48.12 215.001 48.12ZM209.049 36.816V35.4H216.849V36.816H209.049ZM220.767 48V35.4H222.471V48H220.767ZM221.631 32.616C221.279 32.616 220.983 32.496 220.743 32.256C220.503 32.016 220.383 31.728 220.383 31.392C220.383 31.056 220.503 30.776 220.743 30.552C220.983 30.312 221.279 30.192 221.631 30.192C221.983 30.192 222.279 30.304 222.519 30.528C222.759 30.752 222.879 31.032 222.879 31.368C222.879 31.72 222.759 32.016 222.519 32.256C222.295 32.496 221.999 32.616 221.631 32.616ZM227.5 48V33.816C227.5 32.696 227.828 31.792 228.484 31.104C229.14 30.416 230.084 30.072 231.316 30.072C231.796 30.072 232.26 30.136 232.708 30.264C233.156 30.392 233.532 30.592 233.836 30.864L233.26 32.136C233.02 31.928 232.74 31.776 232.42 31.68C232.1 31.568 231.756 31.512 231.388 31.512C230.668 31.512 230.116 31.712 229.732 32.112C229.348 32.512 229.156 33.104 229.156 33.888V35.808L229.204 36.6V48H227.5ZM225.244 36.816V35.4H233.044V36.816H225.244ZM235.348 48V35.4H237.052V48H235.348ZM236.212 32.616C235.86 32.616 235.564 32.496 235.324 32.256C235.084 32.016 234.964 31.728 234.964 31.392C234.964 31.056 235.084 30.776 235.324 30.552C235.564 30.312 235.86 30.192 236.212 30.192C236.564 30.192 236.86 30.304 237.1 30.528C237.34 30.752 237.46 31.032 237.46 31.368C237.46 31.72 237.34 32.016 237.1 32.256C236.876 32.496 236.58 32.616 236.212 32.616ZM247.069 48.12C245.821 48.12 244.701 47.848 243.709 47.304C242.733 46.744 241.965 45.984 241.405 45.024C240.845 44.048 240.565 42.936 240.565 41.688C240.565 40.424 240.845 39.312 241.405 38.352C241.965 37.392 242.733 36.64 243.709 36.096C244.701 35.552 245.821 35.28 247.069 35.28C248.141 35.28 249.109 35.488 249.973 35.904C250.837 36.32 251.517 36.944 252.013 37.776L250.741 38.64C250.309 38 249.773 37.528 249.133 37.224C248.493 36.92 247.797 36.768 247.045 36.768C246.149 36.768 245.341 36.976 244.621 37.392C243.901 37.792 243.333 38.36 242.917 39.096C242.501 39.832 242.293 40.696 242.293 41.688C242.293 42.68 242.501 43.544 242.917 44.28C243.333 45.016 243.901 45.592 244.621 46.008C245.341 46.408 246.149 46.608 247.045 46.608C247.797 46.608 248.493 46.456 249.133 46.152C249.773 45.848 250.309 45.384 250.741 44.76L252.013 45.624C251.517 46.44 250.837 47.064 249.973 47.496C249.109 47.912 248.141 48.12 247.069 48.12ZM263.256 48V45.216L263.184 44.76V40.104C263.184 39.032 262.88 38.208 262.272 37.632C261.68 37.056 260.792 36.768 259.608 36.768C258.792 36.768 258.016 36.904 257.28 37.176C256.544 37.448 255.92 37.808 255.408 38.256L254.64 36.984C255.28 36.44 256.048 36.024 256.944 35.736C257.84 35.432 258.784 35.28 259.776 35.28C261.408 35.28 262.664 35.688 263.544 36.504C264.44 37.304 264.888 38.528 264.888 40.176V48H263.256ZM258.912 48.12C257.968 48.12 257.144 47.968 256.44 47.664C255.752 47.344 255.224 46.912 254.856 46.368C254.488 45.808 254.304 45.168 254.304 44.448C254.304 43.792 254.456 43.2 254.76 42.672C255.08 42.128 255.592 41.696 256.296 41.376C257.016 41.04 257.976 40.872 259.176 40.872H263.52V42.144H259.224C258.008 42.144 257.16 42.36 256.68 42.792C256.216 43.224 255.984 43.76 255.984 44.4C255.984 45.12 256.264 45.696 256.824 46.128C257.384 46.56 258.168 46.776 259.176 46.776C260.136 46.776 260.96 46.56 261.648 46.128C262.352 45.68 262.864 45.04 263.184 44.208L263.568 45.384C263.248 46.216 262.688 46.88 261.888 47.376C261.104 47.872 260.112 48.12 258.912 48.12ZM273.501 48.12C272.317 48.12 271.405 47.8 270.765 47.16C270.125 46.52 269.805 45.616 269.805 44.448V32.616H271.509V44.352C271.509 45.088 271.693 45.656 272.061 46.056C272.445 46.456 272.989 46.656 273.693 46.656C274.445 46.656 275.069 46.44 275.565 46.008L276.165 47.232C275.829 47.536 275.421 47.76 274.941 47.904C274.477 48.048 273.997 48.12 273.501 48.12ZM267.549 36.816V35.4H275.349V36.816H267.549ZM279.267 48V35.4H280.971V48H279.267ZM280.131 32.616C279.779 32.616 279.483 32.496 279.243 32.256C279.003 32.016 278.883 31.728 278.883 31.392C278.883 31.056 279.003 30.776 279.243 30.552C279.483 30.312 279.779 30.192 280.131 30.192C280.483 30.192 280.779 30.304 281.019 30.528C281.259 30.752 281.379 31.032 281.379 31.368C281.379 31.72 281.259 32.016 281.019 32.256C280.795 32.496 280.499 32.616 280.131 32.616ZM290.848 48.12C289.632 48.12 288.536 47.848 287.56 47.304C286.6 46.744 285.84 45.984 285.28 45.024C284.72 44.048 284.44 42.936 284.44 41.688C284.44 40.424 284.72 39.312 285.28 38.352C285.84 37.392 286.6 36.64 287.56 36.096C288.52 35.552 289.616 35.28 290.848 35.28C292.096 35.28 293.2 35.552 294.16 36.096C295.136 36.64 295.896 37.392 296.44 38.352C297 39.312 297.28 40.424 297.28 41.688C297.28 42.936 297 44.048 296.44 45.024C295.896 45.984 295.136 46.744 294.16 47.304C293.184 47.848 292.08 48.12 290.848 48.12ZM290.848 46.608C291.76 46.608 292.568 46.408 293.272 46.008C293.976 45.592 294.528 45.016 294.928 44.28C295.344 43.528 295.552 42.664 295.552 41.688C295.552 40.696 295.344 39.832 294.928 39.096C294.528 38.36 293.976 37.792 293.272 37.392C292.568 36.976 291.768 36.768 290.872 36.768C289.976 36.768 289.176 36.976 288.472 37.392C287.768 37.792 287.208 38.36 286.792 39.096C286.376 39.832 286.168 40.696 286.168 41.688C286.168 42.664 286.376 43.528 286.792 44.28C287.208 45.016 287.768 45.592 288.472 46.008C289.176 46.408 289.968 46.608 290.848 46.608ZM307.191 35.28C308.215 35.28 309.111 35.48 309.879 35.88C310.663 36.264 311.271 36.856 311.703 37.656C312.151 38.456 312.375 39.464 312.375 40.68V48H310.671V40.848C310.671 39.52 310.335 38.52 309.663 37.848C309.007 37.16 308.079 36.816 306.879 36.816C305.983 36.816 305.199 37 304.527 37.368C303.871 37.72 303.359 38.24 302.991 38.928C302.639 39.6 302.463 40.416 302.463 41.376V48H300.759V35.4H302.391V38.856L302.127 38.208C302.527 37.296 303.167 36.584 304.047 36.072C304.927 35.544 305.975 35.28 307.191 35.28Z" fill="#FF6D55"/>
</svg>
