<svg width="437" height="78" viewBox="0 0 437 78" fill="none" xmlns="http://www.w3.org/2000/svg">
<mask id="path-1-inside-1_506_1384" fill="white">
<path d="M0 0H437V78H0V0Z"/>
</mask>
<path d="M0 0H437V78H0V0Z" fill="#FFE6E2"/>
<path d="M5 78V0H-5V78H5Z" fill="#FFBFB4" mask="url(#path-1-inside-1_506_1384)"/>
<path d="M49.32 38.712H58.2V40.224H49.32V38.712ZM49.512 46.464H59.616V48H47.736V31.2H59.256V32.736H49.512V46.464ZM79.1747 35.28C80.1987 35.28 81.0867 35.48 81.8387 35.88C82.6067 36.264 83.1987 36.856 83.6147 37.656C84.0467 38.456 84.2627 39.464 84.2627 40.68V48H82.5587V40.848C82.5587 39.52 82.2387 38.52 81.5987 37.848C80.9747 37.16 80.0867 36.816 78.9347 36.816C78.0707 36.816 77.3187 37 76.6787 37.368C76.0547 37.72 75.5667 38.24 75.2147 38.928C74.8787 39.6 74.7107 40.416 74.7107 41.376V48H73.0067V40.848C73.0067 39.52 72.6867 38.52 72.0467 37.848C71.4067 37.16 70.5107 36.816 69.3587 36.816C68.5107 36.816 67.7667 37 67.1267 37.368C66.4867 37.72 65.9907 38.24 65.6387 38.928C65.3027 39.6 65.1347 40.416 65.1347 41.376V48H63.4307V35.4H65.0627V38.808L64.7987 38.208C65.1827 37.296 65.7987 36.584 66.6467 36.072C67.5107 35.544 68.5267 35.28 69.6947 35.28C70.9267 35.28 71.9747 35.592 72.8387 36.216C73.7027 36.824 74.2627 37.744 74.5187 38.976L73.8467 38.712C74.2147 37.688 74.8627 36.864 75.7907 36.24C76.7347 35.6 77.8627 35.28 79.1747 35.28ZM95.3878 48.12C94.2998 48.12 93.3158 47.872 92.4358 47.376C91.5558 46.864 90.8518 46.136 90.3238 45.192C89.8118 44.232 89.5558 43.064 89.5558 41.688C89.5558 40.312 89.8118 39.152 90.3238 38.208C90.8358 37.248 91.5318 36.52 92.4118 36.024C93.2918 35.528 94.2838 35.28 95.3878 35.28C96.5878 35.28 97.6598 35.552 98.6038 36.096C99.5638 36.624 100.316 37.376 100.86 38.352C101.404 39.312 101.676 40.424 101.676 41.688C101.676 42.968 101.404 44.088 100.86 45.048C100.316 46.008 99.5638 46.76 98.6038 47.304C97.6598 47.848 96.5878 48.12 95.3878 48.12ZM88.8838 52.656V35.4H90.5158V39.192L90.3478 41.712L90.5878 44.256V52.656H88.8838ZM95.2678 46.608C96.1638 46.608 96.9638 46.408 97.6678 46.008C98.3718 45.592 98.9318 45.016 99.3478 44.28C99.7638 43.528 99.9718 42.664 99.9718 41.688C99.9718 40.712 99.7638 39.856 99.3478 39.12C98.9318 38.384 98.3718 37.808 97.6678 37.392C96.9638 36.976 96.1638 36.768 95.2678 36.768C94.3718 36.768 93.5638 36.976 92.8438 37.392C92.1398 37.808 91.5798 38.384 91.1638 39.12C90.7638 39.856 90.5638 40.712 90.5638 41.688C90.5638 42.664 90.7638 43.528 91.1638 44.28C91.5798 45.016 92.1398 45.592 92.8438 46.008C93.5638 46.408 94.3718 46.608 95.2678 46.608ZM105.149 48V30.192H106.853V48H105.149ZM116.731 48.12C115.515 48.12 114.419 47.848 113.443 47.304C112.483 46.744 111.723 45.984 111.163 45.024C110.603 44.048 110.323 42.936 110.323 41.688C110.323 40.424 110.603 39.312 111.163 38.352C111.723 37.392 112.483 36.64 113.443 36.096C114.403 35.552 115.499 35.28 116.731 35.28C117.979 35.28 119.083 35.552 120.043 36.096C121.019 36.64 121.779 37.392 122.323 38.352C122.883 39.312 123.163 40.424 123.163 41.688C123.163 42.936 122.883 44.048 122.323 45.024C121.779 45.984 121.019 46.744 120.043 47.304C119.067 47.848 117.963 48.12 116.731 48.12ZM116.731 46.608C117.643 46.608 118.451 46.408 119.155 46.008C119.859 45.592 120.411 45.016 120.811 44.28C121.227 43.528 121.435 42.664 121.435 41.688C121.435 40.696 121.227 39.832 120.811 39.096C120.411 38.36 119.859 37.792 119.155 37.392C118.451 36.976 117.651 36.768 116.755 36.768C115.859 36.768 115.059 36.976 114.355 37.392C113.651 37.792 113.091 38.36 112.675 39.096C112.259 39.832 112.051 40.696 112.051 41.688C112.051 42.664 112.259 43.528 112.675 44.28C113.091 45.016 113.651 45.592 114.355 46.008C115.059 46.408 115.851 46.608 116.731 46.608ZM126.386 52.776C125.794 52.776 125.226 52.68 124.682 52.488C124.154 52.296 123.698 52.008 123.314 51.624L124.106 50.352C124.426 50.656 124.77 50.888 125.138 51.048C125.522 51.224 125.946 51.312 126.41 51.312C126.97 51.312 127.45 51.152 127.85 50.832C128.266 50.528 128.658 49.984 129.026 49.2L129.842 47.352L130.034 47.088L135.218 35.4H136.898L130.586 49.512C130.234 50.328 129.842 50.976 129.41 51.456C128.994 51.936 128.538 52.272 128.042 52.464C127.546 52.672 126.994 52.776 126.386 52.776ZM129.746 48.36L123.938 35.4H125.714L130.85 46.968L129.746 48.36ZM144.298 48.12C142.986 48.12 141.834 47.848 140.842 47.304C139.85 46.744 139.074 45.984 138.514 45.024C137.954 44.048 137.674 42.936 137.674 41.688C137.674 40.44 137.938 39.336 138.466 38.376C139.01 37.416 139.746 36.664 140.674 36.12C141.618 35.56 142.674 35.28 143.842 35.28C145.026 35.28 146.074 35.552 146.986 36.096C147.914 36.624 148.642 37.376 149.17 38.352C149.698 39.312 149.962 40.424 149.962 41.688C149.962 41.768 149.954 41.856 149.938 41.952C149.938 42.032 149.938 42.12 149.938 42.216H138.97V40.944H149.026L148.354 41.448C148.354 40.536 148.154 39.728 147.754 39.024C147.37 38.304 146.842 37.744 146.17 37.344C145.498 36.944 144.722 36.744 143.842 36.744C142.978 36.744 142.202 36.944 141.514 37.344C140.826 37.744 140.29 38.304 139.906 39.024C139.522 39.744 139.33 40.568 139.33 41.496V41.76C139.33 42.72 139.538 43.568 139.954 44.304C140.386 45.024 140.978 45.592 141.73 46.008C142.498 46.408 143.37 46.608 144.346 46.608C145.114 46.608 145.826 46.472 146.482 46.2C147.154 45.928 147.73 45.512 148.21 44.952L149.17 46.056C148.61 46.728 147.906 47.24 147.058 47.592C146.226 47.944 145.306 48.12 144.298 48.12ZM158.783 48.12C157.471 48.12 156.319 47.848 155.327 47.304C154.335 46.744 153.559 45.984 152.999 45.024C152.439 44.048 152.159 42.936 152.159 41.688C152.159 40.44 152.423 39.336 152.951 38.376C153.495 37.416 154.231 36.664 155.159 36.12C156.103 35.56 157.159 35.28 158.327 35.28C159.511 35.28 160.559 35.552 161.471 36.096C162.399 36.624 163.127 37.376 163.655 38.352C164.183 39.312 164.447 40.424 164.447 41.688C164.447 41.768 164.439 41.856 164.423 41.952C164.423 42.032 164.423 42.12 164.423 42.216H153.455V40.944H163.511L162.839 41.448C162.839 40.536 162.639 39.728 162.239 39.024C161.855 38.304 161.327 37.744 160.655 37.344C159.983 36.944 159.207 36.744 158.327 36.744C157.463 36.744 156.687 36.944 155.999 37.344C155.311 37.744 154.775 38.304 154.391 39.024C154.007 39.744 153.815 40.568 153.815 41.496V41.76C153.815 42.72 154.023 43.568 154.439 44.304C154.871 45.024 155.463 45.592 156.215 46.008C156.983 46.408 157.855 46.608 158.831 46.608C159.599 46.608 160.311 46.472 160.967 46.2C161.639 45.928 162.215 45.512 162.695 44.952L163.655 46.056C163.095 46.728 162.391 47.24 161.543 47.592C160.711 47.944 159.791 48.12 158.783 48.12ZM171.299 48.12C170.259 48.12 169.275 47.976 168.347 47.688C167.419 47.384 166.691 47.008 166.163 46.56L166.931 45.216C167.443 45.6 168.099 45.936 168.899 46.224C169.699 46.496 170.539 46.632 171.419 46.632C172.619 46.632 173.483 46.448 174.011 46.08C174.539 45.696 174.803 45.192 174.803 44.568C174.803 44.104 174.651 43.744 174.347 43.488C174.059 43.216 173.675 43.016 173.195 42.888C172.715 42.744 172.179 42.624 171.587 42.528C170.995 42.432 170.403 42.32 169.811 42.192C169.235 42.064 168.707 41.88 168.227 41.64C167.747 41.384 167.355 41.04 167.051 40.608C166.763 40.176 166.619 39.6 166.619 38.88C166.619 38.192 166.811 37.576 167.195 37.032C167.579 36.488 168.139 36.064 168.875 35.76C169.627 35.44 170.539 35.28 171.611 35.28C172.427 35.28 173.243 35.392 174.059 35.616C174.875 35.824 175.547 36.104 176.075 36.456L175.331 37.824C174.771 37.44 174.171 37.168 173.531 37.008C172.891 36.832 172.251 36.744 171.611 36.744C170.475 36.744 169.635 36.944 169.091 37.344C168.563 37.728 168.299 38.224 168.299 38.832C168.299 39.312 168.443 39.688 168.731 39.96C169.035 40.232 169.427 40.448 169.907 40.608C170.403 40.752 170.939 40.872 171.515 40.968C172.107 41.064 172.691 41.184 173.267 41.328C173.859 41.456 174.395 41.64 174.875 41.88C175.371 42.104 175.763 42.432 176.051 42.864C176.355 43.28 176.507 43.832 176.507 44.52C176.507 45.256 176.299 45.896 175.883 46.44C175.483 46.968 174.891 47.384 174.107 47.688C173.339 47.976 172.403 48.12 171.299 48.12ZM193.043 48.144C190.899 48.144 189.211 47.528 187.979 46.296C186.747 45.064 186.131 43.24 186.131 40.824V31.2H187.907V40.752C187.907 42.736 188.355 44.2 189.251 45.144C190.147 46.088 191.411 46.56 193.043 46.56C194.691 46.56 195.963 46.088 196.859 45.144C197.755 44.2 198.203 42.736 198.203 40.752V31.2H199.931V40.824C199.931 43.24 199.315 45.064 198.083 46.296C196.867 47.528 195.187 48.144 193.043 48.144ZM211.355 35.28C212.379 35.28 213.275 35.48 214.043 35.88C214.827 36.264 215.435 36.856 215.867 37.656C216.315 38.456 216.539 39.464 216.539 40.68V48H214.835V40.848C214.835 39.52 214.499 38.52 213.827 37.848C213.171 37.16 212.243 36.816 211.043 36.816C210.147 36.816 209.363 37 208.691 37.368C208.035 37.72 207.523 38.24 207.155 38.928C206.803 39.6 206.627 40.416 206.627 41.376V48H204.923V35.4H206.555V38.856L206.291 38.208C206.691 37.296 207.331 36.584 208.211 36.072C209.091 35.544 210.139 35.28 211.355 35.28ZM226.158 48.12C224.958 48.12 223.878 47.848 222.918 47.304C221.974 46.76 221.23 46.008 220.686 45.048C220.142 44.072 219.87 42.952 219.87 41.688C219.87 40.408 220.142 39.288 220.686 38.328C221.23 37.368 221.974 36.624 222.918 36.096C223.878 35.552 224.958 35.28 226.158 35.28C227.262 35.28 228.246 35.528 229.11 36.024C229.99 36.52 230.686 37.248 231.198 38.208C231.726 39.152 231.99 40.312 231.99 41.688C231.99 43.048 231.734 44.208 231.222 45.168C230.71 46.128 230.014 46.864 229.134 47.376C228.27 47.872 227.278 48.12 226.158 48.12ZM226.278 46.608C227.174 46.608 227.974 46.408 228.678 46.008C229.398 45.592 229.958 45.016 230.358 44.28C230.774 43.528 230.982 42.664 230.982 41.688C230.982 40.696 230.774 39.832 230.358 39.096C229.958 38.36 229.398 37.792 228.678 37.392C227.974 36.976 227.174 36.768 226.278 36.768C225.398 36.768 224.606 36.976 223.902 37.392C223.198 37.792 222.638 38.36 222.222 39.096C221.806 39.832 221.598 40.696 221.598 41.688C221.598 42.664 221.806 43.528 222.222 44.28C222.638 45.016 223.198 45.592 223.902 46.008C224.606 46.408 225.398 46.608 226.278 46.608ZM231.03 48V44.208L231.198 41.664L230.958 39.12V30.192H232.662V48H231.03ZM242.759 48.12C241.447 48.12 240.295 47.848 239.303 47.304C238.311 46.744 237.535 45.984 236.975 45.024C236.415 44.048 236.135 42.936 236.135 41.688C236.135 40.44 236.399 39.336 236.927 38.376C237.471 37.416 238.207 36.664 239.135 36.12C240.079 35.56 241.135 35.28 242.303 35.28C243.487 35.28 244.535 35.552 245.447 36.096C246.375 36.624 247.103 37.376 247.631 38.352C248.159 39.312 248.423 40.424 248.423 41.688C248.423 41.768 248.415 41.856 248.399 41.952C248.399 42.032 248.399 42.12 248.399 42.216H237.431V40.944H247.487L246.815 41.448C246.815 40.536 246.615 39.728 246.215 39.024C245.831 38.304 245.303 37.744 244.631 37.344C243.959 36.944 243.183 36.744 242.303 36.744C241.439 36.744 240.663 36.944 239.975 37.344C239.287 37.744 238.751 38.304 238.367 39.024C237.983 39.744 237.791 40.568 237.791 41.496V41.76C237.791 42.72 237.999 43.568 238.415 44.304C238.847 45.024 239.439 45.592 240.191 46.008C240.959 46.408 241.831 46.608 242.807 46.608C243.575 46.608 244.287 46.472 244.943 46.2C245.615 45.928 246.191 45.512 246.671 44.952L247.631 46.056C247.071 46.728 246.367 47.24 245.519 47.592C244.687 47.944 243.767 48.12 242.759 48.12ZM251.892 48V35.4H253.524V38.832L253.356 38.232C253.708 37.272 254.3 36.544 255.132 36.048C255.964 35.536 256.996 35.28 258.228 35.28V36.936C258.164 36.936 258.1 36.936 258.036 36.936C257.972 36.92 257.908 36.912 257.844 36.912C256.516 36.912 255.476 37.32 254.724 38.136C253.972 38.936 253.596 40.08 253.596 41.568V48H251.892ZM272.174 48V41.76L272.582 42.864L265.454 31.2H267.35L273.614 41.448H272.606L278.87 31.2H280.646L273.518 42.864L273.926 41.76V48H272.174ZM286.746 48.12C285.53 48.12 284.434 47.848 283.458 47.304C282.498 46.744 281.738 45.984 281.178 45.024C280.618 44.048 280.338 42.936 280.338 41.688C280.338 40.424 280.618 39.312 281.178 38.352C281.738 37.392 282.498 36.64 283.458 36.096C284.418 35.552 285.514 35.28 286.746 35.28C287.994 35.28 289.098 35.552 290.058 36.096C291.034 36.64 291.794 37.392 292.338 38.352C292.898 39.312 293.178 40.424 293.178 41.688C293.178 42.936 292.898 44.048 292.338 45.024C291.794 45.984 291.034 46.744 290.058 47.304C289.082 47.848 287.978 48.12 286.746 48.12ZM286.746 46.608C287.658 46.608 288.466 46.408 289.17 46.008C289.874 45.592 290.426 45.016 290.826 44.28C291.242 43.528 291.45 42.664 291.45 41.688C291.45 40.696 291.242 39.832 290.826 39.096C290.426 38.36 289.874 37.792 289.17 37.392C288.466 36.976 287.666 36.768 286.77 36.768C285.874 36.768 285.074 36.976 284.37 37.392C283.666 37.792 283.106 38.36 282.69 39.096C282.274 39.832 282.066 40.696 282.066 41.688C282.066 42.664 282.274 43.528 282.69 44.28C283.106 45.016 283.666 45.592 284.37 46.008C285.074 46.408 285.866 46.608 286.746 46.608ZM301.865 48.12C300.793 48.12 299.857 47.92 299.057 47.52C298.257 47.12 297.633 46.52 297.185 45.72C296.753 44.92 296.537 43.92 296.537 42.72V35.4H298.241V42.528C298.241 43.872 298.569 44.888 299.225 45.576C299.897 46.248 300.833 46.584 302.033 46.584C302.913 46.584 303.673 46.408 304.313 46.056C304.969 45.688 305.465 45.16 305.801 44.472C306.153 43.784 306.329 42.96 306.329 42V35.4H308.033V48H306.401V44.544L306.665 45.168C306.265 46.096 305.641 46.824 304.793 47.352C303.961 47.864 302.985 48.12 301.865 48.12Z" fill="#FF6D55"/>
</svg>
