<svg width="527" height="279" viewBox="0 0 527 279" fill="none" xmlns="http://www.w3.org/2000/svg">
<path d="M367.987 228.133C369.955 228.203 375.468 226.272 382.731 222.713C413.751 207.51 452.73 201.786 481.041 221.579C487.973 226.425 493.934 232.53 498.614 239.575L560.888 333.334L462.682 537.906L236.454 407.702L127.039 337.28C107.624 324.785 102.255 298.783 115.131 279.618C124.47 265.718 141.289 258.848 157.689 262.234L172.787 265.351C195.09 269.955 218.163 262.397 233.419 245.489L248.543 228.728C269.579 205.413 308.664 204.487 337.331 217.307C352.455 224.071 365.308 228.038 367.987 228.133Z" fill="url(#paint0_linear_877_1212)"/>
<path d="M353.758 185.725C355.988 185.805 362.229 183.623 370.452 179.598C405.67 162.362 449.914 155.862 482.05 178.326C489.916 183.824 496.68 190.75 501.992 198.743L572.689 305.122L461.309 537.156L204.552 389.386L80.3442 309.451C58.3234 295.28 52.233 265.788 66.8385 244.053C77.432 228.288 96.5095 220.498 115.11 224.341L132.264 227.886C157.572 233.115 183.757 224.542 201.073 205.357L218.216 186.364C242.084 159.919 286.414 158.87 318.931 173.419C336.111 181.106 350.716 185.617 353.758 185.725Z" fill="url(#paint1_linear_877_1212)"/>
<path d="M380.113 197.963C382.654 198.045 389.859 195.476 399.331 190.759C438.515 171.246 487.918 164.005 523.773 189.116C532.59 195.291 540.161 203.075 546.089 212.06L624.841 331.428L499.213 592.863L212.232 427.626L73.8007 338.423C48.9824 322.43 42.1144 289.187 58.5635 264.668C70.489 246.893 91.9715 238.083 112.944 242.366L131.865 246.231C160.208 252.021 189.498 242.365 208.841 220.854L228.313 199.2C255.102 169.409 305.068 168.212 341.679 184.486C360.662 192.925 376.737 197.853 380.113 197.963Z" stroke="#FF8383" stroke-width="6"/>
<defs>
<linearGradient id="paint0_linear_877_1212" x1="520.058" y1="911.208" x2="425.059" y2="48.9048" gradientUnits="userSpaceOnUse">
<stop stop-color="#CF7D8A"/>
<stop offset="1" stop-color="#FFB6B6" stop-opacity="0"/>
</linearGradient>
<linearGradient id="paint1_linear_877_1212" x1="526.53" y1="960.642" x2="419.048" y2="-17.6356" gradientUnits="userSpaceOnUse">
<stop stop-color="#CF7D8A"/>
<stop offset="1" stop-color="#FFB6B6" stop-opacity="0"/>
</linearGradient>
</defs>
</svg>
