<svg width="1001" height="712" viewBox="0 0 1001 712" fill="none" xmlns="http://www.w3.org/2000/svg">
<path d="M172.861 -217.312L1262.06 35.9914L1191.36 340.014C1166.35 447.529 1028.83 479.563 958.89 394.163C924.064 351.639 866.67 334.914 814.452 352.074L575.754 430.518L408.269 483.277C332.495 507.146 249.944 494.654 184.625 449.434C97.8979 389.394 56.6294 282.482 80.5226 179.742L172.861 -217.312Z" fill="url(#paint0_linear_506_1362)"/>
<path d="M137.824 -138.547L1227.02 114.757L1184.99 295.523C1159.35 405.768 1023.8 446.671 941.46 369.011C906.687 336.216 858.116 322.418 811.296 332.036L570.432 381.513L386.711 417.239C325.15 429.21 261.336 418.662 206.902 387.515C106.636 330.145 55.8852 213.789 82.052 101.272L137.824 -138.547Z" fill="url(#paint1_linear_506_1362)"/>
<path d="M188.023 -212.76L1214.72 26.0087L1148.18 312.141C1124.76 412.871 995.91 442.884 930.383 362.874C897.231 322.396 842.597 306.476 792.891 322.81L567.474 396.885L567.462 396.889L409.297 446.709C338.032 469.157 260.393 457.408 198.961 414.88C117.391 358.411 78.5763 257.857 101.049 161.227L188.023 -212.76Z" stroke="#AC5B5E" stroke-width="2"/>
<defs>
<linearGradient id="paint0_linear_506_1362" x1="874.391" y1="-1134.65" x2="1177" y2="989.95" gradientUnits="userSpaceOnUse">
<stop stop-color="#CF7D8A"/>
<stop offset="1" stop-color="#FCE9EC" stop-opacity="0"/>
</linearGradient>
<linearGradient id="paint1_linear_506_1362" x1="704.129" y1="82.6418" x2="908.564" y2="1398.79" gradientUnits="userSpaceOnUse">
<stop stop-color="#CF7D8A"/>
<stop offset="1" stop-color="#FCE9EC" stop-opacity="0"/>
</linearGradient>
</defs>
</svg>
