<svg width="681" height="415" viewBox="0 0 681 415" fill="none" xmlns="http://www.w3.org/2000/svg">
<path d="M175.945 -276.594L885.707 25.9933L817.504 185.973C787.348 256.707 690.337 264.864 648.794 200.157C629.521 170.139 595.164 153.317 559.634 156.505L389.189 171.797L264.972 181.493C215.716 185.338 167.065 168.634 130.559 135.344C74.3963 84.1268 56.7471 3.0028 86.5559 -66.9179L175.945 -276.594Z" fill="url(#paint0_linear_720_1160)"/>
<path d="M145.385 -233.559L855.146 69.0284L817.896 156.403C786.808 229.326 689.569 243.503 638.953 182.493C619.237 158.729 590.133 144.751 559.26 144.221L389.973 141.31L257.133 137.742C218.373 136.701 180.964 123.286 150.374 99.4603C85.3404 48.8059 62.5619 -39.2857 94.8898 -115.115L145.385 -233.559Z" fill="url(#paint1_linear_720_1160)"/>
<path d="M185.868 -271.278L854.332 13.7033L790.317 163.86C762.152 229.924 671.547 237.543 632.746 177.109C614.343 148.447 581.538 132.386 547.613 135.429L386.655 149.868L386.644 149.868L269.342 159.023C223.101 162.632 177.428 146.951 143.157 115.698C90.4291 67.6152 73.8593 -8.54616 101.844 -74.1895L185.868 -271.278Z" stroke="#AC5B5E" stroke-width="2"/>
<defs>
<linearGradient id="paint0_linear_720_1160" x1="729.207" y1="-737.765" x2="632.397" y2="585.469" gradientUnits="userSpaceOnUse">
<stop stop-color="#CF7D8A"/>
<stop offset="1" stop-color="#FCE9EC" stop-opacity="0"/>
</linearGradient>
<linearGradient id="paint1_linear_720_1160" x1="506.448" y1="-21.8985" x2="455.748" y2="800.799" gradientUnits="userSpaceOnUse">
<stop stop-color="#CF7D8A"/>
<stop offset="1" stop-color="#FCE9EC" stop-opacity="0"/>
</linearGradient>
</defs>
</svg>
