<svg width="725" height="513" viewBox="0 0 725 513" fill="none" xmlns="http://www.w3.org/2000/svg">
<path d="M343.932 934.344L-237.999 427.71L-54.4679 216.903C-4.871 159.935 88.7803 188.997 97.4132 264.035C102.114 304.894 134.814 336.863 175.769 340.64L353.323 357.014L469.731 369.303C532.255 375.904 586.468 415.453 611.844 472.976C639.297 535.209 628.308 607.703 583.645 659.004L343.932 934.344Z" fill="url(#paint0_linear_720_1164)" fill-opacity="0.5"/>
<path d="M397.883 889.484L-184.047 382.851L-66.4275 247.75C-16.0081 189.837 78.7004 212.341 97.6801 286.744C106.57 321.593 134.333 348.461 169.454 356.205L336.799 393.104L457.695 421.245C506.484 432.602 548.264 463.922 572.847 507.569C609.946 573.437 601.57 655.525 551.931 712.542L397.883 889.484Z" fill="url(#paint1_linear_720_1164)" fill-opacity="0.5"/>
<path d="M336.131 926.23L-211.94 449.075L-39.277 250.75C6.99201 197.604 94.3596 224.715 102.414 294.718C106.908 333.776 138.166 364.335 177.315 367.946L344.984 383.411L344.997 383.412L454.921 395.018C513.611 401.215 564.5 438.339 588.32 492.335C614.092 550.754 603.777 618.806 561.85 666.963L336.131 926.23Z" stroke="#AC5B5E" stroke-width="2"/>
<defs>
<linearGradient id="paint0_linear_720_1164" x1="-468.907" y1="1368.34" x2="12.6058" y2="-273.52" gradientUnits="userSpaceOnUse">
<stop stop-color="#CF7D8A"/>
<stop offset="1" stop-color="#FCE9EC" stop-opacity="0"/>
</linearGradient>
<linearGradient id="paint1_linear_720_1164" x1="131.6" y1="563.101" x2="415.495" y2="-458.347" gradientUnits="userSpaceOnUse">
<stop stop-color="#CF7D8A"/>
<stop offset="1" stop-color="#FCE9EC" stop-opacity="0"/>
</linearGradient>
</defs>
</svg>
