<svg width="345" height="78" viewBox="0 0 345 78" fill="none" xmlns="http://www.w3.org/2000/svg">
<rect width="345" height="78" fill="white"/>
<path d="M43.368 48.144C42.12 48.144 40.92 47.944 39.768 47.544C38.632 47.128 37.752 46.6 37.128 45.96L37.824 44.592C38.416 45.168 39.208 45.656 40.2 46.056C41.208 46.44 42.264 46.632 43.368 46.632C44.424 46.632 45.28 46.504 45.936 46.248C46.608 45.976 47.096 45.616 47.4 45.168C47.72 44.72 47.88 44.224 47.88 43.68C47.88 43.024 47.688 42.496 47.304 42.096C46.936 41.696 46.448 41.384 45.84 41.16C45.232 40.92 44.56 40.712 43.824 40.536C43.088 40.36 42.352 40.176 41.616 39.984C40.88 39.776 40.2 39.504 39.576 39.168C38.968 38.832 38.472 38.392 38.088 37.848C37.72 37.288 37.536 36.56 37.536 35.664C37.536 34.832 37.752 34.072 38.184 33.384C38.632 32.68 39.312 32.12 40.224 31.704C41.136 31.272 42.304 31.056 43.728 31.056C44.672 31.056 45.608 31.192 46.536 31.464C47.464 31.72 48.264 32.08 48.936 32.544L48.336 33.96C47.616 33.48 46.848 33.128 46.032 32.904C45.232 32.68 44.456 32.568 43.704 32.568C42.696 32.568 41.864 32.704 41.208 32.976C40.552 33.248 40.064 33.616 39.744 34.08C39.44 34.528 39.288 35.04 39.288 35.616C39.288 36.272 39.472 36.8 39.84 37.2C40.224 37.6 40.72 37.912 41.328 38.136C41.952 38.36 42.632 38.56 43.368 38.736C44.104 38.912 44.832 39.104 45.552 39.312C46.288 39.52 46.96 39.792 47.568 40.128C48.192 40.448 48.688 40.88 49.056 41.424C49.44 41.968 49.632 42.68 49.632 43.56C49.632 44.376 49.408 45.136 48.96 45.84C48.512 46.528 47.824 47.088 46.896 47.52C45.984 47.936 44.808 48.144 43.368 48.144ZM54.4856 44.736L54.5336 42.552L62.3816 35.4H64.4696L58.9256 40.704L57.9656 41.52L54.4856 44.736ZM53.1416 48V30.192H54.8456V48H53.1416ZM62.9096 48L57.6536 41.448L58.7576 40.128L64.9976 48H62.9096ZM67.5557 48V35.4H69.2597V48H67.5557ZM68.4197 32.616C68.0677 32.616 67.7717 32.496 67.5317 32.256C67.2917 32.016 67.1717 31.728 67.1717 31.392C67.1717 31.056 67.2917 30.776 67.5317 30.552C67.7717 30.312 68.0677 30.192 68.4197 30.192C68.7717 30.192 69.0677 30.304 69.3077 30.528C69.5477 30.752 69.6677 31.032 69.6677 31.368C69.6677 31.72 69.5477 32.016 69.3077 32.256C69.0837 32.496 68.7877 32.616 68.4197 32.616ZM74.001 48V30.192H75.705V48H74.001ZM80.4463 48V30.192H82.1503V48H80.4463ZM90.2756 48.12C89.2356 48.12 88.2516 47.976 87.3236 47.688C86.3956 47.384 85.6676 47.008 85.1396 46.56L85.9076 45.216C86.4196 45.6 87.0756 45.936 87.8756 46.224C88.6756 46.496 89.5156 46.632 90.3956 46.632C91.5956 46.632 92.4596 46.448 92.9876 46.08C93.5156 45.696 93.7796 45.192 93.7796 44.568C93.7796 44.104 93.6276 43.744 93.3236 43.488C93.0356 43.216 92.6516 43.016 92.1716 42.888C91.6916 42.744 91.1556 42.624 90.5636 42.528C89.9716 42.432 89.3796 42.32 88.7876 42.192C88.2116 42.064 87.6836 41.88 87.2036 41.64C86.7236 41.384 86.3316 41.04 86.0276 40.608C85.7396 40.176 85.5956 39.6 85.5956 38.88C85.5956 38.192 85.7876 37.576 86.1716 37.032C86.5556 36.488 87.1156 36.064 87.8516 35.76C88.6036 35.44 89.5156 35.28 90.5876 35.28C91.4036 35.28 92.2196 35.392 93.0356 35.616C93.8516 35.824 94.5236 36.104 95.0516 36.456L94.3076 37.824C93.7476 37.44 93.1476 37.168 92.5076 37.008C91.8676 36.832 91.2276 36.744 90.5876 36.744C89.4516 36.744 88.6116 36.944 88.0676 37.344C87.5396 37.728 87.2756 38.224 87.2756 38.832C87.2756 39.312 87.4196 39.688 87.7076 39.96C88.0116 40.232 88.4036 40.448 88.8836 40.608C89.3796 40.752 89.9156 40.872 90.4916 40.968C91.0836 41.064 91.6676 41.184 92.2436 41.328C92.8356 41.456 93.3716 41.64 93.8516 41.88C94.3476 42.104 94.7396 42.432 95.0276 42.864C95.3316 43.28 95.4836 43.832 95.4836 44.52C95.4836 45.256 95.2756 45.896 94.8596 46.44C94.4596 46.968 93.8676 47.384 93.0836 47.688C92.3156 47.976 91.3796 48.12 90.2756 48.12ZM102.564 48L110.244 31.2H111.996L119.676 48H117.804L110.748 32.232H111.468L104.412 48H102.564ZM105.588 43.512L106.116 42.072H115.884L116.412 43.512H105.588ZM128.527 35.28C129.551 35.28 130.447 35.48 131.215 35.88C131.999 36.264 132.607 36.856 133.039 37.656C133.487 38.456 133.711 39.464 133.711 40.68V48H132.007V40.848C132.007 39.52 131.671 38.52 130.999 37.848C130.343 37.16 129.415 36.816 128.215 36.816C127.319 36.816 126.535 37 125.863 37.368C125.207 37.72 124.695 38.24 124.327 38.928C123.975 39.6 123.799 40.416 123.799 41.376V48H122.095V35.4H123.727V38.856L123.463 38.208C123.863 37.296 124.503 36.584 125.383 36.072C126.263 35.544 127.311 35.28 128.527 35.28ZM143.33 48.12C142.13 48.12 141.05 47.848 140.09 47.304C139.146 46.76 138.402 46.008 137.858 45.048C137.314 44.072 137.042 42.952 137.042 41.688C137.042 40.408 137.314 39.288 137.858 38.328C138.402 37.368 139.146 36.624 140.09 36.096C141.05 35.552 142.13 35.28 143.33 35.28C144.434 35.28 145.418 35.528 146.282 36.024C147.162 36.52 147.858 37.248 148.37 38.208C148.898 39.152 149.161 40.312 149.161 41.688C149.161 43.048 148.906 44.208 148.394 45.168C147.882 46.128 147.186 46.864 146.306 47.376C145.442 47.872 144.45 48.12 143.33 48.12ZM143.45 46.608C144.346 46.608 145.146 46.408 145.85 46.008C146.57 45.592 147.13 45.016 147.53 44.28C147.946 43.528 148.154 42.664 148.154 41.688C148.154 40.696 147.946 39.832 147.53 39.096C147.13 38.36 146.57 37.792 145.85 37.392C145.146 36.976 144.346 36.768 143.45 36.768C142.57 36.768 141.778 36.976 141.074 37.392C140.37 37.792 139.81 38.36 139.394 39.096C138.978 39.832 138.77 40.696 138.77 41.688C138.77 42.664 138.978 43.528 139.394 44.28C139.81 45.016 140.37 45.592 141.074 46.008C141.778 46.408 142.57 46.608 143.45 46.608ZM148.202 48V44.208L148.37 41.664L148.13 39.12V30.192H149.834V48H148.202ZM168.516 48.144C167.252 48.144 166.084 47.936 165.012 47.52C163.94 47.088 163.012 46.488 162.228 45.72C161.444 44.952 160.828 44.048 160.38 43.008C159.948 41.968 159.732 40.832 159.732 39.6C159.732 38.368 159.948 37.232 160.38 36.192C160.828 35.152 161.444 34.248 162.228 33.48C163.028 32.712 163.964 32.12 165.036 31.704C166.108 31.272 167.276 31.056 168.54 31.056C169.756 31.056 170.9 31.264 171.972 31.68C173.044 32.08 173.948 32.688 174.684 33.504L173.556 34.632C172.868 33.928 172.108 33.424 171.276 33.12C170.444 32.8 169.548 32.64 168.588 32.64C167.58 32.64 166.644 32.816 165.78 33.168C164.916 33.504 164.164 33.992 163.524 34.632C162.884 35.256 162.38 35.992 162.012 36.84C161.66 37.672 161.484 38.592 161.484 39.6C161.484 40.608 161.66 41.536 162.012 42.384C162.38 43.216 162.884 43.952 163.524 44.592C164.164 45.216 164.916 45.704 165.78 46.056C166.644 46.392 167.58 46.56 168.588 46.56C169.548 46.56 170.444 46.4 171.276 46.08C172.108 45.76 172.868 45.248 173.556 44.544L174.684 45.672C173.948 46.488 173.044 47.104 171.972 47.52C170.9 47.936 169.748 48.144 168.516 48.144ZM182.9 48.12C181.588 48.12 180.436 47.848 179.444 47.304C178.452 46.744 177.676 45.984 177.116 45.024C176.556 44.048 176.276 42.936 176.276 41.688C176.276 40.44 176.54 39.336 177.068 38.376C177.612 37.416 178.348 36.664 179.276 36.12C180.22 35.56 181.276 35.28 182.444 35.28C183.628 35.28 184.676 35.552 185.588 36.096C186.516 36.624 187.244 37.376 187.772 38.352C188.3 39.312 188.564 40.424 188.564 41.688C188.564 41.768 188.556 41.856 188.54 41.952C188.54 42.032 188.54 42.12 188.54 42.216H177.572V40.944H187.628L186.956 41.448C186.956 40.536 186.756 39.728 186.356 39.024C185.972 38.304 185.444 37.744 184.772 37.344C184.1 36.944 183.324 36.744 182.444 36.744C181.58 36.744 180.804 36.944 180.116 37.344C179.428 37.744 178.892 38.304 178.508 39.024C178.124 39.744 177.932 40.568 177.932 41.496V41.76C177.932 42.72 178.14 43.568 178.556 44.304C178.988 45.024 179.58 45.592 180.332 46.008C181.1 46.408 181.972 46.608 182.948 46.608C183.716 46.608 184.428 46.472 185.084 46.2C185.756 45.928 186.332 45.512 186.812 44.952L187.772 46.056C187.212 46.728 186.508 47.24 185.66 47.592C184.828 47.944 183.908 48.12 182.9 48.12ZM192.032 48V35.4H193.664V38.832L193.496 38.232C193.848 37.272 194.44 36.544 195.272 36.048C196.104 35.536 197.136 35.28 198.368 35.28V36.936C198.304 36.936 198.24 36.936 198.176 36.936C198.112 36.92 198.048 36.912 197.984 36.912C196.656 36.912 195.616 37.32 194.864 38.136C194.112 38.936 193.736 40.08 193.736 41.568V48H192.032ZM206.001 48.12C204.817 48.12 203.905 47.8 203.265 47.16C202.625 46.52 202.305 45.616 202.305 44.448V32.616H204.009V44.352C204.009 45.088 204.193 45.656 204.561 46.056C204.945 46.456 205.489 46.656 206.193 46.656C206.945 46.656 207.569 46.44 208.065 46.008L208.665 47.232C208.329 47.536 207.921 47.76 207.441 47.904C206.977 48.048 206.497 48.12 206.001 48.12ZM200.049 36.816V35.4H207.849V36.816H200.049ZM211.767 48V35.4H213.471V48H211.767ZM212.631 32.616C212.279 32.616 211.983 32.496 211.743 32.256C211.503 32.016 211.383 31.728 211.383 31.392C211.383 31.056 211.503 30.776 211.743 30.552C211.983 30.312 212.279 30.192 212.631 30.192C212.983 30.192 213.279 30.304 213.519 30.528C213.759 30.752 213.879 31.032 213.879 31.368C213.879 31.72 213.759 32.016 213.519 32.256C213.295 32.496 212.999 32.616 212.631 32.616ZM218.5 48V33.816C218.5 32.696 218.828 31.792 219.484 31.104C220.14 30.416 221.084 30.072 222.316 30.072C222.796 30.072 223.26 30.136 223.708 30.264C224.156 30.392 224.532 30.592 224.836 30.864L224.26 32.136C224.02 31.928 223.74 31.776 223.42 31.68C223.1 31.568 222.756 31.512 222.388 31.512C221.668 31.512 221.116 31.712 220.732 32.112C220.348 32.512 220.156 33.104 220.156 33.888V35.808L220.204 36.6V48H218.5ZM216.244 36.816V35.4H224.044V36.816H216.244ZM226.348 48V35.4H228.052V48H226.348ZM227.212 32.616C226.86 32.616 226.564 32.496 226.324 32.256C226.084 32.016 225.964 31.728 225.964 31.392C225.964 31.056 226.084 30.776 226.324 30.552C226.564 30.312 226.86 30.192 227.212 30.192C227.564 30.192 227.86 30.304 228.1 30.528C228.34 30.752 228.46 31.032 228.46 31.368C228.46 31.72 228.34 32.016 228.1 32.256C227.876 32.496 227.58 32.616 227.212 32.616ZM238.069 48.12C236.821 48.12 235.701 47.848 234.709 47.304C233.733 46.744 232.965 45.984 232.405 45.024C231.845 44.048 231.565 42.936 231.565 41.688C231.565 40.424 231.845 39.312 232.405 38.352C232.965 37.392 233.733 36.64 234.709 36.096C235.701 35.552 236.821 35.28 238.069 35.28C239.141 35.28 240.109 35.488 240.973 35.904C241.837 36.32 242.517 36.944 243.013 37.776L241.741 38.64C241.309 38 240.773 37.528 240.133 37.224C239.493 36.92 238.797 36.768 238.045 36.768C237.149 36.768 236.341 36.976 235.621 37.392C234.901 37.792 234.333 38.36 233.917 39.096C233.501 39.832 233.293 40.696 233.293 41.688C233.293 42.68 233.501 43.544 233.917 44.28C234.333 45.016 234.901 45.592 235.621 46.008C236.341 46.408 237.149 46.608 238.045 46.608C238.797 46.608 239.493 46.456 240.133 46.152C240.773 45.848 241.309 45.384 241.741 44.76L243.013 45.624C242.517 46.44 241.837 47.064 240.973 47.496C240.109 47.912 239.141 48.12 238.069 48.12ZM254.256 48V45.216L254.184 44.76V40.104C254.184 39.032 253.88 38.208 253.272 37.632C252.68 37.056 251.792 36.768 250.608 36.768C249.792 36.768 249.016 36.904 248.28 37.176C247.544 37.448 246.92 37.808 246.408 38.256L245.64 36.984C246.28 36.44 247.048 36.024 247.944 35.736C248.84 35.432 249.784 35.28 250.776 35.28C252.408 35.28 253.664 35.688 254.544 36.504C255.44 37.304 255.888 38.528 255.888 40.176V48H254.256ZM249.912 48.12C248.968 48.12 248.144 47.968 247.44 47.664C246.752 47.344 246.224 46.912 245.856 46.368C245.488 45.808 245.304 45.168 245.304 44.448C245.304 43.792 245.456 43.2 245.76 42.672C246.08 42.128 246.592 41.696 247.296 41.376C248.016 41.04 248.976 40.872 250.176 40.872H254.52V42.144H250.224C249.008 42.144 248.16 42.36 247.68 42.792C247.216 43.224 246.984 43.76 246.984 44.4C246.984 45.12 247.264 45.696 247.824 46.128C248.384 46.56 249.168 46.776 250.176 46.776C251.136 46.776 251.96 46.56 252.648 46.128C253.352 45.68 253.864 45.04 254.184 44.208L254.568 45.384C254.248 46.216 253.688 46.88 252.888 47.376C252.104 47.872 251.112 48.12 249.912 48.12ZM264.501 48.12C263.317 48.12 262.405 47.8 261.765 47.16C261.125 46.52 260.805 45.616 260.805 44.448V32.616H262.509V44.352C262.509 45.088 262.693 45.656 263.061 46.056C263.445 46.456 263.989 46.656 264.693 46.656C265.445 46.656 266.069 46.44 266.565 46.008L267.165 47.232C266.829 47.536 266.421 47.76 265.941 47.904C265.477 48.048 264.997 48.12 264.501 48.12ZM258.549 36.816V35.4H266.349V36.816H258.549ZM270.267 48V35.4H271.971V48H270.267ZM271.131 32.616C270.779 32.616 270.483 32.496 270.243 32.256C270.003 32.016 269.883 31.728 269.883 31.392C269.883 31.056 270.003 30.776 270.243 30.552C270.483 30.312 270.779 30.192 271.131 30.192C271.483 30.192 271.779 30.304 272.019 30.528C272.259 30.752 272.379 31.032 272.379 31.368C272.379 31.72 272.259 32.016 272.019 32.256C271.795 32.496 271.499 32.616 271.131 32.616ZM281.848 48.12C280.632 48.12 279.536 47.848 278.56 47.304C277.6 46.744 276.84 45.984 276.28 45.024C275.72 44.048 275.44 42.936 275.44 41.688C275.44 40.424 275.72 39.312 276.28 38.352C276.84 37.392 277.6 36.64 278.56 36.096C279.52 35.552 280.616 35.28 281.848 35.28C283.096 35.28 284.2 35.552 285.16 36.096C286.136 36.64 286.896 37.392 287.44 38.352C288 39.312 288.28 40.424 288.28 41.688C288.28 42.936 288 44.048 287.44 45.024C286.896 45.984 286.136 46.744 285.16 47.304C284.184 47.848 283.08 48.12 281.848 48.12ZM281.848 46.608C282.76 46.608 283.568 46.408 284.272 46.008C284.976 45.592 285.528 45.016 285.928 44.28C286.344 43.528 286.552 42.664 286.552 41.688C286.552 40.696 286.344 39.832 285.928 39.096C285.528 38.36 284.976 37.792 284.272 37.392C283.568 36.976 282.768 36.768 281.872 36.768C280.976 36.768 280.176 36.976 279.472 37.392C278.768 37.792 278.208 38.36 277.792 39.096C277.376 39.832 277.168 40.696 277.168 41.688C277.168 42.664 277.376 43.528 277.792 44.28C278.208 45.016 278.768 45.592 279.472 46.008C280.176 46.408 280.968 46.608 281.848 46.608ZM298.191 35.28C299.215 35.28 300.111 35.48 300.879 35.88C301.663 36.264 302.271 36.856 302.703 37.656C303.151 38.456 303.375 39.464 303.375 40.68V48H301.671V40.848C301.671 39.52 301.335 38.52 300.663 37.848C300.007 37.16 299.079 36.816 297.879 36.816C296.983 36.816 296.199 37 295.527 37.368C294.871 37.72 294.359 38.24 293.991 38.928C293.639 39.6 293.463 40.416 293.463 41.376V48H291.759V35.4H293.391V38.856L293.127 38.208C293.527 37.296 294.167 36.584 295.047 36.072C295.927 35.544 296.975 35.28 298.191 35.28Z" fill="black"/>
</svg>
