<svg width="139" height="45" viewBox="0 0 139 45" fill="none" xmlns="http://www.w3.org/2000/svg">
<rect width="139" height="45" rx="10" fill="#FF8383"/>
<path d="M24.8959 21V8.4H29.8099C30.9139 8.4 31.8559 8.574 32.6359 8.922C33.4159 9.27 34.0159 9.774 34.4359 10.434C34.8559 11.094 35.0659 11.88 35.0659 12.792C35.0659 13.704 34.8559 14.49 34.4359 15.15C34.0159 15.798 33.4159 16.296 32.6359 16.644C31.8559 16.992 30.9139 17.166 29.8099 17.166H25.8859L26.6959 16.338V21H24.8959ZM33.3199 21L30.1159 16.428H32.0419L35.2819 21H33.3199ZM26.6959 16.518L25.8859 15.636H29.7559C30.9079 15.636 31.7779 15.39 32.3659 14.898C32.9659 14.394 33.2659 13.692 33.2659 12.792C33.2659 11.892 32.9659 11.196 32.3659 10.704C31.7779 10.212 30.9079 9.966 29.7559 9.966H25.8859L26.6959 9.066V16.518ZM43.5561 21V18.984L43.4661 18.606V15.168C43.4661 14.436 43.2501 13.872 42.8181 13.476C42.3981 13.068 41.7621 12.864 40.9101 12.864C40.3461 12.864 39.7941 12.96 39.2541 13.152C38.7141 13.332 38.2581 13.578 37.8861 13.89L37.1661 12.594C37.6581 12.198 38.2461 11.898 38.9301 11.694C39.6261 11.478 40.3521 11.37 41.1081 11.37C42.4161 11.37 43.4241 11.688 44.1321 12.324C44.8401 12.96 45.1941 13.932 45.1941 15.24V21H43.5561ZM40.4241 21.108C39.7161 21.108 39.0921 20.988 38.5521 20.748C38.0241 20.508 37.6161 20.178 37.3281 19.758C37.0401 19.326 36.8961 18.84 36.8961 18.3C36.8961 17.784 37.0161 17.316 37.2561 16.896C37.5081 16.476 37.9101 16.14 38.4621 15.888C39.0261 15.636 39.7821 15.51 40.7301 15.51H43.7541V16.752H40.8021C39.9381 16.752 39.3561 16.896 39.0561 17.184C38.7561 17.472 38.6061 17.82 38.6061 18.228C38.6061 18.696 38.7921 19.074 39.1641 19.362C39.5361 19.638 40.0521 19.776 40.7121 19.776C41.3601 19.776 41.9241 19.632 42.4041 19.344C42.8961 19.056 43.2501 18.636 43.4661 18.084L43.8081 19.272C43.5801 19.836 43.1781 20.286 42.6021 20.622C42.0261 20.946 41.3001 21.108 40.4241 21.108ZM51.6679 21.108C50.7079 21.108 49.9639 20.85 49.4359 20.334C48.9079 19.818 48.6439 19.08 48.6439 18.12V9.372H50.3719V18.048C50.3719 18.564 50.4979 18.96 50.7499 19.236C51.0139 19.512 51.3859 19.65 51.8659 19.65C52.4059 19.65 52.8559 19.5 53.2159 19.2L53.7559 20.442C53.4919 20.67 53.1739 20.838 52.8019 20.946C52.4419 21.054 52.0639 21.108 51.6679 21.108ZM47.0239 12.882V11.46H53.1079V12.882H47.0239ZM59.7766 21.108C58.7566 21.108 57.8566 20.898 57.0766 20.478C56.3086 20.058 55.7086 19.482 55.2766 18.75C54.8566 18.018 54.6466 17.178 54.6466 16.23C54.6466 15.282 54.8506 14.442 55.2586 13.71C55.6786 12.978 56.2486 12.408 56.9686 12C57.7006 11.58 58.5226 11.37 59.4346 11.37C60.3586 11.37 61.1746 11.574 61.8826 11.982C62.5906 12.39 63.1426 12.966 63.5386 13.71C63.9466 14.442 64.1506 15.3 64.1506 16.284C64.1506 16.356 64.1446 16.44 64.1326 16.536C64.1326 16.632 64.1266 16.722 64.1146 16.806H55.9966V15.564H63.2146L62.5126 15.996C62.5246 15.384 62.3986 14.838 62.1346 14.358C61.8706 13.878 61.5046 13.506 61.0366 13.242C60.5806 12.966 60.0466 12.828 59.4346 12.828C58.8346 12.828 58.3006 12.966 57.8326 13.242C57.3646 13.506 56.9986 13.884 56.7346 14.376C56.4706 14.856 56.3386 15.408 56.3386 16.032V16.32C56.3386 16.956 56.4826 17.526 56.7706 18.03C57.0706 18.522 57.4846 18.906 58.0126 19.182C58.5406 19.458 59.1466 19.596 59.8306 19.596C60.3946 19.596 60.9046 19.5 61.3606 19.308C61.8286 19.116 62.2366 18.828 62.5846 18.444L63.5386 19.56C63.1066 20.064 62.5666 20.448 61.9186 20.712C61.2826 20.976 60.5686 21.108 59.7766 21.108ZM74.1381 21V9.966H69.8181V8.4H80.2401V9.966H75.9201V21H74.1381ZM87.0425 11.37C87.8225 11.37 88.5065 11.52 89.0945 11.82C89.6945 12.12 90.1625 12.576 90.4985 13.188C90.8345 13.8 91.0025 14.574 91.0025 15.51V21H89.2745V15.708C89.2745 14.784 89.0465 14.088 88.5905 13.62C88.1465 13.152 87.5165 12.918 86.7005 12.918C86.0885 12.918 85.5545 13.038 85.0985 13.278C84.6425 13.518 84.2885 13.872 84.0365 14.34C83.7965 14.808 83.6765 15.39 83.6765 16.086V21H81.9485V7.644H83.6765V14.034L83.3345 13.35C83.6465 12.726 84.1265 12.24 84.7745 11.892C85.4225 11.544 86.1785 11.37 87.0425 11.37ZM98.4485 21.108C97.4285 21.108 96.5285 20.898 95.7485 20.478C94.9805 20.058 94.3805 19.482 93.9485 18.75C93.5285 18.018 93.3185 17.178 93.3185 16.23C93.3185 15.282 93.5225 14.442 93.9305 13.71C94.3505 12.978 94.9205 12.408 95.6405 12C96.3725 11.58 97.1945 11.37 98.1065 11.37C99.0305 11.37 99.8465 11.574 100.555 11.982C101.263 12.39 101.815 12.966 102.211 13.71C102.619 14.442 102.823 15.3 102.823 16.284C102.823 16.356 102.817 16.44 102.805 16.536C102.805 16.632 102.799 16.722 102.787 16.806H94.6685V15.564H101.887L101.185 15.996C101.197 15.384 101.071 14.838 100.807 14.358C100.543 13.878 100.177 13.506 99.7085 13.242C99.2525 12.966 98.7185 12.828 98.1065 12.828C97.5065 12.828 96.9725 12.966 96.5045 13.242C96.0365 13.506 95.6705 13.884 95.4065 14.376C95.1425 14.856 95.0105 15.408 95.0105 16.032V16.32C95.0105 16.956 95.1545 17.526 95.4425 18.03C95.7425 18.522 96.1565 18.906 96.6845 19.182C97.2125 19.458 97.8185 19.596 98.5025 19.596C99.0665 19.596 99.5765 19.5 100.033 19.308C100.501 19.116 100.909 18.828 101.257 18.444L102.211 19.56C101.779 20.064 101.239 20.448 100.591 20.712C99.9545 20.976 99.2405 21.108 98.4485 21.108ZM105.222 21V11.46H106.95V21H105.222ZM106.086 9.624C105.75 9.624 105.468 9.516 105.24 9.3C105.024 9.084 104.916 8.82 104.916 8.508C104.916 8.184 105.024 7.914 105.24 7.698C105.468 7.482 105.75 7.374 106.086 7.374C106.422 7.374 106.698 7.482 106.914 7.698C107.142 7.902 107.256 8.16 107.256 8.472C107.256 8.796 107.148 9.072 106.932 9.3C106.716 9.516 106.434 9.624 106.086 9.624ZM110.249 21V11.46H111.905V14.052L111.743 13.404C112.007 12.744 112.451 12.24 113.075 11.892C113.699 11.544 114.467 11.37 115.379 11.37V13.044C115.307 13.032 115.235 13.026 115.163 13.026C115.103 13.026 115.043 13.026 114.983 13.026C114.059 13.026 113.327 13.302 112.787 13.854C112.247 14.406 111.977 15.204 111.977 16.248V21H110.249ZM51.8765 43.144C50.9165 43.144 49.9985 43 49.1225 42.712C48.2465 42.412 47.5565 42.028 47.0525 41.56L47.7185 40.156C48.1985 40.576 48.8105 40.924 49.5545 41.2C50.2985 41.476 51.0725 41.614 51.8765 41.614C52.6085 41.614 53.2025 41.53 53.6585 41.362C54.1145 41.194 54.4505 40.966 54.6665 40.678C54.8825 40.378 54.9905 40.042 54.9905 39.67C54.9905 39.238 54.8465 38.89 54.5585 38.626C54.2825 38.362 53.9165 38.152 53.4605 37.996C53.0165 37.828 52.5245 37.684 51.9845 37.564C51.4445 37.444 50.8985 37.306 50.3465 37.15C49.8065 36.982 49.3085 36.772 48.8525 36.52C48.4085 36.268 48.0485 35.932 47.7725 35.512C47.4965 35.08 47.3585 34.528 47.3585 33.856C47.3585 33.208 47.5265 32.614 47.8625 32.074C48.2105 31.522 48.7385 31.084 49.4465 30.76C50.1665 30.424 51.0785 30.256 52.1825 30.256C52.9145 30.256 53.6405 30.352 54.3605 30.544C55.0805 30.736 55.7045 31.012 56.2325 31.372L55.6385 32.812C55.0985 32.452 54.5285 32.194 53.9285 32.038C53.3285 31.87 52.7465 31.786 52.1825 31.786C51.4745 31.786 50.8925 31.876 50.4365 32.056C49.9805 32.236 49.6445 32.476 49.4285 32.776C49.2245 33.076 49.1225 33.412 49.1225 33.784C49.1225 34.228 49.2605 34.582 49.5365 34.846C49.8245 35.11 50.1905 35.32 50.6345 35.476C51.0905 35.632 51.5885 35.776 52.1285 35.908C52.6685 36.028 53.2085 36.166 53.7485 36.322C54.3005 36.478 54.7985 36.682 55.2425 36.934C55.6985 37.186 56.0645 37.522 56.3405 37.942C56.6165 38.362 56.7545 38.902 56.7545 39.562C56.7545 40.198 56.5805 40.792 56.2325 41.344C55.8845 41.884 55.3445 42.322 54.6125 42.658C53.8925 42.982 52.9805 43.144 51.8765 43.144ZM60.5361 40.696L60.5721 38.482L66.0621 33.46H68.1501L63.9381 37.6L63.0021 38.392L60.5361 40.696ZM59.1321 43V29.644H60.8601V43H59.1321ZM66.4221 43L62.6781 38.356L63.7941 36.97L68.5461 43H66.4221ZM70.2239 43V33.46H71.9519V43H70.2239ZM71.0879 31.624C70.7519 31.624 70.4699 31.516 70.2419 31.3C70.0259 31.084 69.9179 30.82 69.9179 30.508C69.9179 30.184 70.0259 29.914 70.2419 29.698C70.4699 29.482 70.7519 29.374 71.0879 29.374C71.4239 29.374 71.6999 29.482 71.9159 29.698C72.1439 29.902 72.2579 30.16 72.2579 30.472C72.2579 30.796 72.1499 31.072 71.9339 31.3C71.7179 31.516 71.4359 31.624 71.0879 31.624ZM75.2513 43V29.644H76.9793V43H75.2513ZM80.2786 43V29.644H82.0066V43H80.2786ZM88.042 43.108C87.25 43.108 86.494 43 85.774 42.784C85.066 42.568 84.508 42.304 84.1 41.992L84.82 40.624C85.228 40.9 85.732 41.134 86.332 41.326C86.932 41.518 87.544 41.614 88.168 41.614C88.972 41.614 89.548 41.5 89.896 41.272C90.256 41.044 90.436 40.726 90.436 40.318C90.436 40.018 90.328 39.784 90.112 39.616C89.896 39.448 89.608 39.322 89.248 39.238C88.9 39.154 88.51 39.082 88.078 39.022C87.646 38.95 87.214 38.866 86.782 38.77C86.35 38.662 85.954 38.518 85.594 38.338C85.234 38.146 84.946 37.888 84.73 37.564C84.514 37.228 84.406 36.784 84.406 36.232C84.406 35.656 84.568 35.152 84.892 34.72C85.216 34.288 85.672 33.958 86.26 33.73C86.86 33.49 87.568 33.37 88.384 33.37C89.008 33.37 89.638 33.448 90.274 33.604C90.922 33.748 91.45 33.958 91.858 34.234L91.12 35.602C90.688 35.314 90.238 35.116 89.77 35.008C89.302 34.9 88.834 34.846 88.366 34.846C87.61 34.846 87.046 34.972 86.674 35.224C86.302 35.464 86.116 35.776 86.116 36.16C86.116 36.484 86.224 36.736 86.44 36.916C86.668 37.084 86.956 37.216 87.304 37.312C87.664 37.408 88.06 37.492 88.492 37.564C88.924 37.624 89.356 37.708 89.788 37.816C90.22 37.912 90.61 38.05 90.958 38.23C91.318 38.41 91.606 38.662 91.822 38.986C92.05 39.31 92.164 39.742 92.164 40.282C92.164 40.858 91.996 41.356 91.66 41.776C91.324 42.196 90.85 42.526 90.238 42.766C89.626 42.994 88.894 43.108 88.042 43.108Z" fill="black"/>
</svg>
