<svg width="365" height="450" viewBox="0 0 365 450" fill="none" xmlns="http://www.w3.org/2000/svg">
<path d="M10.2461 316.629L713.856 0.000257195L785.224 158.593C816.779 228.715 757.007 305.56 681.276 292.232C646.144 286.049 610.486 299.902 588.743 328.182L484.434 463.847L407.351 561.736C376.785 600.551 331.523 624.992 282.302 629.259C206.577 635.824 134.976 593.802 103.784 524.487L10.2461 316.629Z" fill="url(#paint0_linear_543_1194)" fill-opacity="0.5"/>
<path d="M21.1641 368.27L724.774 51.6409L763.752 138.259C796.283 210.549 740.784 291.643 661.62 287.491C630.784 285.874 600.778 297.794 579.458 320.129L462.553 442.603L369.874 537.838C342.832 565.625 307.609 584.032 269.357 590.366C188.031 603.834 107.83 560.859 74.0022 485.686L21.1641 368.27Z" fill="url(#paint1_linear_543_1194)" fill-opacity="0.5"/>
<path d="M20.8809 312.939L683.551 14.7333L750.537 163.589C780.009 229.08 724.185 300.851 653.454 288.405C619.908 282.502 585.861 295.729 565.1 322.732L466.595 450.844L466.588 450.853L393.796 543.29C365.101 579.73 322.609 602.674 276.401 606.681C205.308 612.845 138.087 573.393 108.803 508.319L20.8809 312.939Z" stroke="#AC5B5E" stroke-opacity="0.5" stroke-width="2"/>
<defs>
<linearGradient id="paint0_linear_543_1194" x1="46.3024" y1="-402.73" x2="953.412" y2="565.501" gradientUnits="userSpaceOnUse">
<stop stop-color="#CF7D8A"/>
<stop offset="1" stop-color="#FCE9EC" stop-opacity="0"/>
</linearGradient>
<linearGradient id="paint1_linear_543_1194" x1="421.537" y1="246.335" x2="991.95" y2="841.34" gradientUnits="userSpaceOnUse">
<stop stop-color="#CF7D8A"/>
<stop offset="1" stop-color="#FCE9EC" stop-opacity="0"/>
</linearGradient>
</defs>
</svg>
