<svg width="345" height="78" viewBox="0 0 345 78" fill="none" xmlns="http://www.w3.org/2000/svg">
<rect width="345" height="78" fill="white"/>
<path d="M38.4255 48V31.2H44.7135C46.1375 31.2 47.3615 31.432 48.3855 31.896C49.4095 32.344 50.1935 33 50.7375 33.864C51.2975 34.712 51.5775 35.744 51.5775 36.96C51.5775 38.144 51.2975 39.168 50.7375 40.032C50.1935 40.88 49.4095 41.536 48.3855 42C47.3615 42.464 46.1375 42.696 44.7135 42.696H39.4095L40.2015 41.856V48H38.4255ZM40.2015 42L39.4095 41.136H44.6655C46.3455 41.136 47.6175 40.776 48.4815 40.056C49.3615 39.32 49.8015 38.288 49.8015 36.96C49.8015 35.616 49.3615 34.576 48.4815 33.84C47.6175 33.104 46.3455 32.736 44.6655 32.736H39.4095L40.2015 31.896V42ZM54.753 48V35.4H56.385V38.832L56.217 38.232C56.569 37.272 57.161 36.544 57.993 36.048C58.825 35.536 59.857 35.28 61.089 35.28V36.936C61.025 36.936 60.961 36.936 60.897 36.936C60.833 36.92 60.769 36.912 60.705 36.912C59.377 36.912 58.337 37.32 57.585 38.136C56.833 38.936 56.457 40.08 56.457 41.568V48H54.753ZM69.2171 48.12C68.0011 48.12 66.9051 47.848 65.9291 47.304C64.9691 46.744 64.2091 45.984 63.6491 45.024C63.0891 44.048 62.8091 42.936 62.8091 41.688C62.8091 40.424 63.0891 39.312 63.6491 38.352C64.2091 37.392 64.9691 36.64 65.9291 36.096C66.8891 35.552 67.9851 35.28 69.2171 35.28C70.4651 35.28 71.5691 35.552 72.5291 36.096C73.5051 36.64 74.2651 37.392 74.8091 38.352C75.3691 39.312 75.6491 40.424 75.6491 41.688C75.6491 42.936 75.3691 44.048 74.8091 45.024C74.2651 45.984 73.5051 46.744 72.5291 47.304C71.5531 47.848 70.4491 48.12 69.2171 48.12ZM69.2171 46.608C70.1291 46.608 70.9371 46.408 71.6411 46.008C72.3451 45.592 72.8971 45.016 73.2971 44.28C73.7131 43.528 73.9211 42.664 73.9211 41.688C73.9211 40.696 73.7131 39.832 73.2971 39.096C72.8971 38.36 72.3451 37.792 71.6411 37.392C70.9371 36.976 70.1371 36.768 69.2411 36.768C68.3451 36.768 67.5451 36.976 66.8411 37.392C66.1371 37.792 65.5771 38.36 65.1611 39.096C64.7451 39.832 64.5371 40.696 64.5371 41.688C64.5371 42.664 64.7451 43.528 65.1611 44.28C65.5771 45.016 66.1371 45.592 66.8411 46.008C67.5451 46.408 68.3371 46.608 69.2171 46.608ZM84.504 52.776C83.352 52.776 82.248 52.608 81.192 52.272C80.136 51.936 79.28 51.456 78.624 50.832L79.488 49.536C80.08 50.064 80.808 50.48 81.672 50.784C82.552 51.104 83.48 51.264 84.456 51.264C86.056 51.264 87.232 50.888 87.984 50.136C88.736 49.4 89.112 48.248 89.112 46.68V43.536L89.352 41.376L89.184 39.216V35.4H90.816V46.464C90.816 48.64 90.28 50.232 89.208 51.24C88.152 52.264 86.584 52.776 84.504 52.776ZM84.192 47.52C82.992 47.52 81.912 47.264 80.952 46.752C79.992 46.224 79.232 45.496 78.672 44.568C78.128 43.64 77.856 42.576 77.856 41.376C77.856 40.176 78.128 39.12 78.672 38.208C79.232 37.28 79.992 36.56 80.952 36.048C81.912 35.536 82.992 35.28 84.192 35.28C85.312 35.28 86.32 35.512 87.216 35.976C88.112 36.44 88.824 37.128 89.352 38.04C89.88 38.952 90.144 40.064 90.144 41.376C90.144 42.688 89.88 43.8 89.352 44.712C88.824 45.624 88.112 46.32 87.216 46.8C86.32 47.28 85.312 47.52 84.192 47.52ZM84.36 46.008C85.288 46.008 86.112 45.816 86.832 45.432C87.552 45.032 88.12 44.488 88.536 43.8C88.952 43.096 89.16 42.288 89.16 41.376C89.16 40.464 88.952 39.664 88.536 38.976C88.12 38.288 87.552 37.752 86.832 37.368C86.112 36.968 85.288 36.768 84.36 36.768C83.448 36.768 82.624 36.968 81.888 37.368C81.168 37.752 80.6 38.288 80.184 38.976C79.784 39.664 79.584 40.464 79.584 41.376C79.584 42.288 79.784 43.096 80.184 43.8C80.6 44.488 81.168 45.032 81.888 45.432C82.624 45.816 83.448 46.008 84.36 46.008ZM95.5576 48V35.4H97.1896V38.832L97.0216 38.232C97.3736 37.272 97.9656 36.544 98.7976 36.048C99.6296 35.536 100.662 35.28 101.894 35.28V36.936C101.83 36.936 101.766 36.936 101.702 36.936C101.638 36.92 101.574 36.912 101.51 36.912C100.182 36.912 99.1416 37.32 98.3896 38.136C97.6376 38.936 97.2616 40.08 97.2616 41.568V48H95.5576ZM110.238 48.12C108.926 48.12 107.774 47.848 106.782 47.304C105.79 46.744 105.014 45.984 104.454 45.024C103.894 44.048 103.614 42.936 103.614 41.688C103.614 40.44 103.878 39.336 104.406 38.376C104.95 37.416 105.686 36.664 106.614 36.12C107.558 35.56 108.614 35.28 109.782 35.28C110.966 35.28 112.014 35.552 112.926 36.096C113.854 36.624 114.582 37.376 115.11 38.352C115.638 39.312 115.902 40.424 115.902 41.688C115.902 41.768 115.894 41.856 115.878 41.952C115.878 42.032 115.878 42.12 115.878 42.216H104.91V40.944H114.966L114.294 41.448C114.294 40.536 114.094 39.728 113.694 39.024C113.31 38.304 112.782 37.744 112.11 37.344C111.438 36.944 110.662 36.744 109.782 36.744C108.918 36.744 108.142 36.944 107.454 37.344C106.766 37.744 106.23 38.304 105.846 39.024C105.462 39.744 105.27 40.568 105.27 41.496V41.76C105.27 42.72 105.478 43.568 105.894 44.304C106.326 45.024 106.918 45.592 107.67 46.008C108.438 46.408 109.31 46.608 110.286 46.608C111.054 46.608 111.766 46.472 112.422 46.2C113.094 45.928 113.67 45.512 114.15 44.952L115.11 46.056C114.55 46.728 113.846 47.24 112.998 47.592C112.166 47.944 111.246 48.12 110.238 48.12ZM122.754 48.12C121.714 48.12 120.73 47.976 119.802 47.688C118.874 47.384 118.146 47.008 117.618 46.56L118.386 45.216C118.898 45.6 119.554 45.936 120.354 46.224C121.154 46.496 121.994 46.632 122.874 46.632C124.074 46.632 124.938 46.448 125.466 46.08C125.994 45.696 126.258 45.192 126.258 44.568C126.258 44.104 126.106 43.744 125.802 43.488C125.514 43.216 125.13 43.016 124.65 42.888C124.17 42.744 123.634 42.624 123.042 42.528C122.45 42.432 121.858 42.32 121.266 42.192C120.69 42.064 120.162 41.88 119.682 41.64C119.202 41.384 118.81 41.04 118.506 40.608C118.218 40.176 118.074 39.6 118.074 38.88C118.074 38.192 118.266 37.576 118.65 37.032C119.034 36.488 119.594 36.064 120.33 35.76C121.082 35.44 121.994 35.28 123.066 35.28C123.882 35.28 124.698 35.392 125.514 35.616C126.33 35.824 127.002 36.104 127.53 36.456L126.786 37.824C126.226 37.44 125.626 37.168 124.986 37.008C124.346 36.832 123.706 36.744 123.066 36.744C121.93 36.744 121.09 36.944 120.546 37.344C120.018 37.728 119.754 38.224 119.754 38.832C119.754 39.312 119.898 39.688 120.186 39.96C120.49 40.232 120.882 40.448 121.362 40.608C121.858 40.752 122.394 40.872 122.97 40.968C123.562 41.064 124.146 41.184 124.722 41.328C125.314 41.456 125.85 41.64 126.33 41.88C126.826 42.104 127.218 42.432 127.506 42.864C127.81 43.28 127.962 43.832 127.962 44.52C127.962 45.256 127.754 45.896 127.338 46.44C126.938 46.968 126.346 47.384 125.562 47.688C124.794 47.976 123.858 48.12 122.754 48.12ZM134.473 48.12C133.433 48.12 132.449 47.976 131.521 47.688C130.593 47.384 129.865 47.008 129.337 46.56L130.105 45.216C130.617 45.6 131.273 45.936 132.073 46.224C132.873 46.496 133.713 46.632 134.593 46.632C135.793 46.632 136.657 46.448 137.185 46.08C137.713 45.696 137.977 45.192 137.977 44.568C137.977 44.104 137.825 43.744 137.521 43.488C137.233 43.216 136.849 43.016 136.369 42.888C135.889 42.744 135.353 42.624 134.761 42.528C134.169 42.432 133.577 42.32 132.985 42.192C132.409 42.064 131.881 41.88 131.401 41.64C130.921 41.384 130.529 41.04 130.225 40.608C129.937 40.176 129.793 39.6 129.793 38.88C129.793 38.192 129.985 37.576 130.369 37.032C130.753 36.488 131.313 36.064 132.049 35.76C132.801 35.44 133.713 35.28 134.785 35.28C135.601 35.28 136.417 35.392 137.233 35.616C138.049 35.824 138.721 36.104 139.249 36.456L138.505 37.824C137.945 37.44 137.345 37.168 136.705 37.008C136.065 36.832 135.425 36.744 134.785 36.744C133.649 36.744 132.809 36.944 132.265 37.344C131.737 37.728 131.473 38.224 131.473 38.832C131.473 39.312 131.617 39.688 131.905 39.96C132.209 40.232 132.601 40.448 133.081 40.608C133.577 40.752 134.113 40.872 134.689 40.968C135.281 41.064 135.865 41.184 136.441 41.328C137.033 41.456 137.569 41.64 138.049 41.88C138.545 42.104 138.937 42.432 139.225 42.864C139.529 43.28 139.681 43.832 139.681 44.52C139.681 45.256 139.473 45.896 139.057 46.44C138.657 46.968 138.065 47.384 137.281 47.688C136.513 47.976 135.577 48.12 134.473 48.12ZM152.713 48V32.736H146.809V31.2H160.393V32.736H154.489V48H152.713ZM162.542 48V35.4H164.174V38.832L164.006 38.232C164.358 37.272 164.95 36.544 165.782 36.048C166.614 35.536 167.646 35.28 168.878 35.28V36.936C168.814 36.936 168.75 36.936 168.686 36.936C168.622 36.92 168.558 36.912 168.494 36.912C167.166 36.912 166.126 37.32 165.374 38.136C164.622 38.936 164.246 40.08 164.246 41.568V48H162.542ZM178.946 48V45.216L178.874 44.76V40.104C178.874 39.032 178.57 38.208 177.962 37.632C177.37 37.056 176.482 36.768 175.298 36.768C174.482 36.768 173.706 36.904 172.97 37.176C172.234 37.448 171.61 37.808 171.098 38.256L170.33 36.984C170.97 36.44 171.738 36.024 172.634 35.736C173.53 35.432 174.474 35.28 175.466 35.28C177.098 35.28 178.354 35.688 179.234 36.504C180.13 37.304 180.578 38.528 180.578 40.176V48H178.946ZM174.602 48.12C173.658 48.12 172.834 47.968 172.13 47.664C171.442 47.344 170.914 46.912 170.546 46.368C170.178 45.808 169.994 45.168 169.994 44.448C169.994 43.792 170.146 43.2 170.45 42.672C170.77 42.128 171.282 41.696 171.986 41.376C172.706 41.04 173.666 40.872 174.866 40.872H179.21V42.144H174.914C173.698 42.144 172.85 42.36 172.37 42.792C171.906 43.224 171.674 43.76 171.674 44.4C171.674 45.12 171.954 45.696 172.514 46.128C173.074 46.56 173.858 46.776 174.866 46.776C175.826 46.776 176.65 46.56 177.338 46.128C178.042 45.68 178.554 45.04 178.874 44.208L179.258 45.384C178.938 46.216 178.378 46.88 177.578 47.376C176.794 47.872 175.802 48.12 174.602 48.12ZM190.438 48.12C189.19 48.12 188.07 47.848 187.078 47.304C186.102 46.744 185.334 45.984 184.774 45.024C184.214 44.048 183.934 42.936 183.934 41.688C183.934 40.424 184.214 39.312 184.774 38.352C185.334 37.392 186.102 36.64 187.078 36.096C188.07 35.552 189.19 35.28 190.438 35.28C191.51 35.28 192.478 35.488 193.342 35.904C194.206 36.32 194.886 36.944 195.382 37.776L194.11 38.64C193.678 38 193.142 37.528 192.502 37.224C191.862 36.92 191.166 36.768 190.414 36.768C189.518 36.768 188.71 36.976 187.99 37.392C187.27 37.792 186.702 38.36 186.286 39.096C185.87 39.832 185.662 40.696 185.662 41.688C185.662 42.68 185.87 43.544 186.286 44.28C186.702 45.016 187.27 45.592 187.99 46.008C188.71 46.408 189.518 46.608 190.414 46.608C191.166 46.608 191.862 46.456 192.502 46.152C193.142 45.848 193.678 45.384 194.11 44.76L195.382 45.624C194.886 46.44 194.206 47.064 193.342 47.496C192.478 47.912 191.51 48.12 190.438 48.12ZM199.886 44.736L199.934 42.552L207.782 35.4H209.87L204.326 40.704L203.366 41.52L199.886 44.736ZM198.542 48V30.192H200.246V48H198.542ZM208.31 48L203.054 41.448L204.158 40.128L210.398 48H208.31ZM212.956 48V35.4H214.66V48H212.956ZM213.82 32.616C213.468 32.616 213.172 32.496 212.932 32.256C212.692 32.016 212.572 31.728 212.572 31.392C212.572 31.056 212.692 30.776 212.932 30.552C213.172 30.312 213.468 30.192 213.82 30.192C214.172 30.192 214.468 30.304 214.708 30.528C214.948 30.752 215.068 31.032 215.068 31.368C215.068 31.72 214.948 32.016 214.708 32.256C214.484 32.496 214.188 32.616 213.82 32.616ZM225.833 35.28C226.857 35.28 227.753 35.48 228.521 35.88C229.305 36.264 229.913 36.856 230.345 37.656C230.793 38.456 231.017 39.464 231.017 40.68V48H229.313V40.848C229.313 39.52 228.977 38.52 228.305 37.848C227.649 37.16 226.721 36.816 225.521 36.816C224.625 36.816 223.841 37 223.169 37.368C222.513 37.72 222.001 38.24 221.633 38.928C221.281 39.6 221.105 40.416 221.105 41.376V48H219.401V35.4H221.033V38.856L220.769 38.208C221.169 37.296 221.809 36.584 222.689 36.072C223.569 35.544 224.617 35.28 225.833 35.28ZM240.996 52.776C239.844 52.776 238.74 52.608 237.684 52.272C236.628 51.936 235.772 51.456 235.116 50.832L235.98 49.536C236.572 50.064 237.3 50.48 238.164 50.784C239.044 51.104 239.972 51.264 240.948 51.264C242.548 51.264 243.724 50.888 244.476 50.136C245.228 49.4 245.604 48.248 245.604 46.68V43.536L245.844 41.376L245.676 39.216V35.4H247.308V46.464C247.308 48.64 246.772 50.232 245.7 51.24C244.644 52.264 243.076 52.776 240.996 52.776ZM240.684 47.52C239.484 47.52 238.404 47.264 237.444 46.752C236.484 46.224 235.724 45.496 235.164 44.568C234.62 43.64 234.348 42.576 234.348 41.376C234.348 40.176 234.62 39.12 235.164 38.208C235.724 37.28 236.484 36.56 237.444 36.048C238.404 35.536 239.484 35.28 240.684 35.28C241.804 35.28 242.812 35.512 243.708 35.976C244.604 36.44 245.316 37.128 245.844 38.04C246.372 38.952 246.636 40.064 246.636 41.376C246.636 42.688 246.372 43.8 245.844 44.712C245.316 45.624 244.604 46.32 243.708 46.8C242.812 47.28 241.804 47.52 240.684 47.52ZM240.852 46.008C241.78 46.008 242.604 45.816 243.324 45.432C244.044 45.032 244.612 44.488 245.028 43.8C245.444 43.096 245.652 42.288 245.652 41.376C245.652 40.464 245.444 39.664 245.028 38.976C244.612 38.288 244.044 37.752 243.324 37.368C242.604 36.968 241.78 36.768 240.852 36.768C239.94 36.768 239.116 36.968 238.38 37.368C237.66 37.752 237.092 38.288 236.676 38.976C236.276 39.664 236.076 40.464 236.076 41.376C236.076 42.288 236.276 43.096 236.676 43.8C237.092 44.488 237.66 45.032 238.38 45.432C239.116 45.816 239.94 46.008 240.852 46.008Z" fill="black"/>
</svg>
