<svg width="345" height="78" viewBox="0 0 345 78" fill="none" xmlns="http://www.w3.org/2000/svg">
<path d="M0 0H345V78H0V0Z" fill="white"/>
<path d="M40.32 38.712H49.2V40.224H40.32V38.712ZM40.512 46.464H50.616V48H38.736V31.2H50.256V32.736H40.512V46.464ZM70.1747 35.28C71.1987 35.28 72.0867 35.48 72.8387 35.88C73.6067 36.264 74.1987 36.856 74.6147 37.656C75.0467 38.456 75.2627 39.464 75.2627 40.68V48H73.5587V40.848C73.5587 39.52 73.2387 38.52 72.5987 37.848C71.9747 37.16 71.0867 36.816 69.9347 36.816C69.0707 36.816 68.3187 37 67.6787 37.368C67.0547 37.72 66.5667 38.24 66.2147 38.928C65.8787 39.6 65.7107 40.416 65.7107 41.376V48H64.0067V40.848C64.0067 39.52 63.6867 38.52 63.0467 37.848C62.4067 37.16 61.5107 36.816 60.3587 36.816C59.5107 36.816 58.7667 37 58.1267 37.368C57.4867 37.72 56.9907 38.24 56.6387 38.928C56.3027 39.6 56.1347 40.416 56.1347 41.376V48H54.4307V35.4H56.0627V38.808L55.7987 38.208C56.1827 37.296 56.7987 36.584 57.6467 36.072C58.5107 35.544 59.5267 35.28 60.6947 35.28C61.9267 35.28 62.9747 35.592 63.8387 36.216C64.7027 36.824 65.2627 37.744 65.5187 38.976L64.8467 38.712C65.2147 37.688 65.8627 36.864 66.7907 36.24C67.7347 35.6 68.8627 35.28 70.1747 35.28ZM86.3878 48.12C85.2998 48.12 84.3158 47.872 83.4358 47.376C82.5558 46.864 81.8518 46.136 81.3238 45.192C80.8118 44.232 80.5558 43.064 80.5558 41.688C80.5558 40.312 80.8118 39.152 81.3238 38.208C81.8358 37.248 82.5318 36.52 83.4118 36.024C84.2918 35.528 85.2838 35.28 86.3878 35.28C87.5878 35.28 88.6598 35.552 89.6038 36.096C90.5638 36.624 91.3158 37.376 91.8598 38.352C92.4038 39.312 92.6758 40.424 92.6758 41.688C92.6758 42.968 92.4038 44.088 91.8598 45.048C91.3158 46.008 90.5638 46.76 89.6038 47.304C88.6598 47.848 87.5878 48.12 86.3878 48.12ZM79.8838 52.656V35.4H81.5158V39.192L81.3478 41.712L81.5878 44.256V52.656H79.8838ZM86.2678 46.608C87.1638 46.608 87.9638 46.408 88.6678 46.008C89.3718 45.592 89.9318 45.016 90.3478 44.28C90.7638 43.528 90.9718 42.664 90.9718 41.688C90.9718 40.712 90.7638 39.856 90.3478 39.12C89.9318 38.384 89.3718 37.808 88.6678 37.392C87.9638 36.976 87.1638 36.768 86.2678 36.768C85.3718 36.768 84.5638 36.976 83.8438 37.392C83.1398 37.808 82.5798 38.384 82.1638 39.12C81.7638 39.856 81.5638 40.712 81.5638 41.688C81.5638 42.664 81.7638 43.528 82.1638 44.28C82.5798 45.016 83.1398 45.592 83.8438 46.008C84.5638 46.408 85.3718 46.608 86.2678 46.608ZM96.1494 48V30.192H97.8534V48H96.1494ZM107.731 48.12C106.515 48.12 105.419 47.848 104.443 47.304C103.483 46.744 102.723 45.984 102.163 45.024C101.603 44.048 101.323 42.936 101.323 41.688C101.323 40.424 101.603 39.312 102.163 38.352C102.723 37.392 103.483 36.64 104.443 36.096C105.403 35.552 106.499 35.28 107.731 35.28C108.979 35.28 110.083 35.552 111.043 36.096C112.019 36.64 112.779 37.392 113.323 38.352C113.883 39.312 114.163 40.424 114.163 41.688C114.163 42.936 113.883 44.048 113.323 45.024C112.779 45.984 112.019 46.744 111.043 47.304C110.067 47.848 108.963 48.12 107.731 48.12ZM107.731 46.608C108.643 46.608 109.451 46.408 110.155 46.008C110.859 45.592 111.411 45.016 111.811 44.28C112.227 43.528 112.435 42.664 112.435 41.688C112.435 40.696 112.227 39.832 111.811 39.096C111.411 38.36 110.859 37.792 110.155 37.392C109.451 36.976 108.651 36.768 107.755 36.768C106.859 36.768 106.059 36.976 105.355 37.392C104.651 37.792 104.091 38.36 103.675 39.096C103.259 39.832 103.051 40.696 103.051 41.688C103.051 42.664 103.259 43.528 103.675 44.28C104.091 45.016 104.651 45.592 105.355 46.008C106.059 46.408 106.851 46.608 107.731 46.608ZM117.386 52.776C116.794 52.776 116.226 52.68 115.682 52.488C115.154 52.296 114.698 52.008 114.314 51.624L115.106 50.352C115.426 50.656 115.77 50.888 116.138 51.048C116.522 51.224 116.946 51.312 117.41 51.312C117.97 51.312 118.45 51.152 118.85 50.832C119.266 50.528 119.658 49.984 120.026 49.2L120.842 47.352L121.034 47.088L126.218 35.4H127.898L121.586 49.512C121.234 50.328 120.842 50.976 120.41 51.456C119.994 51.936 119.538 52.272 119.042 52.464C118.546 52.672 117.994 52.776 117.386 52.776ZM120.746 48.36L114.938 35.4H116.714L121.85 46.968L120.746 48.36ZM135.298 48.12C133.986 48.12 132.834 47.848 131.842 47.304C130.85 46.744 130.074 45.984 129.514 45.024C128.954 44.048 128.674 42.936 128.674 41.688C128.674 40.44 128.938 39.336 129.466 38.376C130.01 37.416 130.746 36.664 131.674 36.12C132.618 35.56 133.674 35.28 134.842 35.28C136.026 35.28 137.074 35.552 137.986 36.096C138.914 36.624 139.642 37.376 140.17 38.352C140.698 39.312 140.962 40.424 140.962 41.688C140.962 41.768 140.954 41.856 140.938 41.952C140.938 42.032 140.938 42.12 140.938 42.216H129.97V40.944H140.026L139.354 41.448C139.354 40.536 139.154 39.728 138.754 39.024C138.37 38.304 137.842 37.744 137.17 37.344C136.498 36.944 135.722 36.744 134.842 36.744C133.978 36.744 133.202 36.944 132.514 37.344C131.826 37.744 131.29 38.304 130.906 39.024C130.522 39.744 130.33 40.568 130.33 41.496V41.76C130.33 42.72 130.538 43.568 130.954 44.304C131.386 45.024 131.978 45.592 132.73 46.008C133.498 46.408 134.37 46.608 135.346 46.608C136.114 46.608 136.826 46.472 137.482 46.2C138.154 45.928 138.73 45.512 139.21 44.952L140.17 46.056C139.61 46.728 138.906 47.24 138.058 47.592C137.226 47.944 136.306 48.12 135.298 48.12ZM149.783 48.12C148.471 48.12 147.319 47.848 146.327 47.304C145.335 46.744 144.559 45.984 143.999 45.024C143.439 44.048 143.159 42.936 143.159 41.688C143.159 40.44 143.423 39.336 143.951 38.376C144.495 37.416 145.231 36.664 146.159 36.12C147.103 35.56 148.159 35.28 149.327 35.28C150.511 35.28 151.559 35.552 152.471 36.096C153.399 36.624 154.127 37.376 154.655 38.352C155.183 39.312 155.447 40.424 155.447 41.688C155.447 41.768 155.439 41.856 155.423 41.952C155.423 42.032 155.423 42.12 155.423 42.216H144.455V40.944H154.511L153.839 41.448C153.839 40.536 153.639 39.728 153.239 39.024C152.855 38.304 152.327 37.744 151.655 37.344C150.983 36.944 150.207 36.744 149.327 36.744C148.463 36.744 147.687 36.944 146.999 37.344C146.311 37.744 145.775 38.304 145.391 39.024C145.007 39.744 144.815 40.568 144.815 41.496V41.76C144.815 42.72 145.023 43.568 145.439 44.304C145.871 45.024 146.463 45.592 147.215 46.008C147.983 46.408 148.855 46.608 149.831 46.608C150.599 46.608 151.311 46.472 151.967 46.2C152.639 45.928 153.215 45.512 153.695 44.952L154.655 46.056C154.095 46.728 153.391 47.24 152.543 47.592C151.711 47.944 150.791 48.12 149.783 48.12ZM162.299 48.12C161.259 48.12 160.275 47.976 159.347 47.688C158.419 47.384 157.691 47.008 157.163 46.56L157.931 45.216C158.443 45.6 159.099 45.936 159.899 46.224C160.699 46.496 161.539 46.632 162.419 46.632C163.619 46.632 164.483 46.448 165.011 46.08C165.539 45.696 165.803 45.192 165.803 44.568C165.803 44.104 165.651 43.744 165.347 43.488C165.059 43.216 164.675 43.016 164.195 42.888C163.715 42.744 163.179 42.624 162.587 42.528C161.995 42.432 161.403 42.32 160.811 42.192C160.235 42.064 159.707 41.88 159.227 41.64C158.747 41.384 158.355 41.04 158.051 40.608C157.763 40.176 157.619 39.6 157.619 38.88C157.619 38.192 157.811 37.576 158.195 37.032C158.579 36.488 159.139 36.064 159.875 35.76C160.627 35.44 161.539 35.28 162.611 35.28C163.427 35.28 164.243 35.392 165.059 35.616C165.875 35.824 166.547 36.104 167.075 36.456L166.331 37.824C165.771 37.44 165.171 37.168 164.531 37.008C163.891 36.832 163.251 36.744 162.611 36.744C161.475 36.744 160.635 36.944 160.091 37.344C159.563 37.728 159.299 38.224 159.299 38.832C159.299 39.312 159.443 39.688 159.731 39.96C160.035 40.232 160.427 40.448 160.907 40.608C161.403 40.752 161.939 40.872 162.515 40.968C163.107 41.064 163.691 41.184 164.267 41.328C164.859 41.456 165.395 41.64 165.875 41.88C166.371 42.104 166.763 42.432 167.051 42.864C167.355 43.28 167.507 43.832 167.507 44.52C167.507 45.256 167.299 45.896 166.883 46.44C166.483 46.968 165.891 47.384 165.107 47.688C164.339 47.976 163.403 48.12 162.299 48.12ZM184.043 48.144C181.899 48.144 180.211 47.528 178.979 46.296C177.747 45.064 177.131 43.24 177.131 40.824V31.2H178.907V40.752C178.907 42.736 179.355 44.2 180.251 45.144C181.147 46.088 182.411 46.56 184.043 46.56C185.691 46.56 186.963 46.088 187.859 45.144C188.755 44.2 189.203 42.736 189.203 40.752V31.2H190.931V40.824C190.931 43.24 190.315 45.064 189.083 46.296C187.867 47.528 186.187 48.144 184.043 48.144ZM202.355 35.28C203.379 35.28 204.275 35.48 205.043 35.88C205.827 36.264 206.435 36.856 206.867 37.656C207.315 38.456 207.539 39.464 207.539 40.68V48H205.835V40.848C205.835 39.52 205.499 38.52 204.827 37.848C204.171 37.16 203.243 36.816 202.043 36.816C201.147 36.816 200.363 37 199.691 37.368C199.035 37.72 198.523 38.24 198.155 38.928C197.803 39.6 197.627 40.416 197.627 41.376V48H195.923V35.4H197.555V38.856L197.291 38.208C197.691 37.296 198.331 36.584 199.211 36.072C200.091 35.544 201.139 35.28 202.355 35.28ZM217.158 48.12C215.958 48.12 214.878 47.848 213.918 47.304C212.974 46.76 212.23 46.008 211.686 45.048C211.142 44.072 210.87 42.952 210.87 41.688C210.87 40.408 211.142 39.288 211.686 38.328C212.23 37.368 212.974 36.624 213.918 36.096C214.878 35.552 215.958 35.28 217.158 35.28C218.262 35.28 219.246 35.528 220.11 36.024C220.99 36.52 221.686 37.248 222.198 38.208C222.726 39.152 222.99 40.312 222.99 41.688C222.99 43.048 222.734 44.208 222.222 45.168C221.71 46.128 221.014 46.864 220.134 47.376C219.27 47.872 218.278 48.12 217.158 48.12ZM217.278 46.608C218.174 46.608 218.974 46.408 219.678 46.008C220.398 45.592 220.958 45.016 221.358 44.28C221.774 43.528 221.982 42.664 221.982 41.688C221.982 40.696 221.774 39.832 221.358 39.096C220.958 38.36 220.398 37.792 219.678 37.392C218.974 36.976 218.174 36.768 217.278 36.768C216.398 36.768 215.606 36.976 214.902 37.392C214.198 37.792 213.638 38.36 213.222 39.096C212.806 39.832 212.598 40.696 212.598 41.688C212.598 42.664 212.806 43.528 213.222 44.28C213.638 45.016 214.198 45.592 214.902 46.008C215.606 46.408 216.398 46.608 217.278 46.608ZM222.03 48V44.208L222.198 41.664L221.958 39.12V30.192H223.662V48H222.03ZM233.759 48.12C232.447 48.12 231.295 47.848 230.303 47.304C229.311 46.744 228.535 45.984 227.975 45.024C227.415 44.048 227.135 42.936 227.135 41.688C227.135 40.44 227.399 39.336 227.927 38.376C228.471 37.416 229.207 36.664 230.135 36.12C231.079 35.56 232.135 35.28 233.303 35.28C234.487 35.28 235.535 35.552 236.447 36.096C237.375 36.624 238.103 37.376 238.631 38.352C239.159 39.312 239.423 40.424 239.423 41.688C239.423 41.768 239.415 41.856 239.399 41.952C239.399 42.032 239.399 42.12 239.399 42.216H228.431V40.944H238.487L237.815 41.448C237.815 40.536 237.615 39.728 237.215 39.024C236.831 38.304 236.303 37.744 235.631 37.344C234.959 36.944 234.183 36.744 233.303 36.744C232.439 36.744 231.663 36.944 230.975 37.344C230.287 37.744 229.751 38.304 229.367 39.024C228.983 39.744 228.791 40.568 228.791 41.496V41.76C228.791 42.72 228.999 43.568 229.415 44.304C229.847 45.024 230.439 45.592 231.191 46.008C231.959 46.408 232.831 46.608 233.807 46.608C234.575 46.608 235.287 46.472 235.943 46.2C236.615 45.928 237.191 45.512 237.671 44.952L238.631 46.056C238.071 46.728 237.367 47.24 236.519 47.592C235.687 47.944 234.767 48.12 233.759 48.12ZM242.892 48V35.4H244.524V38.832L244.356 38.232C244.708 37.272 245.3 36.544 246.132 36.048C246.964 35.536 247.996 35.28 249.228 35.28V36.936C249.164 36.936 249.1 36.936 249.036 36.936C248.972 36.92 248.908 36.912 248.844 36.912C247.516 36.912 246.476 37.32 245.724 38.136C244.972 38.936 244.596 40.08 244.596 41.568V48H242.892ZM263.174 48V41.76L263.582 42.864L256.454 31.2H258.35L264.614 41.448H263.606L269.87 31.2H271.646L264.518 42.864L264.926 41.76V48H263.174ZM277.746 48.12C276.53 48.12 275.434 47.848 274.458 47.304C273.498 46.744 272.738 45.984 272.178 45.024C271.618 44.048 271.338 42.936 271.338 41.688C271.338 40.424 271.618 39.312 272.178 38.352C272.738 37.392 273.498 36.64 274.458 36.096C275.418 35.552 276.514 35.28 277.746 35.28C278.994 35.28 280.098 35.552 281.058 36.096C282.034 36.64 282.794 37.392 283.338 38.352C283.898 39.312 284.178 40.424 284.178 41.688C284.178 42.936 283.898 44.048 283.338 45.024C282.794 45.984 282.034 46.744 281.058 47.304C280.082 47.848 278.978 48.12 277.746 48.12ZM277.746 46.608C278.658 46.608 279.466 46.408 280.17 46.008C280.874 45.592 281.426 45.016 281.826 44.28C282.242 43.528 282.45 42.664 282.45 41.688C282.45 40.696 282.242 39.832 281.826 39.096C281.426 38.36 280.874 37.792 280.17 37.392C279.466 36.976 278.666 36.768 277.77 36.768C276.874 36.768 276.074 36.976 275.37 37.392C274.666 37.792 274.106 38.36 273.69 39.096C273.274 39.832 273.066 40.696 273.066 41.688C273.066 42.664 273.274 43.528 273.69 44.28C274.106 45.016 274.666 45.592 275.37 46.008C276.074 46.408 276.866 46.608 277.746 46.608ZM292.865 48.12C291.793 48.12 290.857 47.92 290.057 47.52C289.257 47.12 288.633 46.52 288.185 45.72C287.753 44.92 287.537 43.92 287.537 42.72V35.4H289.241V42.528C289.241 43.872 289.569 44.888 290.225 45.576C290.897 46.248 291.833 46.584 293.033 46.584C293.913 46.584 294.673 46.408 295.313 46.056C295.969 45.688 296.465 45.16 296.801 44.472C297.153 43.784 297.329 42.96 297.329 42V35.4H299.033V48H297.401V44.544L297.665 45.168C297.265 46.096 296.641 46.824 295.793 47.352C294.961 47.864 293.985 48.12 292.865 48.12Z" fill="black"/>
</svg>
