<svg width="229" height="275" viewBox="0 0 229 275" fill="none" xmlns="http://www.w3.org/2000/svg">
<rect y="4" width="229" height="271" rx="20" fill="#FFE6E2"/>
<path d="M18.052 170V157.4H19.384V168.848H26.44V170H18.052ZM32.093 170.09C31.181 170.09 30.359 169.886 29.627 169.478C28.907 169.058 28.337 168.488 27.917 167.768C27.497 167.036 27.287 166.202 27.287 165.266C27.287 164.318 27.497 163.484 27.917 162.764C28.337 162.044 28.907 161.48 29.627 161.072C30.347 160.664 31.169 160.46 32.093 160.46C33.029 160.46 33.857 160.664 34.577 161.072C35.309 161.48 35.879 162.044 36.287 162.764C36.707 163.484 36.917 164.318 36.917 165.266C36.917 166.202 36.707 167.036 36.287 167.768C35.879 168.488 35.309 169.058 34.577 169.478C33.845 169.886 33.017 170.09 32.093 170.09ZM32.093 168.956C32.777 168.956 33.383 168.806 33.911 168.506C34.439 168.194 34.853 167.762 35.153 167.21C35.465 166.646 35.621 165.998 35.621 165.266C35.621 164.522 35.465 163.874 35.153 163.322C34.853 162.77 34.439 162.344 33.911 162.044C33.383 161.732 32.783 161.576 32.111 161.576C31.439 161.576 30.839 161.732 30.311 162.044C29.783 162.344 29.363 162.77 29.051 163.322C28.739 163.874 28.583 164.522 28.583 165.266C28.583 165.998 28.739 166.646 29.051 167.21C29.363 167.762 29.783 168.194 30.311 168.506C30.839 168.806 31.433 168.956 32.093 168.956ZM39.5261 170V160.55H40.7501V163.124L40.6241 162.674C40.8881 161.954 41.3321 161.408 41.9561 161.036C42.5801 160.652 43.3541 160.46 44.2781 160.46V161.702C44.2301 161.702 44.1821 161.702 44.1341 161.702C44.0861 161.69 44.0381 161.684 43.9901 161.684C42.9941 161.684 42.2141 161.99 41.6501 162.602C41.0861 163.202 40.8041 164.06 40.8041 165.176V170H39.5261ZM50.5362 170.09C49.5522 170.09 48.6882 169.886 47.9442 169.478C47.2002 169.058 46.6182 168.488 46.1982 167.768C45.7782 167.036 45.5682 166.202 45.5682 165.266C45.5682 164.33 45.7662 163.502 46.1622 162.782C46.5702 162.062 47.1222 161.498 47.8182 161.09C48.5262 160.67 49.3182 160.46 50.1942 160.46C51.0822 160.46 51.8682 160.664 52.5522 161.072C53.2482 161.468 53.7942 162.032 54.1902 162.764C54.5862 163.484 54.7842 164.318 54.7842 165.266C54.7842 165.326 54.7782 165.392 54.7662 165.464C54.7662 165.524 54.7662 165.59 54.7662 165.662H46.5402V164.708H54.0822L53.5782 165.086C53.5782 164.402 53.4282 163.796 53.1282 163.268C52.8402 162.728 52.4442 162.308 51.9402 162.008C51.4362 161.708 50.8542 161.558 50.1942 161.558C49.5462 161.558 48.9642 161.708 48.4482 162.008C47.9322 162.308 47.5302 162.728 47.2422 163.268C46.9542 163.808 46.8102 164.426 46.8102 165.122V165.32C46.8102 166.04 46.9662 166.676 47.2782 167.228C47.6022 167.768 48.0462 168.194 48.6102 168.506C49.1862 168.806 49.8402 168.956 50.5722 168.956C51.1482 168.956 51.6822 168.854 52.1742 168.65C52.6782 168.446 53.1102 168.134 53.4702 167.714L54.1902 168.542C53.7702 169.046 53.2422 169.43 52.6062 169.694C51.9822 169.958 51.2922 170.09 50.5362 170.09ZM69.1935 160.46C69.9615 160.46 70.6275 160.61 71.1915 160.91C71.7675 161.198 72.2115 161.642 72.5235 162.242C72.8475 162.842 73.0095 163.598 73.0095 164.51V170H71.7315V164.636C71.7315 163.64 71.4915 162.89 71.0115 162.386C70.5435 161.87 69.8775 161.612 69.0135 161.612C68.3655 161.612 67.8015 161.75 67.3215 162.026C66.8535 162.29 66.4875 162.68 66.2235 163.196C65.9715 163.7 65.8455 164.312 65.8455 165.032V170H64.5675V164.636C64.5675 163.64 64.3275 162.89 63.8475 162.386C63.3675 161.87 62.6955 161.612 61.8315 161.612C61.1955 161.612 60.6375 161.75 60.1575 162.026C59.6775 162.29 59.3055 162.68 59.0415 163.196C58.7895 163.7 58.6635 164.312 58.6635 165.032V170H57.3855V160.55H58.6095V163.106L58.4115 162.656C58.6995 161.972 59.1615 161.438 59.7975 161.054C60.4455 160.658 61.2075 160.46 62.0835 160.46C63.0075 160.46 63.7935 160.694 64.4415 161.162C65.0895 161.618 65.5095 162.308 65.7015 163.232L65.1975 163.034C65.4735 162.266 65.9595 161.648 66.6555 161.18C67.3635 160.7 68.2095 160.46 69.1935 160.46ZM81.1863 170V160.55H82.4643V170H81.1863ZM81.8343 158.462C81.5703 158.462 81.3483 158.372 81.1683 158.192C80.9883 158.012 80.8983 157.796 80.8983 157.544C80.8983 157.292 80.9883 157.082 81.1683 156.914C81.3483 156.734 81.5703 156.644 81.8343 156.644C82.0983 156.644 82.3203 156.728 82.5003 156.896C82.6803 157.064 82.7703 157.274 82.7703 157.526C82.7703 157.79 82.6803 158.012 82.5003 158.192C82.3323 158.372 82.1103 158.462 81.8343 158.462ZM90.8983 170.09C90.0823 170.09 89.3443 169.904 88.6843 169.532C88.0243 169.148 87.4963 168.602 87.1003 167.894C86.7163 167.174 86.5243 166.298 86.5243 165.266C86.5243 164.234 86.7163 163.364 87.1003 162.656C87.4843 161.936 88.0063 161.39 88.6663 161.018C89.3263 160.646 90.0703 160.46 90.8983 160.46C91.7983 160.46 92.6023 160.664 93.3103 161.072C94.0303 161.468 94.5943 162.032 95.0023 162.764C95.4103 163.484 95.6143 164.318 95.6143 165.266C95.6143 166.226 95.4103 167.066 95.0023 167.786C94.5943 168.506 94.0303 169.07 93.3103 169.478C92.6023 169.886 91.7983 170.09 90.8983 170.09ZM86.0203 173.492V160.55H87.2443V163.394L87.1183 165.284L87.2983 167.192V173.492H86.0203ZM90.8083 168.956C91.4803 168.956 92.0803 168.806 92.6083 168.506C93.1363 168.194 93.5563 167.762 93.8683 167.21C94.1803 166.646 94.3363 165.998 94.3363 165.266C94.3363 164.534 94.1803 163.892 93.8683 163.34C93.5563 162.788 93.1363 162.356 92.6083 162.044C92.0803 161.732 91.4803 161.576 90.8083 161.576C90.1363 161.576 89.5303 161.732 88.9903 162.044C88.4623 162.356 88.0423 162.788 87.7303 163.34C87.4303 163.892 87.2803 164.534 87.2803 165.266C87.2803 165.998 87.4303 166.646 87.7303 167.21C88.0423 167.762 88.4623 168.194 88.9903 168.506C89.5303 168.806 90.1363 168.956 90.8083 168.956ZM100.758 170.09C99.9775 170.09 99.2395 169.982 98.5435 169.766C97.8475 169.538 97.3015 169.256 96.9055 168.92L97.4815 167.912C97.8655 168.2 98.3575 168.452 98.9575 168.668C99.5575 168.872 100.188 168.974 100.848 168.974C101.748 168.974 102.396 168.836 102.792 168.56C103.188 168.272 103.386 167.894 103.386 167.426C103.386 167.078 103.272 166.808 103.044 166.616C102.828 166.412 102.54 166.262 102.18 166.166C101.82 166.058 101.418 165.968 100.974 165.896C100.53 165.824 100.086 165.74 99.6415 165.644C99.2095 165.548 98.8135 165.41 98.4535 165.23C98.0935 165.038 97.7995 164.78 97.5715 164.456C97.3555 164.132 97.2475 163.7 97.2475 163.16C97.2475 162.644 97.3915 162.182 97.6795 161.774C97.9675 161.366 98.3875 161.048 98.9395 160.82C99.5035 160.58 100.188 160.46 100.992 160.46C101.604 160.46 102.216 160.544 102.828 160.712C103.44 160.868 103.944 161.078 104.34 161.342L103.782 162.368C103.362 162.08 102.912 161.876 102.432 161.756C101.952 161.624 101.472 161.558 100.992 161.558C100.14 161.558 99.5095 161.708 99.1015 162.008C98.7055 162.296 98.5075 162.668 98.5075 163.124C98.5075 163.484 98.6155 163.766 98.8315 163.97C99.0595 164.174 99.3535 164.336 99.7135 164.456C100.086 164.564 100.488 164.654 100.92 164.726C101.364 164.798 101.802 164.888 102.234 164.996C102.678 165.092 103.08 165.23 103.44 165.41C103.812 165.578 104.106 165.824 104.322 166.148C104.55 166.46 104.664 166.874 104.664 167.39C104.664 167.942 104.508 168.422 104.196 168.83C103.896 169.226 103.452 169.538 102.864 169.766C102.288 169.982 101.586 170.09 100.758 170.09ZM110.915 170.09C110.111 170.09 109.409 169.94 108.809 169.64C108.209 169.34 107.741 168.89 107.405 168.29C107.081 167.69 106.919 166.94 106.919 166.04V160.55H108.197V165.896C108.197 166.904 108.443 167.666 108.935 168.182C109.439 168.686 110.141 168.938 111.041 168.938C111.701 168.938 112.271 168.806 112.751 168.542C113.243 168.266 113.615 167.87 113.867 167.354C114.131 166.838 114.263 166.22 114.263 165.5V160.55H115.541V170H114.317V167.408L114.515 167.876C114.215 168.572 113.747 169.118 113.111 169.514C112.487 169.898 111.755 170.09 110.915 170.09ZM130.91 160.46C131.678 160.46 132.344 160.61 132.908 160.91C133.484 161.198 133.928 161.642 134.24 162.242C134.564 162.842 134.726 163.598 134.726 164.51V170H133.448V164.636C133.448 163.64 133.208 162.89 132.728 162.386C132.26 161.87 131.594 161.612 130.73 161.612C130.082 161.612 129.518 161.75 129.038 162.026C128.57 162.29 128.204 162.68 127.94 163.196C127.688 163.7 127.562 164.312 127.562 165.032V170H126.284V164.636C126.284 163.64 126.044 162.89 125.564 162.386C125.084 161.87 124.412 161.612 123.548 161.612C122.912 161.612 122.354 161.75 121.874 162.026C121.394 162.29 121.022 162.68 120.758 163.196C120.506 163.7 120.38 164.312 120.38 165.032V170H119.102V160.55H120.326V163.106L120.128 162.656C120.416 161.972 120.878 161.438 121.514 161.054C122.162 160.658 122.924 160.46 123.8 160.46C124.724 160.46 125.51 160.694 126.158 161.162C126.806 161.618 127.226 162.308 127.418 163.232L126.914 163.034C127.19 162.266 127.676 161.648 128.372 161.18C129.08 160.7 129.926 160.46 130.91 160.46ZM146.665 170.09C145.765 170.09 144.955 169.886 144.235 169.478C143.527 169.07 142.969 168.506 142.561 167.786C142.153 167.054 141.949 166.214 141.949 165.266C141.949 164.306 142.153 163.466 142.561 162.746C142.969 162.026 143.527 161.468 144.235 161.072C144.955 160.664 145.765 160.46 146.665 160.46C147.493 160.46 148.231 160.646 148.879 161.018C149.539 161.39 150.061 161.936 150.445 162.656C150.841 163.364 151.039 164.234 151.039 165.266C151.039 166.286 150.847 167.156 150.463 167.876C150.079 168.596 149.557 169.148 148.897 169.532C148.249 169.904 147.505 170.09 146.665 170.09ZM146.755 168.956C147.427 168.956 148.027 168.806 148.555 168.506C149.095 168.194 149.515 167.762 149.815 167.21C150.127 166.646 150.283 165.998 150.283 165.266C150.283 164.522 150.127 163.874 149.815 163.322C149.515 162.77 149.095 162.344 148.555 162.044C148.027 161.732 147.427 161.576 146.755 161.576C146.095 161.576 145.501 161.732 144.973 162.044C144.445 162.344 144.025 162.77 143.713 163.322C143.401 163.874 143.245 164.522 143.245 165.266C143.245 165.998 143.401 166.646 143.713 167.21C144.025 167.762 144.445 168.194 144.973 168.506C145.501 168.806 146.095 168.956 146.755 168.956ZM150.319 170V167.156L150.445 165.248L150.265 163.34V156.644H151.543V170H150.319ZM158.954 170.09C158.042 170.09 157.22 169.886 156.488 169.478C155.768 169.058 155.198 168.488 154.778 167.768C154.358 167.036 154.148 166.202 154.148 165.266C154.148 164.318 154.358 163.484 154.778 162.764C155.198 162.044 155.768 161.48 156.488 161.072C157.208 160.664 158.03 160.46 158.954 160.46C159.89 160.46 160.718 160.664 161.438 161.072C162.17 161.48 162.74 162.044 163.148 162.764C163.568 163.484 163.778 164.318 163.778 165.266C163.778 166.202 163.568 167.036 163.148 167.768C162.74 168.488 162.17 169.058 161.438 169.478C160.706 169.886 159.878 170.09 158.954 170.09ZM158.954 168.956C159.638 168.956 160.244 168.806 160.772 168.506C161.3 168.194 161.714 167.762 162.014 167.21C162.326 166.646 162.482 165.998 162.482 165.266C162.482 164.522 162.326 163.874 162.014 163.322C161.714 162.77 161.3 162.344 160.772 162.044C160.244 161.732 159.644 161.576 158.972 161.576C158.3 161.576 157.7 161.732 157.172 162.044C156.644 162.344 156.224 162.77 155.912 163.322C155.6 163.874 155.444 164.522 155.444 165.266C155.444 165.998 155.6 166.646 155.912 167.21C156.224 167.762 156.644 168.194 157.172 168.506C157.7 168.806 158.294 168.956 158.954 168.956ZM166.387 170V156.644H167.665V170H166.387ZM175.073 170.09C174.161 170.09 173.339 169.886 172.607 169.478C171.887 169.058 171.317 168.488 170.897 167.768C170.477 167.036 170.267 166.202 170.267 165.266C170.267 164.318 170.477 163.484 170.897 162.764C171.317 162.044 171.887 161.48 172.607 161.072C173.327 160.664 174.149 160.46 175.073 160.46C176.009 160.46 176.837 160.664 177.557 161.072C178.289 161.48 178.859 162.044 179.267 162.764C179.687 163.484 179.897 164.318 179.897 165.266C179.897 166.202 179.687 167.036 179.267 167.768C178.859 168.488 178.289 169.058 177.557 169.478C176.825 169.886 175.997 170.09 175.073 170.09ZM175.073 168.956C175.757 168.956 176.363 168.806 176.891 168.506C177.419 168.194 177.833 167.762 178.133 167.21C178.445 166.646 178.601 165.998 178.601 165.266C178.601 164.522 178.445 163.874 178.133 163.322C177.833 162.77 177.419 162.344 176.891 162.044C176.363 161.732 175.763 161.576 175.091 161.576C174.419 161.576 173.819 161.732 173.291 162.044C172.763 162.344 172.343 162.77 172.031 163.322C171.719 163.874 171.563 164.522 171.563 165.266C171.563 165.998 171.719 166.646 172.031 167.21C172.343 167.762 172.763 168.194 173.291 168.506C173.819 168.806 174.413 168.956 175.073 168.956ZM182.507 170V160.55H183.731V163.124L183.605 162.674C183.869 161.954 184.313 161.408 184.937 161.036C185.561 160.652 186.335 160.46 187.259 160.46V161.702C187.211 161.702 187.163 161.702 187.115 161.702C187.067 161.69 187.019 161.684 186.971 161.684C185.975 161.684 185.195 161.99 184.631 162.602C184.067 163.202 183.785 164.06 183.785 165.176V170H182.507ZM20.32 192.09C19.54 192.09 18.802 191.982 18.106 191.766C17.41 191.538 16.864 191.256 16.468 190.92L17.044 189.912C17.428 190.2 17.92 190.452 18.52 190.668C19.12 190.872 19.75 190.974 20.41 190.974C21.31 190.974 21.958 190.836 22.354 190.56C22.75 190.272 22.948 189.894 22.948 189.426C22.948 189.078 22.834 188.808 22.606 188.616C22.39 188.412 22.102 188.262 21.742 188.166C21.382 188.058 20.98 187.968 20.536 187.896C20.092 187.824 19.648 187.74 19.204 187.644C18.772 187.548 18.376 187.41 18.016 187.23C17.656 187.038 17.362 186.78 17.134 186.456C16.918 186.132 16.81 185.7 16.81 185.16C16.81 184.644 16.954 184.182 17.242 183.774C17.53 183.366 17.95 183.048 18.502 182.82C19.066 182.58 19.75 182.46 20.554 182.46C21.166 182.46 21.778 182.544 22.39 182.712C23.002 182.868 23.506 183.078 23.902 183.342L23.344 184.368C22.924 184.08 22.474 183.876 21.994 183.756C21.514 183.624 21.034 183.558 20.554 183.558C19.702 183.558 19.072 183.708 18.664 184.008C18.268 184.296 18.07 184.668 18.07 185.124C18.07 185.484 18.178 185.766 18.394 185.97C18.622 186.174 18.916 186.336 19.276 186.456C19.648 186.564 20.05 186.654 20.482 186.726C20.926 186.798 21.364 186.888 21.796 186.996C22.24 187.092 22.642 187.23 23.002 187.41C23.374 187.578 23.668 187.824 23.884 188.148C24.112 188.46 24.226 188.874 24.226 189.39C24.226 189.942 24.07 190.422 23.758 190.83C23.458 191.226 23.014 191.538 22.426 191.766C21.85 191.982 21.148 192.09 20.32 192.09ZM26.5711 192V182.55H27.8491V192H26.5711ZM27.2191 180.462C26.9551 180.462 26.7331 180.372 26.5531 180.192C26.3731 180.012 26.2831 179.796 26.2831 179.544C26.2831 179.292 26.3731 179.082 26.5531 178.914C26.7331 178.734 26.9551 178.644 27.2191 178.644C27.4831 178.644 27.7051 178.728 27.8851 178.896C28.0651 179.064 28.1551 179.274 28.1551 179.526C28.1551 179.79 28.0651 180.012 27.8851 180.192C27.7171 180.372 27.4951 180.462 27.2191 180.462ZM34.393 192.09C33.505 192.09 32.821 191.85 32.341 191.37C31.861 190.89 31.621 190.212 31.621 189.336V180.462H32.899V189.264C32.899 189.816 33.037 190.242 33.313 190.542C33.601 190.842 34.009 190.992 34.537 190.992C35.101 190.992 35.569 190.83 35.941 190.506L36.391 191.424C36.139 191.652 35.833 191.82 35.473 191.928C35.125 192.036 34.765 192.09 34.393 192.09ZM29.929 183.612V182.55H35.779V183.612H29.929ZM49.3505 192V189.912L49.2965 189.57V186.078C49.2965 185.274 49.0685 184.656 48.6125 184.224C48.1685 183.792 47.5025 183.576 46.6145 183.576C46.0025 183.576 45.4205 183.678 44.8685 183.882C44.3165 184.086 43.8485 184.356 43.4645 184.692L42.8885 183.738C43.3685 183.33 43.9445 183.018 44.6165 182.802C45.2885 182.574 45.9965 182.46 46.7405 182.46C47.9645 182.46 48.9065 182.766 49.5665 183.378C50.2385 183.978 50.5745 184.896 50.5745 186.132V192H49.3505ZM46.0925 192.09C45.3845 192.09 44.7665 191.976 44.2385 191.748C43.7225 191.508 43.3265 191.184 43.0505 190.776C42.7745 190.356 42.6365 189.876 42.6365 189.336C42.6365 188.844 42.7505 188.4 42.9785 188.004C43.2185 187.596 43.6025 187.272 44.1305 187.032C44.6705 186.78 45.3905 186.654 46.2905 186.654H49.5485V187.608H46.3265C45.4145 187.608 44.7785 187.77 44.4185 188.094C44.0705 188.418 43.8965 188.82 43.8965 189.3C43.8965 189.84 44.1065 190.272 44.5265 190.596C44.9465 190.92 45.5345 191.082 46.2905 191.082C47.0105 191.082 47.6285 190.92 48.1445 190.596C48.6725 190.26 49.0565 189.78 49.2965 189.156L49.5845 190.038C49.3445 190.662 48.9245 191.16 48.3245 191.532C47.7365 191.904 46.9925 192.09 46.0925 192.09ZM65.8537 182.46C66.6217 182.46 67.2877 182.61 67.8517 182.91C68.4277 183.198 68.8717 183.642 69.1837 184.242C69.5077 184.842 69.6697 185.598 69.6697 186.51V192H68.3917V186.636C68.3917 185.64 68.1517 184.89 67.6717 184.386C67.2037 183.87 66.5377 183.612 65.6737 183.612C65.0257 183.612 64.4617 183.75 63.9817 184.026C63.5137 184.29 63.1477 184.68 62.8837 185.196C62.6317 185.7 62.5057 186.312 62.5057 187.032V192H61.2277V186.636C61.2277 185.64 60.9877 184.89 60.5077 184.386C60.0277 183.87 59.3557 183.612 58.4917 183.612C57.8557 183.612 57.2977 183.75 56.8177 184.026C56.3377 184.29 55.9657 184.68 55.7017 185.196C55.4497 185.7 55.3237 186.312 55.3237 187.032V192H54.0457V182.55H55.2697V185.106L55.0717 184.656C55.3597 183.972 55.8217 183.438 56.4577 183.054C57.1057 182.658 57.8677 182.46 58.7437 182.46C59.6677 182.46 60.4537 182.694 61.1017 183.162C61.7497 183.618 62.1697 184.308 62.3617 185.232L61.8577 185.034C62.1337 184.266 62.6197 183.648 63.3157 183.18C64.0237 182.7 64.8697 182.46 65.8537 182.46ZM77.1495 192.09C76.1655 192.09 75.3015 191.886 74.5575 191.478C73.8135 191.058 73.2315 190.488 72.8115 189.768C72.3915 189.036 72.1815 188.202 72.1815 187.266C72.1815 186.33 72.3795 185.502 72.7755 184.782C73.1835 184.062 73.7355 183.498 74.4315 183.09C75.1395 182.67 75.9315 182.46 76.8075 182.46C77.6955 182.46 78.4815 182.664 79.1655 183.072C79.8615 183.468 80.4075 184.032 80.8035 184.764C81.1995 185.484 81.3975 186.318 81.3975 187.266C81.3975 187.326 81.3915 187.392 81.3795 187.464C81.3795 187.524 81.3795 187.59 81.3795 187.662H73.1535V186.708H80.6955L80.1915 187.086C80.1915 186.402 80.0415 185.796 79.7415 185.268C79.4535 184.728 79.0575 184.308 78.5535 184.008C78.0495 183.708 77.4675 183.558 76.8075 183.558C76.1595 183.558 75.5775 183.708 75.0615 184.008C74.5455 184.308 74.1435 184.728 73.8555 185.268C73.5675 185.808 73.4235 186.426 73.4235 187.122V187.32C73.4235 188.04 73.5795 188.676 73.8915 189.228C74.2155 189.768 74.6595 190.194 75.2235 190.506C75.7995 190.806 76.4535 190.956 77.1855 190.956C77.7615 190.956 78.2955 190.854 78.7875 190.65C79.2915 190.446 79.7235 190.134 80.0835 189.714L80.8035 190.542C80.3835 191.046 79.8555 191.43 79.2195 191.694C78.5955 191.958 77.9055 192.09 77.1495 192.09ZM86.9868 192.09C86.0988 192.09 85.4148 191.85 84.9348 191.37C84.4548 190.89 84.2148 190.212 84.2148 189.336V180.462H85.4928V189.264C85.4928 189.816 85.6308 190.242 85.9068 190.542C86.1948 190.842 86.6028 190.992 87.1308 190.992C87.6948 190.992 88.1628 190.83 88.5348 190.506L88.9848 191.424C88.7328 191.652 88.4268 191.82 88.0668 191.928C87.7188 192.036 87.3588 192.09 86.9868 192.09ZM82.5228 183.612V182.55H88.3728V183.612H82.5228ZM90.7131 194.628L91.5051 191.298L91.6491 192.072C91.3731 192.072 91.1391 191.982 90.9471 191.802C90.7671 191.622 90.6771 191.388 90.6771 191.1C90.6771 190.812 90.7671 190.578 90.9471 190.398C91.1391 190.218 91.3671 190.128 91.6311 190.128C91.9071 190.128 92.1291 190.224 92.2971 190.416C92.4771 190.608 92.5671 190.836 92.5671 191.1C92.5671 191.196 92.5611 191.292 92.5491 191.388C92.5371 191.484 92.5131 191.592 92.4771 191.712C92.4411 191.832 92.3931 191.976 92.3331 192.144L91.5771 194.628H90.7131ZM103.936 192.09C103 192.09 102.16 191.886 101.416 191.478C100.684 191.058 100.108 190.488 99.6885 189.768C99.2685 189.036 99.0585 188.202 99.0585 187.266C99.0585 186.318 99.2685 185.484 99.6885 184.764C100.108 184.044 100.684 183.48 101.416 183.072C102.16 182.664 103 182.46 103.936 182.46C104.74 182.46 105.466 182.616 106.114 182.928C106.762 183.24 107.272 183.708 107.644 184.332L106.69 184.98C106.366 184.5 105.964 184.146 105.484 183.918C105.004 183.69 104.482 183.576 103.918 183.576C103.246 183.576 102.64 183.732 102.1 184.044C101.56 184.344 101.134 184.77 100.822 185.322C100.51 185.874 100.354 186.522 100.354 187.266C100.354 188.01 100.51 188.658 100.822 189.21C101.134 189.762 101.56 190.194 102.1 190.506C102.64 190.806 103.246 190.956 103.918 190.956C104.482 190.956 105.004 190.842 105.484 190.614C105.964 190.386 106.366 190.038 106.69 189.57L107.644 190.218C107.272 190.83 106.762 191.298 106.114 191.622C105.466 191.934 104.74 192.09 103.936 192.09ZM113.849 192.09C112.937 192.09 112.115 191.886 111.383 191.478C110.663 191.058 110.093 190.488 109.673 189.768C109.253 189.036 109.043 188.202 109.043 187.266C109.043 186.318 109.253 185.484 109.673 184.764C110.093 184.044 110.663 183.48 111.383 183.072C112.103 182.664 112.925 182.46 113.849 182.46C114.785 182.46 115.613 182.664 116.333 183.072C117.065 183.48 117.635 184.044 118.043 184.764C118.463 185.484 118.673 186.318 118.673 187.266C118.673 188.202 118.463 189.036 118.043 189.768C117.635 190.488 117.065 191.058 116.333 191.478C115.601 191.886 114.773 192.09 113.849 192.09ZM113.849 190.956C114.533 190.956 115.139 190.806 115.667 190.506C116.195 190.194 116.609 189.762 116.909 189.21C117.221 188.646 117.377 187.998 117.377 187.266C117.377 186.522 117.221 185.874 116.909 185.322C116.609 184.77 116.195 184.344 115.667 184.044C115.139 183.732 114.539 183.576 113.867 183.576C113.195 183.576 112.595 183.732 112.067 184.044C111.539 184.344 111.119 184.77 110.807 185.322C110.495 185.874 110.339 186.522 110.339 187.266C110.339 187.998 110.495 188.646 110.807 189.21C111.119 189.762 111.539 190.194 112.067 190.506C112.595 190.806 113.189 190.956 113.849 190.956ZM126.106 182.46C126.874 182.46 127.546 182.61 128.122 182.91C128.71 183.198 129.166 183.642 129.49 184.242C129.826 184.842 129.994 185.598 129.994 186.51V192H128.716V186.636C128.716 185.64 128.464 184.89 127.96 184.386C127.468 183.87 126.772 183.612 125.872 183.612C125.2 183.612 124.612 183.75 124.108 184.026C123.616 184.29 123.232 184.68 122.956 185.196C122.692 185.7 122.56 186.312 122.56 187.032V192H121.282V182.55H122.506V185.142L122.308 184.656C122.608 183.972 123.088 183.438 123.748 183.054C124.408 182.658 125.194 182.46 126.106 182.46ZM135.984 192.09C135.204 192.09 134.466 191.982 133.77 191.766C133.074 191.538 132.528 191.256 132.132 190.92L132.708 189.912C133.092 190.2 133.584 190.452 134.184 190.668C134.784 190.872 135.414 190.974 136.074 190.974C136.974 190.974 137.622 190.836 138.018 190.56C138.414 190.272 138.612 189.894 138.612 189.426C138.612 189.078 138.498 188.808 138.27 188.616C138.054 188.412 137.766 188.262 137.406 188.166C137.046 188.058 136.644 187.968 136.2 187.896C135.756 187.824 135.312 187.74 134.868 187.644C134.436 187.548 134.04 187.41 133.68 187.23C133.32 187.038 133.026 186.78 132.798 186.456C132.582 186.132 132.474 185.7 132.474 185.16C132.474 184.644 132.618 184.182 132.906 183.774C133.194 183.366 133.614 183.048 134.166 182.82C134.73 182.58 135.414 182.46 136.218 182.46C136.83 182.46 137.442 182.544 138.054 182.712C138.666 182.868 139.17 183.078 139.566 183.342L139.008 184.368C138.588 184.08 138.138 183.876 137.658 183.756C137.178 183.624 136.698 183.558 136.218 183.558C135.366 183.558 134.736 183.708 134.328 184.008C133.932 184.296 133.734 184.668 133.734 185.124C133.734 185.484 133.842 185.766 134.058 185.97C134.286 186.174 134.58 186.336 134.94 186.456C135.312 186.564 135.714 186.654 136.146 186.726C136.59 186.798 137.028 186.888 137.46 186.996C137.904 187.092 138.306 187.23 138.666 187.41C139.038 187.578 139.332 187.824 139.548 188.148C139.776 188.46 139.89 188.874 139.89 189.39C139.89 189.942 139.734 190.422 139.422 190.83C139.122 191.226 138.678 191.538 138.09 191.766C137.514 191.982 136.812 192.09 135.984 192.09ZM146.249 192.09C145.265 192.09 144.401 191.886 143.657 191.478C142.913 191.058 142.331 190.488 141.911 189.768C141.491 189.036 141.281 188.202 141.281 187.266C141.281 186.33 141.479 185.502 141.875 184.782C142.283 184.062 142.835 183.498 143.531 183.09C144.239 182.67 145.031 182.46 145.907 182.46C146.795 182.46 147.581 182.664 148.265 183.072C148.961 183.468 149.507 184.032 149.903 184.764C150.299 185.484 150.497 186.318 150.497 187.266C150.497 187.326 150.491 187.392 150.479 187.464C150.479 187.524 150.479 187.59 150.479 187.662H142.253V186.708H149.795L149.291 187.086C149.291 186.402 149.141 185.796 148.841 185.268C148.553 184.728 148.157 184.308 147.653 184.008C147.149 183.708 146.567 183.558 145.907 183.558C145.259 183.558 144.677 183.708 144.161 184.008C143.645 184.308 143.243 184.728 142.955 185.268C142.667 185.808 142.523 186.426 142.523 187.122V187.32C142.523 188.04 142.679 188.676 142.991 189.228C143.315 189.768 143.759 190.194 144.323 190.506C144.899 190.806 145.553 190.956 146.285 190.956C146.861 190.956 147.395 190.854 147.887 190.65C148.391 190.446 148.823 190.134 149.183 189.714L149.903 190.542C149.483 191.046 148.955 191.43 148.319 191.694C147.695 191.958 147.005 192.09 146.249 192.09ZM157.022 192.09C156.086 192.09 155.246 191.886 154.502 191.478C153.77 191.058 153.194 190.488 152.774 189.768C152.354 189.036 152.144 188.202 152.144 187.266C152.144 186.318 152.354 185.484 152.774 184.764C153.194 184.044 153.77 183.48 154.502 183.072C155.246 182.664 156.086 182.46 157.022 182.46C157.826 182.46 158.552 182.616 159.2 182.928C159.848 183.24 160.358 183.708 160.73 184.332L159.776 184.98C159.452 184.5 159.05 184.146 158.57 183.918C158.09 183.69 157.568 183.576 157.004 183.576C156.332 183.576 155.726 183.732 155.186 184.044C154.646 184.344 154.22 184.77 153.908 185.322C153.596 185.874 153.44 186.522 153.44 187.266C153.44 188.01 153.596 188.658 153.908 189.21C154.22 189.762 154.646 190.194 155.186 190.506C155.726 190.806 156.332 190.956 157.004 190.956C157.568 190.956 158.09 190.842 158.57 190.614C159.05 190.386 159.452 190.038 159.776 189.57L160.73 190.218C160.358 190.83 159.848 191.298 159.2 191.622C158.552 191.934 157.826 192.09 157.022 192.09ZM166.334 192.09C165.446 192.09 164.762 191.85 164.282 191.37C163.802 190.89 163.562 190.212 163.562 189.336V180.462H164.84V189.264C164.84 189.816 164.978 190.242 165.254 190.542C165.542 190.842 165.95 190.992 166.478 190.992C167.042 190.992 167.51 190.83 167.882 190.506L168.332 191.424C168.08 191.652 167.774 191.82 167.414 191.928C167.066 192.036 166.706 192.09 166.334 192.09ZM161.87 183.612V182.55H167.72V183.612H161.87ZM174.339 192.09C173.355 192.09 172.491 191.886 171.747 191.478C171.003 191.058 170.421 190.488 170.001 189.768C169.581 189.036 169.371 188.202 169.371 187.266C169.371 186.33 169.569 185.502 169.965 184.782C170.373 184.062 170.925 183.498 171.621 183.09C172.329 182.67 173.121 182.46 173.997 182.46C174.885 182.46 175.671 182.664 176.355 183.072C177.051 183.468 177.597 184.032 177.993 184.764C178.389 185.484 178.587 186.318 178.587 187.266C178.587 187.326 178.581 187.392 178.569 187.464C178.569 187.524 178.569 187.59 178.569 187.662H170.343V186.708H177.885L177.381 187.086C177.381 186.402 177.231 185.796 176.931 185.268C176.643 184.728 176.247 184.308 175.743 184.008C175.239 183.708 174.657 183.558 173.997 183.558C173.349 183.558 172.767 183.708 172.251 184.008C171.735 184.308 171.333 184.728 171.045 185.268C170.757 185.808 170.613 186.426 170.613 187.122V187.32C170.613 188.04 170.769 188.676 171.081 189.228C171.405 189.768 171.849 190.194 172.413 190.506C172.989 190.806 173.643 190.956 174.375 190.956C174.951 190.956 175.485 190.854 175.977 190.65C176.481 190.446 176.913 190.134 177.273 189.714L177.993 190.542C177.573 191.046 177.045 191.43 176.409 191.694C175.785 191.958 175.095 192.09 174.339 192.09ZM184.176 192.09C183.288 192.09 182.604 191.85 182.124 191.37C181.644 190.89 181.404 190.212 181.404 189.336V180.462H182.682V189.264C182.682 189.816 182.82 190.242 183.096 190.542C183.384 190.842 183.792 190.992 184.32 190.992C184.884 190.992 185.352 190.83 185.724 190.506L186.174 191.424C185.922 191.652 185.616 191.82 185.256 191.928C184.908 192.036 184.548 192.09 184.176 192.09ZM179.712 183.612V182.55H185.562V183.612H179.712ZM192.407 192.09C191.603 192.09 190.901 191.94 190.301 191.64C189.701 191.34 189.233 190.89 188.897 190.29C188.573 189.69 188.411 188.94 188.411 188.04V182.55H189.689V187.896C189.689 188.904 189.935 189.666 190.427 190.182C190.931 190.686 191.633 190.938 192.533 190.938C193.193 190.938 193.763 190.806 194.243 190.542C194.735 190.266 195.107 189.87 195.359 189.354C195.623 188.838 195.755 188.22 195.755 187.5V182.55H197.033V192H195.809V189.408L196.007 189.876C195.707 190.572 195.239 191.118 194.603 191.514C193.979 191.898 193.247 192.09 192.407 192.09ZM200.595 192V182.55H201.819V185.124L201.693 184.674C201.957 183.954 202.401 183.408 203.025 183.036C203.649 182.652 204.423 182.46 205.347 182.46V183.702C205.299 183.702 205.251 183.702 205.203 183.702C205.155 183.69 205.107 183.684 205.059 183.684C204.062 183.684 203.283 183.99 202.719 184.602C202.155 185.202 201.873 186.06 201.873 187.176V192H200.595ZM23.704 216V213.912L23.65 213.57V210.078C23.65 209.274 23.422 208.656 22.966 208.224C22.522 207.792 21.856 207.576 20.968 207.576C20.356 207.576 19.774 207.678 19.222 207.882C18.67 208.086 18.202 208.356 17.818 208.692L17.242 207.738C17.722 207.33 18.298 207.018 18.97 206.802C19.642 206.574 20.35 206.46 21.094 206.46C22.318 206.46 23.26 206.766 23.92 207.378C24.592 207.978 24.928 208.896 24.928 210.132V216H23.704ZM20.446 216.09C19.738 216.09 19.12 215.976 18.592 215.748C18.076 215.508 17.68 215.184 17.404 214.776C17.128 214.356 16.99 213.876 16.99 213.336C16.99 212.844 17.104 212.4 17.332 212.004C17.572 211.596 17.956 211.272 18.484 211.032C19.024 210.78 19.744 210.654 20.644 210.654H23.902V211.608H20.68C19.768 211.608 19.132 211.77 18.772 212.094C18.424 212.418 18.25 212.82 18.25 213.3C18.25 213.84 18.46 214.272 18.88 214.596C19.3 214.92 19.888 215.082 20.644 215.082C21.364 215.082 21.982 214.92 22.498 214.596C23.026 214.26 23.41 213.78 23.65 213.156L23.938 214.038C23.698 214.662 23.278 215.16 22.678 215.532C22.09 215.904 21.346 216.09 20.446 216.09ZM32.1612 216.09C31.2612 216.09 30.4512 215.886 29.7312 215.478C29.0232 215.07 28.4652 214.506 28.0572 213.786C27.6492 213.054 27.4452 212.214 27.4452 211.266C27.4452 210.306 27.6492 209.466 28.0572 208.746C28.4652 208.026 29.0232 207.468 29.7312 207.072C30.4512 206.664 31.2612 206.46 32.1612 206.46C32.9892 206.46 33.7272 206.646 34.3752 207.018C35.0352 207.39 35.5572 207.936 35.9412 208.656C36.3372 209.364 36.5352 210.234 36.5352 211.266C36.5352 212.286 36.3432 213.156 35.9592 213.876C35.5752 214.596 35.0532 215.148 34.3932 215.532C33.7452 215.904 33.0012 216.09 32.1612 216.09ZM32.2512 214.956C32.9232 214.956 33.5232 214.806 34.0512 214.506C34.5912 214.194 35.0112 213.762 35.3112 213.21C35.6232 212.646 35.7792 211.998 35.7792 211.266C35.7792 210.522 35.6232 209.874 35.3112 209.322C35.0112 208.77 34.5912 208.344 34.0512 208.044C33.5232 207.732 32.9232 207.576 32.2512 207.576C31.5912 207.576 30.9972 207.732 30.4692 208.044C29.9412 208.344 29.5212 208.77 29.2092 209.322C28.8972 209.874 28.7412 210.522 28.7412 211.266C28.7412 211.998 28.8972 212.646 29.2092 213.21C29.5212 213.762 29.9412 214.194 30.4692 214.506C30.9972 214.806 31.5912 214.956 32.2512 214.956ZM35.8152 216V213.156L35.9412 211.248L35.7612 209.34V202.644H37.0392V216H35.8152ZM40.5984 216V206.55H41.8764V216H40.5984ZM41.2464 204.462C40.9824 204.462 40.7604 204.372 40.5804 204.192C40.4004 204.012 40.3104 203.796 40.3104 203.544C40.3104 203.292 40.4004 203.082 40.5804 202.914C40.7604 202.734 40.9824 202.644 41.2464 202.644C41.5104 202.644 41.7324 202.728 41.9124 202.896C42.0924 203.064 42.1824 203.274 42.1824 203.526C42.1824 203.79 42.0924 204.012 41.9124 204.192C41.7444 204.372 41.5224 204.462 41.2464 204.462ZM50.3104 216.09C49.4944 216.09 48.7564 215.904 48.0964 215.532C47.4364 215.148 46.9084 214.602 46.5124 213.894C46.1284 213.174 45.9364 212.298 45.9364 211.266C45.9364 210.234 46.1284 209.364 46.5124 208.656C46.8964 207.936 47.4184 207.39 48.0784 207.018C48.7384 206.646 49.4824 206.46 50.3104 206.46C51.2104 206.46 52.0144 206.664 52.7224 207.072C53.4424 207.468 54.0064 208.032 54.4144 208.764C54.8224 209.484 55.0264 210.318 55.0264 211.266C55.0264 212.226 54.8224 213.066 54.4144 213.786C54.0064 214.506 53.4424 215.07 52.7224 215.478C52.0144 215.886 51.2104 216.09 50.3104 216.09ZM45.4324 219.492V206.55H46.6564V209.394L46.5304 211.284L46.7104 213.192V219.492H45.4324ZM50.2204 214.956C50.8924 214.956 51.4924 214.806 52.0204 214.506C52.5484 214.194 52.9684 213.762 53.2804 213.21C53.5924 212.646 53.7484 211.998 53.7484 211.266C53.7484 210.534 53.5924 209.892 53.2804 209.34C52.9684 208.788 52.5484 208.356 52.0204 208.044C51.4924 207.732 50.8924 207.576 50.2204 207.576C49.5484 207.576 48.9424 207.732 48.4024 208.044C47.8744 208.356 47.4544 208.788 47.1424 209.34C46.8424 209.892 46.6924 210.534 46.6924 211.266C46.6924 211.998 46.8424 212.646 47.1424 213.21C47.4544 213.762 47.8744 214.194 48.4024 214.506C48.9424 214.806 49.5484 214.956 50.2204 214.956ZM57.6316 216V206.55H58.9096V216H57.6316ZM58.2796 204.462C58.0156 204.462 57.7936 204.372 57.6136 204.192C57.4336 204.012 57.3436 203.796 57.3436 203.544C57.3436 203.292 57.4336 203.082 57.6136 202.914C57.7936 202.734 58.0156 202.644 58.2796 202.644C58.5436 202.644 58.7656 202.728 58.9456 202.896C59.1256 203.064 59.2156 203.274 59.2156 203.526C59.2156 203.79 59.1256 204.012 58.9456 204.192C58.7776 204.372 58.5556 204.462 58.2796 204.462ZM65.0036 216.09C64.2236 216.09 63.4856 215.982 62.7896 215.766C62.0936 215.538 61.5476 215.256 61.1516 214.92L61.7276 213.912C62.1116 214.2 62.6036 214.452 63.2036 214.668C63.8036 214.872 64.4336 214.974 65.0936 214.974C65.9936 214.974 66.6416 214.836 67.0376 214.56C67.4336 214.272 67.6316 213.894 67.6316 213.426C67.6316 213.078 67.5176 212.808 67.2896 212.616C67.0736 212.412 66.7856 212.262 66.4256 212.166C66.0656 212.058 65.6636 211.968 65.2196 211.896C64.7756 211.824 64.3316 211.74 63.8876 211.644C63.4556 211.548 63.0596 211.41 62.6996 211.23C62.3396 211.038 62.0456 210.78 61.8176 210.456C61.6016 210.132 61.4936 209.7 61.4936 209.16C61.4936 208.644 61.6376 208.182 61.9256 207.774C62.2136 207.366 62.6336 207.048 63.1856 206.82C63.7496 206.58 64.4336 206.46 65.2376 206.46C65.8496 206.46 66.4616 206.544 67.0736 206.712C67.6856 206.868 68.1896 207.078 68.5856 207.342L68.0276 208.368C67.6076 208.08 67.1576 207.876 66.6776 207.756C66.1976 207.624 65.7176 207.558 65.2376 207.558C64.3856 207.558 63.7556 207.708 63.3476 208.008C62.9516 208.296 62.7536 208.668 62.7536 209.124C62.7536 209.484 62.8616 209.766 63.0776 209.97C63.3056 210.174 63.5996 210.336 63.9596 210.456C64.3316 210.564 64.7336 210.654 65.1656 210.726C65.6096 210.798 66.0476 210.888 66.4796 210.996C66.9236 211.092 67.3256 211.23 67.6856 211.41C68.0576 211.578 68.3516 211.824 68.5676 212.148C68.7956 212.46 68.9096 212.874 68.9096 213.39C68.9096 213.942 68.7536 214.422 68.4416 214.83C68.1416 215.226 67.6976 215.538 67.1096 215.766C66.5336 215.982 65.8316 216.09 65.0036 216.09ZM75.1787 216.09C74.2427 216.09 73.4027 215.886 72.6587 215.478C71.9267 215.058 71.3507 214.488 70.9307 213.768C70.5107 213.036 70.3007 212.202 70.3007 211.266C70.3007 210.318 70.5107 209.484 70.9307 208.764C71.3507 208.044 71.9267 207.48 72.6587 207.072C73.4027 206.664 74.2427 206.46 75.1787 206.46C75.9827 206.46 76.7087 206.616 77.3567 206.928C78.0047 207.24 78.5147 207.708 78.8867 208.332L77.9327 208.98C77.6087 208.5 77.2067 208.146 76.7267 207.918C76.2467 207.69 75.7247 207.576 75.1607 207.576C74.4887 207.576 73.8827 207.732 73.3427 208.044C72.8027 208.344 72.3767 208.77 72.0647 209.322C71.7527 209.874 71.5967 210.522 71.5967 211.266C71.5967 212.01 71.7527 212.658 72.0647 213.21C72.3767 213.762 72.8027 214.194 73.3427 214.506C73.8827 214.806 74.4887 214.956 75.1607 214.956C75.7247 214.956 76.2467 214.842 76.7267 214.614C77.2067 214.386 77.6087 214.038 77.9327 213.57L78.8867 214.218C78.5147 214.83 78.0047 215.298 77.3567 215.622C76.7087 215.934 75.9827 216.09 75.1787 216.09ZM81.2566 216V206.55H82.5346V216H81.2566ZM81.9046 204.462C81.6406 204.462 81.4186 204.372 81.2386 204.192C81.0586 204.012 80.9686 203.796 80.9686 203.544C80.9686 203.292 81.0586 203.082 81.2386 202.914C81.4186 202.734 81.6406 202.644 81.9046 202.644C82.1686 202.644 82.3906 202.728 82.5706 202.896C82.7506 203.064 82.8406 203.274 82.8406 203.526C82.8406 203.79 82.7506 204.012 82.5706 204.192C82.4026 204.372 82.1806 204.462 81.9046 204.462ZM90.9146 206.46C91.6826 206.46 92.3546 206.61 92.9306 206.91C93.5186 207.198 93.9746 207.642 94.2986 208.242C94.6346 208.842 94.8026 209.598 94.8026 210.51V216H93.5246V210.636C93.5246 209.64 93.2726 208.89 92.7686 208.386C92.2766 207.87 91.5806 207.612 90.6806 207.612C90.0086 207.612 89.4206 207.75 88.9166 208.026C88.4246 208.29 88.0406 208.68 87.7646 209.196C87.5006 209.7 87.3686 210.312 87.3686 211.032V216H86.0906V206.55H87.3146V209.142L87.1166 208.656C87.4166 207.972 87.8966 207.438 88.5566 207.054C89.2166 206.658 90.0026 206.46 90.9146 206.46ZM102.287 219.582C101.423 219.582 100.595 219.456 99.8027 219.204C99.0107 218.952 98.3687 218.592 97.8767 218.124L98.5247 217.152C98.9687 217.548 99.5147 217.86 100.163 218.088C100.823 218.328 101.519 218.448 102.251 218.448C103.451 218.448 104.333 218.166 104.897 217.602C105.461 217.05 105.743 216.186 105.743 215.01V212.652L105.923 211.032L105.797 209.412V206.55H107.021V214.848C107.021 216.48 106.619 217.674 105.815 218.43C105.023 219.198 103.847 219.582 102.287 219.582ZM102.053 215.64C101.153 215.64 100.343 215.448 99.6227 215.064C98.9027 214.668 98.3327 214.122 97.9127 213.426C97.5047 212.73 97.3007 211.932 97.3007 211.032C97.3007 210.132 97.5047 209.34 97.9127 208.656C98.3327 207.96 98.9027 207.42 99.6227 207.036C100.343 206.652 101.153 206.46 102.053 206.46C102.893 206.46 103.649 206.634 104.321 206.982C104.993 207.33 105.527 207.846 105.923 208.53C106.319 209.214 106.517 210.048 106.517 211.032C106.517 212.016 106.319 212.85 105.923 213.534C105.527 214.218 104.993 214.74 104.321 215.1C103.649 215.46 102.893 215.64 102.053 215.64ZM102.179 214.506C102.875 214.506 103.493 214.362 104.033 214.074C104.573 213.774 104.999 213.366 105.311 212.85C105.623 212.322 105.779 211.716 105.779 211.032C105.779 210.348 105.623 209.748 105.311 209.232C104.999 208.716 104.573 208.314 104.033 208.026C103.493 207.726 102.875 207.576 102.179 207.576C101.495 207.576 100.877 207.726 100.325 208.026C99.7847 208.314 99.3587 208.716 99.0467 209.232C98.7467 209.748 98.5967 210.348 98.5967 211.032C98.5967 211.716 98.7467 212.322 99.0467 212.85C99.3587 213.366 99.7847 213.774 100.325 214.074C100.877 214.362 101.495 214.506 102.179 214.506ZM119.302 216.09C118.318 216.09 117.454 215.886 116.71 215.478C115.966 215.058 115.384 214.488 114.964 213.768C114.544 213.036 114.334 212.202 114.334 211.266C114.334 210.33 114.532 209.502 114.928 208.782C115.336 208.062 115.888 207.498 116.584 207.09C117.292 206.67 118.084 206.46 118.96 206.46C119.848 206.46 120.634 206.664 121.318 207.072C122.014 207.468 122.56 208.032 122.956 208.764C123.352 209.484 123.55 210.318 123.55 211.266C123.55 211.326 123.544 211.392 123.532 211.464C123.532 211.524 123.532 211.59 123.532 211.662H115.306V210.708H122.848L122.344 211.086C122.344 210.402 122.194 209.796 121.894 209.268C121.606 208.728 121.21 208.308 120.706 208.008C120.202 207.708 119.62 207.558 118.96 207.558C118.312 207.558 117.73 207.708 117.214 208.008C116.698 208.308 116.296 208.728 116.008 209.268C115.72 209.808 115.576 210.426 115.576 211.122V211.32C115.576 212.04 115.732 212.676 116.044 213.228C116.368 213.768 116.812 214.194 117.376 214.506C117.952 214.806 118.606 214.956 119.338 214.956C119.914 214.956 120.448 214.854 120.94 214.65C121.444 214.446 121.876 214.134 122.236 213.714L122.956 214.542C122.536 215.046 122.008 215.43 121.372 215.694C120.748 215.958 120.058 216.09 119.302 216.09ZM126.151 216V202.644H127.429V216H126.151ZM130.985 216V206.55H132.263V216H130.985ZM131.633 204.462C131.369 204.462 131.147 204.372 130.967 204.192C130.787 204.012 130.697 203.796 130.697 203.544C130.697 203.292 130.787 203.082 130.967 202.914C131.147 202.734 131.369 202.644 131.633 202.644C131.897 202.644 132.119 202.728 132.299 202.896C132.479 203.064 132.569 203.274 132.569 203.526C132.569 203.79 132.479 204.012 132.299 204.192C132.131 204.372 131.909 204.462 131.633 204.462ZM138.807 216.09C137.919 216.09 137.235 215.85 136.755 215.37C136.275 214.89 136.035 214.212 136.035 213.336V204.462H137.313V213.264C137.313 213.816 137.451 214.242 137.727 214.542C138.015 214.842 138.423 214.992 138.951 214.992C139.515 214.992 139.983 214.83 140.355 214.506L140.805 215.424C140.553 215.652 140.247 215.82 139.887 215.928C139.539 216.036 139.179 216.09 138.807 216.09ZM134.343 207.612V206.55H140.193V207.612H134.343ZM142.533 218.628L143.325 215.298L143.469 216.072C143.193 216.072 142.959 215.982 142.767 215.802C142.587 215.622 142.497 215.388 142.497 215.1C142.497 214.812 142.587 214.578 142.767 214.398C142.959 214.218 143.187 214.128 143.451 214.128C143.727 214.128 143.949 214.224 144.117 214.416C144.297 214.608 144.387 214.836 144.387 215.1C144.387 215.196 144.381 215.292 144.369 215.388C144.357 215.484 144.333 215.592 144.297 215.712C144.261 215.832 144.213 215.976 144.153 216.144L143.397 218.628H142.533ZM154.371 216.09C153.591 216.09 152.853 215.982 152.157 215.766C151.461 215.538 150.915 215.256 150.519 214.92L151.095 213.912C151.479 214.2 151.971 214.452 152.571 214.668C153.171 214.872 153.801 214.974 154.461 214.974C155.361 214.974 156.009 214.836 156.405 214.56C156.801 214.272 156.999 213.894 156.999 213.426C156.999 213.078 156.885 212.808 156.657 212.616C156.441 212.412 156.153 212.262 155.793 212.166C155.433 212.058 155.031 211.968 154.587 211.896C154.143 211.824 153.699 211.74 153.255 211.644C152.823 211.548 152.427 211.41 152.067 211.23C151.707 211.038 151.413 210.78 151.185 210.456C150.969 210.132 150.861 209.7 150.861 209.16C150.861 208.644 151.005 208.182 151.293 207.774C151.581 207.366 152.001 207.048 152.553 206.82C153.117 206.58 153.801 206.46 154.605 206.46C155.217 206.46 155.829 206.544 156.441 206.712C157.053 206.868 157.557 207.078 157.953 207.342L157.395 208.368C156.975 208.08 156.525 207.876 156.045 207.756C155.565 207.624 155.085 207.558 154.605 207.558C153.753 207.558 153.123 207.708 152.715 208.008C152.319 208.296 152.121 208.668 152.121 209.124C152.121 209.484 152.229 209.766 152.445 209.97C152.673 210.174 152.967 210.336 153.327 210.456C153.699 210.564 154.101 210.654 154.533 210.726C154.977 210.798 155.415 210.888 155.847 210.996C156.291 211.092 156.693 211.23 157.053 211.41C157.425 211.578 157.719 211.824 157.935 212.148C158.163 212.46 158.277 212.874 158.277 213.39C158.277 213.942 158.121 214.422 157.809 214.83C157.509 215.226 157.065 215.538 156.477 215.766C155.901 215.982 155.199 216.09 154.371 216.09ZM164.636 216.09C163.652 216.09 162.788 215.886 162.044 215.478C161.3 215.058 160.718 214.488 160.298 213.768C159.878 213.036 159.668 212.202 159.668 211.266C159.668 210.33 159.866 209.502 160.262 208.782C160.67 208.062 161.222 207.498 161.918 207.09C162.626 206.67 163.418 206.46 164.294 206.46C165.182 206.46 165.968 206.664 166.652 207.072C167.348 207.468 167.894 208.032 168.29 208.764C168.686 209.484 168.884 210.318 168.884 211.266C168.884 211.326 168.878 211.392 168.866 211.464C168.866 211.524 168.866 211.59 168.866 211.662H160.64V210.708H168.182L167.678 211.086C167.678 210.402 167.528 209.796 167.228 209.268C166.94 208.728 166.544 208.308 166.04 208.008C165.536 207.708 164.954 207.558 164.294 207.558C163.646 207.558 163.064 207.708 162.548 208.008C162.032 208.308 161.63 208.728 161.342 209.268C161.054 209.808 160.91 210.426 160.91 211.122V211.32C160.91 212.04 161.066 212.676 161.378 213.228C161.702 213.768 162.146 214.194 162.71 214.506C163.286 214.806 163.94 214.956 164.672 214.956C165.248 214.956 165.782 214.854 166.274 214.65C166.778 214.446 167.21 214.134 167.57 213.714L168.29 214.542C167.87 215.046 167.342 215.43 166.706 215.694C166.082 215.958 165.392 216.09 164.636 216.09ZM175.247 216.09C174.347 216.09 173.537 215.886 172.817 215.478C172.109 215.07 171.551 214.506 171.143 213.786C170.735 213.054 170.531 212.214 170.531 211.266C170.531 210.306 170.735 209.466 171.143 208.746C171.551 208.026 172.109 207.468 172.817 207.072C173.537 206.664 174.347 206.46 175.247 206.46C176.075 206.46 176.813 206.646 177.461 207.018C178.121 207.39 178.643 207.936 179.027 208.656C179.423 209.364 179.621 210.234 179.621 211.266C179.621 212.286 179.429 213.156 179.045 213.876C178.661 214.596 178.139 215.148 177.479 215.532C176.831 215.904 176.087 216.09 175.247 216.09ZM175.337 214.956C176.009 214.956 176.609 214.806 177.137 214.506C177.677 214.194 178.097 213.762 178.397 213.21C178.709 212.646 178.865 211.998 178.865 211.266C178.865 210.522 178.709 209.874 178.397 209.322C178.097 208.77 177.677 208.344 177.137 208.044C176.609 207.732 176.009 207.576 175.337 207.576C174.677 207.576 174.083 207.732 173.555 208.044C173.027 208.344 172.607 208.77 172.295 209.322C171.983 209.874 171.827 210.522 171.827 211.266C171.827 211.998 171.983 212.646 172.295 213.21C172.607 213.762 173.027 214.194 173.555 214.506C174.083 214.806 174.677 214.956 175.337 214.956ZM178.901 216V213.156L179.027 211.248L178.847 209.34V202.644H180.125V216H178.901Z" fill="#343434"/>
<path d="M23.464 79.24C22.152 79.24 20.896 79.056 19.696 78.688C18.496 78.304 17.544 77.816 16.84 77.224L17.92 74.8C18.592 75.328 19.424 75.768 20.416 76.12C21.408 76.472 22.424 76.648 23.464 76.648C24.344 76.648 25.056 76.552 25.6 76.36C26.144 76.168 26.544 75.912 26.8 75.592C27.056 75.256 27.184 74.88 27.184 74.464C27.184 73.952 27 73.544 26.632 73.24C26.264 72.92 25.784 72.672 25.192 72.496C24.616 72.304 23.968 72.128 23.248 71.968C22.544 71.808 21.832 71.624 21.112 71.416C20.408 71.192 19.76 70.912 19.168 70.576C18.592 70.224 18.12 69.76 17.752 69.184C17.384 68.608 17.2 67.872 17.2 66.976C17.2 66.064 17.44 65.232 17.92 64.48C18.416 63.712 19.16 63.104 20.152 62.656C21.16 62.192 22.432 61.96 23.968 61.96C24.976 61.96 25.976 62.088 26.968 62.344C27.96 62.6 28.824 62.968 29.56 63.448L28.576 65.872C27.824 65.424 27.048 65.096 26.248 64.888C25.448 64.664 24.68 64.552 23.944 64.552C23.08 64.552 22.376 64.656 21.832 64.864C21.304 65.072 20.912 65.344 20.656 65.68C20.416 66.016 20.296 66.4 20.296 66.832C20.296 67.344 20.472 67.76 20.824 68.08C21.192 68.384 21.664 68.624 22.24 68.8C22.832 68.976 23.488 69.152 24.208 69.328C24.928 69.488 25.64 69.672 26.344 69.88C27.064 70.088 27.712 70.36 28.288 70.696C28.88 71.032 29.352 71.488 29.704 72.064C30.072 72.64 30.256 73.368 30.256 74.248C30.256 75.144 30.008 75.976 29.512 76.744C29.032 77.496 28.288 78.104 27.28 78.568C26.272 79.016 25 79.24 23.464 79.24ZM35.5098 76.144L35.5818 72.376L42.2778 66.184H45.8778L40.1898 71.896L38.6058 73.216L35.5098 76.144ZM33.0618 79V61.192H36.0618V79H33.0618ZM42.7338 79L38.0538 73.216L39.9498 70.816L46.3818 79H42.7338ZM48.3196 79V66.184H51.3196V79H48.3196ZM49.8316 64.072C49.2716 64.072 48.8076 63.896 48.4396 63.544C48.0876 63.192 47.9116 62.768 47.9116 62.272C47.9116 61.76 48.0876 61.336 48.4396 61C48.8076 60.648 49.2716 60.472 49.8316 60.472C50.3916 60.472 50.8476 60.64 51.1996 60.976C51.5676 61.296 51.7516 61.704 51.7516 62.2C51.7516 62.728 51.5756 63.176 51.2236 63.544C50.8716 63.896 50.4076 64.072 49.8316 64.072ZM55.2571 79V61.192H58.2571V79H55.2571ZM62.1946 79V61.192H65.1946V79H62.1946ZM73.0921 79.168C72.0201 79.168 70.9881 79.032 69.9961 78.76C69.0201 78.472 68.2441 78.128 67.6681 77.728L68.8201 75.448C69.3961 75.816 70.0841 76.12 70.8841 76.36C71.6841 76.6 72.4841 76.72 73.2841 76.72C74.2281 76.72 74.9081 76.592 75.3241 76.336C75.7561 76.08 75.9721 75.736 75.9721 75.304C75.9721 74.952 75.8281 74.688 75.5401 74.512C75.2521 74.32 74.8761 74.176 74.4121 74.08C73.9481 73.984 73.4281 73.896 72.8521 73.816C72.2921 73.736 71.7241 73.632 71.1481 73.504C70.5881 73.36 70.0761 73.16 69.6121 72.904C69.1481 72.632 68.7721 72.272 68.4841 71.824C68.1961 71.376 68.0521 70.784 68.0521 70.048C68.0521 69.232 68.2841 68.528 68.7481 67.936C69.2121 67.328 69.8601 66.864 70.6921 66.544C71.5401 66.208 72.5401 66.04 73.6921 66.04C74.5561 66.04 75.4281 66.136 76.3081 66.328C77.1881 66.52 77.9161 66.792 78.4921 67.144L77.3401 69.424C76.7321 69.056 76.1161 68.808 75.4921 68.68C74.8841 68.536 74.2761 68.464 73.6681 68.464C72.7561 68.464 72.0761 68.6 71.6281 68.872C71.1961 69.144 70.9801 69.488 70.9801 69.904C70.9801 70.288 71.1241 70.576 71.4121 70.768C71.7001 70.96 72.0761 71.112 72.5401 71.224C73.0041 71.336 73.5161 71.432 74.0761 71.512C74.6521 71.576 75.2201 71.68 75.7801 71.824C76.3401 71.968 76.8521 72.168 77.3161 72.424C77.7961 72.664 78.1801 73.008 78.4681 73.456C78.7561 73.904 78.9001 74.488 78.9001 75.208C78.9001 76.008 78.6601 76.704 78.1801 77.296C77.7161 77.888 77.0521 78.352 76.1881 78.688C75.3241 79.008 74.2921 79.168 73.0921 79.168ZM86.0284 79L93.5884 62.2H96.6604L104.244 79H100.98L94.4764 63.856H95.7244L89.2444 79H86.0284ZM89.5084 75.112L90.3484 72.664H99.4204L100.26 75.112H89.5084ZM113.365 66.04C114.389 66.04 115.301 66.24 116.101 66.64C116.917 67.04 117.557 67.656 118.021 68.488C118.485 69.304 118.717 70.36 118.717 71.656V79H115.717V72.04C115.717 70.904 115.445 70.056 114.901 69.496C114.373 68.936 113.629 68.656 112.669 68.656C111.965 68.656 111.341 68.8 110.797 69.088C110.253 69.376 109.829 69.808 109.525 70.384C109.237 70.944 109.093 71.656 109.093 72.52V79H106.093V66.184H108.949V69.64L108.445 68.584C108.893 67.768 109.541 67.144 110.389 66.712C111.253 66.264 112.245 66.04 113.365 66.04ZM127.97 79.168C126.738 79.168 125.626 78.896 124.634 78.352C123.658 77.792 122.89 77.024 122.33 76.048C121.77 75.072 121.49 73.92 121.49 72.592C121.49 71.264 121.77 70.112 122.33 69.136C122.89 68.16 123.658 67.4 124.634 66.856C125.626 66.312 126.738 66.04 127.97 66.04C129.042 66.04 130.002 66.28 130.85 66.76C131.698 67.224 132.37 67.936 132.866 68.896C133.362 69.856 133.61 71.088 133.61 72.592C133.61 74.08 133.37 75.312 132.89 76.288C132.41 77.248 131.746 77.968 130.898 78.448C130.05 78.928 129.074 79.168 127.97 79.168ZM128.33 76.6C129.05 76.6 129.69 76.44 130.25 76.12C130.826 75.8 131.282 75.336 131.618 74.728C131.97 74.12 132.146 73.408 132.146 72.592C132.146 71.76 131.97 71.048 131.618 70.456C131.282 69.848 130.826 69.384 130.25 69.064C129.69 68.744 129.05 68.584 128.33 68.584C127.61 68.584 126.962 68.744 126.386 69.064C125.826 69.384 125.37 69.848 125.018 70.456C124.682 71.048 124.514 71.76 124.514 72.592C124.514 73.408 124.682 74.12 125.018 74.728C125.37 75.336 125.826 75.8 126.386 76.12C126.962 76.44 127.61 76.6 128.33 76.6ZM132.218 79V75.976L132.338 72.568L132.098 69.16V61.192H135.074V79H132.218ZM26.032 108.24C24.752 108.24 23.56 108.032 22.456 107.616C21.368 107.184 20.416 106.584 19.6 105.816C18.8 105.032 18.176 104.112 17.728 103.056C17.28 102 17.056 100.848 17.056 99.6C17.056 98.352 17.28 97.2 17.728 96.144C18.176 95.088 18.808 94.176 19.624 93.408C20.44 92.624 21.392 92.024 22.48 91.608C23.568 91.176 24.76 90.96 26.056 90.96C27.432 90.96 28.688 91.2 29.824 91.68C30.96 92.144 31.92 92.84 32.704 93.768L30.688 95.664C30.08 95.008 29.4 94.52 28.648 94.2C27.896 93.864 27.08 93.696 26.2 93.696C25.32 93.696 24.512 93.84 23.776 94.128C23.056 94.416 22.424 94.824 21.88 95.352C21.352 95.88 20.936 96.504 20.632 97.224C20.344 97.944 20.2 98.736 20.2 99.6C20.2 100.464 20.344 101.256 20.632 101.976C20.936 102.696 21.352 103.32 21.88 103.848C22.424 104.376 23.056 104.784 23.776 105.072C24.512 105.36 25.32 105.504 26.2 105.504C27.08 105.504 27.896 105.344 28.648 105.024C29.4 104.688 30.08 104.184 30.688 103.512L32.704 105.432C31.92 106.344 30.96 107.04 29.824 107.52C28.688 108 27.424 108.24 26.032 108.24ZM40.9373 108.168C39.5133 108.168 38.2653 107.888 37.1933 107.328C36.1373 106.752 35.3133 105.968 34.7213 104.976C34.1453 103.984 33.8573 102.856 33.8573 101.592C33.8573 100.312 34.1373 99.184 34.6973 98.208C35.2733 97.216 36.0573 96.44 37.0493 95.88C38.0573 95.32 39.2013 95.04 40.4813 95.04C41.7293 95.04 42.8413 95.312 43.8173 95.856C44.7933 96.4 45.5613 97.168 46.1213 98.16C46.6813 99.152 46.9613 100.32 46.9613 101.664C46.9613 101.792 46.9533 101.936 46.9373 102.096C46.9373 102.256 46.9293 102.408 46.9133 102.552H36.2333V100.56H45.3293L44.1533 101.184C44.1693 100.448 44.0173 99.8 43.6973 99.24C43.3773 98.68 42.9373 98.24 42.3773 97.92C41.8333 97.6 41.2013 97.44 40.4813 97.44C39.7453 97.44 39.0973 97.6 38.5373 97.92C37.9933 98.24 37.5613 98.688 37.2413 99.264C36.9373 99.824 36.7853 100.488 36.7853 101.256V101.736C36.7853 102.504 36.9613 103.184 37.3133 103.776C37.6653 104.368 38.1613 104.824 38.8013 105.144C39.4413 105.464 40.1773 105.624 41.0093 105.624C41.7293 105.624 42.3773 105.512 42.9533 105.288C43.5293 105.064 44.0413 104.712 44.4893 104.232L46.0973 106.08C45.5213 106.752 44.7933 107.272 43.9133 107.64C43.0493 107.992 42.0573 108.168 40.9373 108.168ZM49.843 108V95.184H52.699V98.712L52.363 97.68C52.747 96.816 53.347 96.16 54.163 95.712C54.995 95.264 56.027 95.04 57.259 95.04V97.896C57.131 97.864 57.011 97.848 56.899 97.848C56.787 97.832 56.675 97.824 56.563 97.824C55.427 97.824 54.523 98.16 53.851 98.832C53.179 99.488 52.843 100.472 52.843 101.784V108H49.843ZM65.0967 108.168C63.6887 108.168 62.6007 107.808 61.8327 107.088C61.0647 106.352 60.6807 105.272 60.6807 103.848V92.352H63.6807V103.776C63.6807 104.384 63.8327 104.856 64.1367 105.192C64.4567 105.528 64.8967 105.696 65.4567 105.696C66.1287 105.696 66.6887 105.52 67.1367 105.168L67.9767 107.304C67.6247 107.592 67.1927 107.808 66.6807 107.952C66.1687 108.096 65.6407 108.168 65.0967 108.168ZM58.5687 97.68V95.28H67.1127V97.68H58.5687ZM70.4446 108V95.184H73.4446V108H70.4446ZM71.9566 93.072C71.3966 93.072 70.9326 92.896 70.5646 92.544C70.2126 92.192 70.0366 91.768 70.0366 91.272C70.0366 90.76 70.2126 90.336 70.5646 90C70.9326 89.648 71.3966 89.472 71.9566 89.472C72.5166 89.472 72.9726 89.64 73.3246 89.976C73.6926 90.296 73.8766 90.704 73.8766 91.2C73.8766 91.728 73.7006 92.176 73.3486 92.544C72.9966 92.896 72.5326 93.072 71.9566 93.072ZM77.7901 108V94.464C77.7901 93.12 78.1821 92.048 78.9661 91.248C79.7661 90.432 80.9021 90.024 82.3741 90.024C82.9021 90.024 83.3981 90.08 83.8621 90.192C84.3421 90.304 84.7421 90.48 85.0621 90.72L84.2461 92.976C84.0221 92.8 83.7661 92.672 83.4781 92.592C83.1901 92.496 82.8941 92.448 82.5901 92.448C81.9661 92.448 81.4941 92.624 81.1741 92.976C80.8541 93.312 80.6941 93.824 80.6941 94.512V95.952L80.7901 97.296V108H77.7901ZM75.6781 97.68V95.28H84.2221V97.68H75.6781ZM86.3341 108V95.184H89.3341V108H86.3341ZM87.8461 93.072C87.2861 93.072 86.8221 92.896 86.4541 92.544C86.1021 92.192 85.9261 91.768 85.9261 91.272C85.9261 90.76 86.1021 90.336 86.4541 90C86.8221 89.648 87.2861 89.472 87.8461 89.472C88.4061 89.472 88.8621 89.64 89.2141 89.976C89.5821 90.296 89.7661 90.704 89.7661 91.2C89.7661 91.728 89.5901 92.176 89.2381 92.544C88.8861 92.896 88.4221 93.072 87.8461 93.072ZM99.1527 108.168C97.8087 108.168 96.6087 107.888 95.5527 107.328C94.5127 106.752 93.6967 105.968 93.1047 104.976C92.5127 103.984 92.2167 102.856 92.2167 101.592C92.2167 100.312 92.5127 99.184 93.1047 98.208C93.6967 97.216 94.5127 96.44 95.5527 95.88C96.6087 95.32 97.8087 95.04 99.1527 95.04C100.401 95.04 101.497 95.296 102.441 95.808C103.401 96.304 104.129 97.04 104.625 98.016L102.321 99.36C101.937 98.752 101.465 98.304 100.905 98.016C100.361 97.728 99.7687 97.584 99.1287 97.584C98.3927 97.584 97.7287 97.744 97.1367 98.064C96.5447 98.384 96.0807 98.848 95.7447 99.456C95.4087 100.048 95.2407 100.76 95.2407 101.592C95.2407 102.424 95.4087 103.144 95.7447 103.752C96.0807 104.344 96.5447 104.8 97.1367 105.12C97.7287 105.44 98.3927 105.6 99.1287 105.6C99.7687 105.6 100.361 105.456 100.905 105.168C101.465 104.88 101.937 104.432 102.321 103.824L104.625 105.168C104.129 106.128 103.401 106.872 102.441 107.4C101.497 107.912 100.401 108.168 99.1527 108.168ZM115.114 108V105.408L114.946 104.856V100.32C114.946 99.44 114.682 98.76 114.154 98.28C113.626 97.784 112.826 97.536 111.754 97.536C111.034 97.536 110.322 97.648 109.618 97.872C108.93 98.096 108.346 98.408 107.866 98.808L106.69 96.624C107.378 96.096 108.194 95.704 109.138 95.448C110.098 95.176 111.09 95.04 112.114 95.04C113.97 95.04 115.402 95.488 116.41 96.384C117.434 97.264 117.946 98.632 117.946 100.488V108H115.114ZM111.082 108.168C110.122 108.168 109.282 108.008 108.562 107.688C107.842 107.352 107.282 106.896 106.882 106.32C106.498 105.728 106.306 105.064 106.306 104.328C106.306 103.608 106.474 102.96 106.81 102.384C107.162 101.808 107.73 101.352 108.514 101.016C109.298 100.68 110.338 100.512 111.634 100.512H115.354V102.504H111.85C110.826 102.504 110.138 102.672 109.786 103.008C109.434 103.328 109.258 103.728 109.258 104.208C109.258 104.752 109.474 105.184 109.906 105.504C110.338 105.824 110.938 105.984 111.706 105.984C112.442 105.984 113.098 105.816 113.674 105.48C114.266 105.144 114.69 104.648 114.946 103.992L115.45 105.792C115.162 106.544 114.642 107.128 113.89 107.544C113.154 107.96 112.218 108.168 111.082 108.168ZM126.62 108.168C125.212 108.168 124.124 107.808 123.356 107.088C122.588 106.352 122.204 105.272 122.204 103.848V92.352H125.204V103.776C125.204 104.384 125.356 104.856 125.66 105.192C125.98 105.528 126.42 105.696 126.98 105.696C127.652 105.696 128.212 105.52 128.66 105.168L129.5 107.304C129.148 107.592 128.716 107.808 128.204 107.952C127.692 108.096 127.164 108.168 126.62 108.168ZM120.092 97.68V95.28H128.636V97.68H120.092ZM131.968 108V95.184H134.968V108H131.968ZM133.48 93.072C132.92 93.072 132.456 92.896 132.088 92.544C131.736 92.192 131.56 91.768 131.56 91.272C131.56 90.76 131.736 90.336 132.088 90C132.456 89.648 132.92 89.472 133.48 89.472C134.04 89.472 134.496 89.64 134.848 89.976C135.216 90.296 135.4 90.704 135.4 91.2C135.4 91.728 135.224 92.176 134.872 92.544C134.52 92.896 134.056 93.072 133.48 93.072ZM144.666 108.168C143.354 108.168 142.186 107.888 141.162 107.328C140.138 106.752 139.33 105.968 138.738 104.976C138.146 103.984 137.85 102.856 137.85 101.592C137.85 100.312 138.146 99.184 138.738 98.208C139.33 97.216 140.138 96.44 141.162 95.88C142.186 95.32 143.354 95.04 144.666 95.04C145.994 95.04 147.17 95.32 148.194 95.88C149.234 96.44 150.042 97.208 150.618 98.184C151.21 99.16 151.506 100.296 151.506 101.592C151.506 102.856 151.21 103.984 150.618 104.976C150.042 105.968 149.234 106.752 148.194 107.328C147.17 107.888 145.994 108.168 144.666 108.168ZM144.666 105.6C145.402 105.6 146.058 105.44 146.634 105.12C147.21 104.8 147.658 104.336 147.978 103.728C148.314 103.12 148.482 102.408 148.482 101.592C148.482 100.76 148.314 100.048 147.978 99.456C147.658 98.848 147.21 98.384 146.634 98.064C146.058 97.744 145.41 97.584 144.69 97.584C143.954 97.584 143.298 97.744 142.722 98.064C142.162 98.384 141.714 98.848 141.378 99.456C141.042 100.048 140.874 100.76 140.874 101.592C140.874 102.408 141.042 103.12 141.378 103.728C141.714 104.336 142.162 104.8 142.722 105.12C143.298 105.44 143.946 105.6 144.666 105.6ZM161.646 95.04C162.67 95.04 163.582 95.24 164.382 95.64C165.198 96.04 165.838 96.656 166.302 97.488C166.766 98.304 166.998 99.36 166.998 100.656V108H163.998V101.04C163.998 99.904 163.726 99.056 163.182 98.496C162.654 97.936 161.91 97.656 160.95 97.656C160.246 97.656 159.622 97.8 159.078 98.088C158.534 98.376 158.11 98.808 157.806 99.384C157.518 99.944 157.374 100.656 157.374 101.52V108H154.374V95.184H157.23V98.64L156.726 97.584C157.174 96.768 157.822 96.144 158.67 95.712C159.534 95.264 160.526 95.04 161.646 95.04Z" fill="#FF6D55"/>
<path d="M125.468 25.5761C128.212 12.6048 139.685 3.34141 152.943 3.39232L229.424 3.68596L229.495 57.9959C229.523 79.1186 202.007 87.2694 190.525 69.5394V69.5394C186.098 62.7024 178.143 59.009 170.063 60.0391L163.661 60.8552C161.084 61.1838 158.47 61.0842 155.925 60.5606L147.198 58.765C132.007 55.6393 122.258 40.7502 125.468 25.5761V25.5761Z" fill="#FFBFB4"/>
</svg>
