<svg width="61" height="16" viewBox="0 0 61 16" fill="none" xmlns="http://www.w3.org/2000/svg">
<path d="M0.0143752 15V0.999999H5.25438C6.44104 0.999999 7.46104 1.19333 8.31438 1.58C9.16771 1.95333 9.82104 2.5 10.2744 3.22C10.741 3.92667 10.9744 4.78667 10.9744 5.8C10.9744 6.78667 10.741 7.64 10.2744 8.36C9.82104 9.06667 9.16771 9.61333 8.31438 10C7.46104 10.3867 6.44104 10.58 5.25438 10.58H0.834375L1.49438 9.88V15H0.0143752ZM1.49438 10L0.834375 9.28H5.21438C6.61438 9.28 7.67438 8.98 8.39438 8.38C9.12771 7.76667 9.49437 6.90667 9.49437 5.8C9.49437 4.68 9.12771 3.81333 8.39438 3.2C7.67438 2.58667 6.61438 2.28 5.21438 2.28H0.834375L1.49438 1.58V10ZM13.6206 15V4.5H14.9806V7.36L14.8406 6.86C15.134 6.06 15.6273 5.45333 16.3206 5.04C17.014 4.61333 17.874 4.4 18.9006 4.4V5.78C18.8473 5.78 18.794 5.78 18.7406 5.78C18.6873 5.76667 18.634 5.76 18.5806 5.76C17.474 5.76 16.6073 6.1 15.9806 6.78C15.354 7.44667 15.0406 8.4 15.0406 9.64V15H13.6206ZM25.6741 15.1C24.6607 15.1 23.7474 14.8733 22.9341 14.42C22.1341 13.9533 21.5007 13.32 21.0341 12.52C20.5674 11.7067 20.3341 10.78 20.3341 9.74C20.3341 8.68667 20.5674 7.76 21.0341 6.96C21.5007 6.16 22.1341 5.53333 22.9341 5.08C23.7341 4.62667 24.6474 4.4 25.6741 4.4C26.7141 4.4 27.6341 4.62667 28.4341 5.08C29.2474 5.53333 29.8807 6.16 30.3341 6.96C30.8007 7.76 31.0341 8.68667 31.0341 9.74C31.0341 10.78 30.8007 11.7067 30.3341 12.52C29.8807 13.32 29.2474 13.9533 28.4341 14.42C27.6207 14.8733 26.7007 15.1 25.6741 15.1ZM25.6741 13.84C26.4341 13.84 27.1074 13.6733 27.6941 13.34C28.2807 12.9933 28.7407 12.5133 29.0741 11.9C29.4207 11.2733 29.5941 10.5533 29.5941 9.74C29.5941 8.91333 29.4207 8.19333 29.0741 7.58C28.7407 6.96667 28.2807 6.49333 27.6941 6.16C27.1074 5.81333 26.4407 5.64 25.6941 5.64C24.9474 5.64 24.2807 5.81333 23.6941 6.16C23.1074 6.49333 22.6407 6.96667 22.2941 7.58C21.9474 8.19333 21.7741 8.91333 21.7741 9.74C21.7741 10.5533 21.9474 11.2733 22.2941 11.9C22.6407 12.5133 23.1074 12.9933 23.6941 13.34C24.2807 13.6733 24.9407 13.84 25.6741 13.84ZM34.1731 15V3.18C34.1731 2.24667 34.4465 1.49333 34.9931 0.919999C35.5398 0.346666 36.3265 0.0599992 37.3531 0.0599992C37.7531 0.0599992 38.1398 0.113333 38.5131 0.22C38.8865 0.326666 39.1998 0.493333 39.4531 0.719999L38.9731 1.78C38.7731 1.60667 38.5398 1.48 38.2731 1.4C38.0065 1.30667 37.7198 1.26 37.4131 1.26C36.8131 1.26 36.3531 1.42667 36.0331 1.76C35.7131 2.09333 35.5531 2.58667 35.5531 3.24V4.84L35.5931 5.5V15H34.1731ZM32.2931 5.68V4.5H38.7931V5.68H32.2931ZM40.7131 15V4.5H42.1331V15H40.7131ZM41.4331 2.18C41.1398 2.18 40.8931 2.08 40.6931 1.88C40.4931 1.68 40.3931 1.44 40.3931 1.16C40.3931 0.879999 40.4931 0.646665 40.6931 0.459999C40.8931 0.259999 41.1398 0.159999 41.4331 0.159999C41.7265 0.159999 41.9731 0.253332 42.1731 0.439999C42.3731 0.626666 42.4731 0.859999 42.4731 1.14C42.4731 1.43333 42.3731 1.68 42.1731 1.88C41.9865 2.08 41.7398 2.18 41.4331 2.18ZM46.1206 15V0.159999H47.5406V15H46.1206ZM55.9517 15.1C54.8584 15.1 53.8984 14.8733 53.0717 14.42C52.2451 13.9533 51.5984 13.32 51.1317 12.52C50.6651 11.7067 50.4317 10.78 50.4317 9.74C50.4317 8.7 50.6517 7.78 51.0917 6.98C51.5451 6.18 52.1584 5.55333 52.9317 5.1C53.7184 4.63333 54.5984 4.4 55.5717 4.4C56.5584 4.4 57.4317 4.62667 58.1917 5.08C58.9651 5.52 59.5717 6.14667 60.0117 6.96C60.4517 7.76 60.6717 8.68667 60.6717 9.74C60.6717 9.80667 60.6651 9.88 60.6517 9.96C60.6517 10.0267 60.6517 10.1 60.6517 10.18H51.5117V9.12H59.8917L59.3317 9.54C59.3317 8.78 59.1651 8.10667 58.8317 7.52C58.5117 6.92 58.0717 6.45333 57.5117 6.12C56.9517 5.78667 56.3051 5.62 55.5717 5.62C54.8517 5.62 54.2051 5.78667 53.6317 6.12C53.0584 6.45333 52.6117 6.92 52.2917 7.52C51.9717 8.12 51.8117 8.80667 51.8117 9.58V9.8C51.8117 10.6 51.9851 11.3067 52.3317 11.92C52.6917 12.52 53.1851 12.9933 53.8117 13.34C54.4517 13.6733 55.1784 13.84 55.9917 13.84C56.6317 13.84 57.2251 13.7267 57.7717 13.5C58.3317 13.2733 58.8117 12.9267 59.2117 12.46L60.0117 13.38C59.5451 13.94 58.9584 14.3667 58.2517 14.66C57.5584 14.9533 56.7917 15.1 55.9517 15.1Z" fill="white"/>
</svg>
