<svg width="128" height="19" viewBox="0 0 128 19" fill="none" xmlns="http://www.w3.org/2000/svg">
<path d="M6.0743 15.12C4.28763 15.12 2.88096 14.6067 1.8543 13.58C0.82763 12.5533 0.314297 11.0333 0.314297 9.02V0.999999H1.7943V8.96C1.7943 10.6133 2.16763 11.8333 2.9143 12.62C3.66096 13.4067 4.7143 13.8 6.0743 13.8C7.44763 13.8 8.50763 13.4067 9.2543 12.62C10.001 11.8333 10.3743 10.6133 10.3743 8.96V0.999999H11.8143V9.02C11.8143 11.0333 11.301 12.5533 10.2743 13.58C9.26096 14.6067 7.86096 15.12 6.0743 15.12ZM21.3941 15.1C20.4875 15.1 19.6675 14.8933 18.9341 14.48C18.2008 14.0533 17.6141 13.4467 17.1741 12.66C16.7475 11.86 16.5341 10.8867 16.5341 9.74C16.5341 8.59333 16.7475 7.62667 17.1741 6.84C17.6008 6.04 18.1808 5.43333 18.9141 5.02C19.6475 4.60667 20.4741 4.4 21.3941 4.4C22.3941 4.4 23.2875 4.62667 24.0741 5.08C24.8741 5.52 25.5008 6.14667 25.9541 6.96C26.4075 7.76 26.6341 8.68667 26.6341 9.74C26.6341 10.8067 26.4075 11.74 25.9541 12.54C25.5008 13.34 24.8741 13.9667 24.0741 14.42C23.2875 14.8733 22.3941 15.1 21.3941 15.1ZM15.9741 18.88V4.5H17.3341V7.66L17.1941 9.76L17.3941 11.88V18.88H15.9741ZM21.2941 13.84C22.0408 13.84 22.7075 13.6733 23.2941 13.34C23.8808 12.9933 24.3475 12.5133 24.6941 11.9C25.0408 11.2733 25.2141 10.5533 25.2141 9.74C25.2141 8.92667 25.0408 8.21333 24.6941 7.6C24.3475 6.98667 23.8808 6.50667 23.2941 6.16C22.7075 5.81333 22.0408 5.64 21.2941 5.64C20.5475 5.64 19.8741 5.81333 19.2741 6.16C18.6875 6.50667 18.2208 6.98667 17.8741 7.6C17.5408 8.21333 17.3741 8.92667 17.3741 9.74C17.3741 10.5533 17.5408 11.2733 17.8741 11.9C18.2208 12.5133 18.6875 12.9933 19.2741 13.34C19.8741 13.6733 20.5475 13.84 21.2941 13.84ZM33.7088 15.1C32.7088 15.1 31.8088 14.8733 31.0088 14.42C30.2222 13.9667 29.6022 13.34 29.1488 12.54C28.6955 11.7267 28.4688 10.7933 28.4688 9.74C28.4688 8.67333 28.6955 7.74 29.1488 6.94C29.6022 6.14 30.2222 5.52 31.0088 5.08C31.8088 4.62667 32.7088 4.4 33.7088 4.4C34.6288 4.4 35.4488 4.60667 36.1688 5.02C36.9022 5.43333 37.4822 6.04 37.9088 6.84C38.3488 7.62667 38.5688 8.59333 38.5688 9.74C38.5688 10.8733 38.3555 11.84 37.9288 12.64C37.5022 13.44 36.9222 14.0533 36.1888 14.48C35.4688 14.8933 34.6422 15.1 33.7088 15.1ZM33.8088 13.84C34.5555 13.84 35.2222 13.6733 35.8088 13.34C36.4088 12.9933 36.8755 12.5133 37.2088 11.9C37.5555 11.2733 37.7288 10.5533 37.7288 9.74C37.7288 8.91333 37.5555 8.19333 37.2088 7.58C36.8755 6.96667 36.4088 6.49333 35.8088 6.16C35.2222 5.81333 34.5555 5.64 33.8088 5.64C33.0755 5.64 32.4155 5.81333 31.8288 6.16C31.2422 6.49333 30.7755 6.96667 30.4288 7.58C30.0822 8.19333 29.9088 8.91333 29.9088 9.74C29.9088 10.5533 30.0822 11.2733 30.4288 11.9C30.7755 12.5133 31.2422 12.9933 31.8288 13.34C32.4155 13.6733 33.0755 13.84 33.8088 13.84ZM37.7688 15V11.84L37.9088 9.72L37.7088 7.6V0.159999H39.1288V15H37.7688ZM49.6635 15V12.68L49.6035 12.3V8.42C49.6035 7.52667 49.3502 6.84 48.8435 6.36C48.3502 5.88 47.6102 5.64 46.6235 5.64C45.9435 5.64 45.2968 5.75333 44.6835 5.98C44.0702 6.20667 43.5502 6.50667 43.1235 6.88L42.4835 5.82C43.0168 5.36667 43.6568 5.02 44.4035 4.78C45.1502 4.52667 45.9368 4.4 46.7635 4.4C48.1235 4.4 49.1702 4.74 49.9035 5.42C50.6502 6.08667 51.0235 7.10667 51.0235 8.48V15H49.6635ZM46.0435 15.1C45.2568 15.1 44.5702 14.9733 43.9835 14.72C43.4102 14.4533 42.9702 14.0933 42.6635 13.64C42.3568 13.1733 42.2035 12.64 42.2035 12.04C42.2035 11.4933 42.3302 11 42.5835 10.56C42.8502 10.1067 43.2768 9.74667 43.8635 9.48C44.4635 9.2 45.2635 9.06 46.2635 9.06H49.8835V10.12H46.3035C45.2902 10.12 44.5835 10.3 44.1835 10.66C43.7968 11.02 43.6035 11.4667 43.6035 12C43.6035 12.6 43.8368 13.08 44.3035 13.44C44.7702 13.8 45.4235 13.98 46.2635 13.98C47.0635 13.98 47.7502 13.8 48.3235 13.44C48.9102 13.0667 49.3368 12.5333 49.6035 11.84L49.9235 12.82C49.6568 13.5133 49.1902 14.0667 48.5235 14.48C47.8702 14.8933 47.0435 15.1 46.0435 15.1ZM58.2004 15.1C57.2137 15.1 56.4537 14.8333 55.9204 14.3C55.3871 13.7667 55.1204 13.0133 55.1204 12.04V2.18H56.5404V11.96C56.5404 12.5733 56.6937 13.0467 57.0004 13.38C57.3204 13.7133 57.7737 13.88 58.3604 13.88C58.9871 13.88 59.5071 13.7 59.9204 13.34L60.4204 14.36C60.1404 14.6133 59.8004 14.8 59.4004 14.92C59.0137 15.04 58.6137 15.1 58.2004 15.1ZM53.2404 5.68V4.5H59.7404V5.68H53.2404ZM67.0943 15.1C66.001 15.1 65.041 14.8733 64.2143 14.42C63.3876 13.9533 62.741 13.32 62.2743 12.52C61.8076 11.7067 61.5743 10.78 61.5743 9.74C61.5743 8.7 61.7943 7.78 62.2343 6.98C62.6876 6.18 63.301 5.55333 64.0743 5.1C64.861 4.63333 65.741 4.4 66.7143 4.4C67.701 4.4 68.5743 4.62667 69.3343 5.08C70.1076 5.52 70.7143 6.14667 71.1543 6.96C71.5943 7.76 71.8143 8.68667 71.8143 9.74C71.8143 9.80667 71.8076 9.88 71.7943 9.96C71.7943 10.0267 71.7943 10.1 71.7943 10.18H62.6543V9.12H71.0343L70.4743 9.54C70.4743 8.78 70.3076 8.10667 69.9743 7.52C69.6543 6.92 69.2143 6.45333 68.6543 6.12C68.0943 5.78667 67.4476 5.62 66.7143 5.62C65.9943 5.62 65.3476 5.78667 64.7743 6.12C64.201 6.45333 63.7543 6.92 63.4343 7.52C63.1143 8.12 62.9543 8.80667 62.9543 9.58V9.8C62.9543 10.6 63.1276 11.3067 63.4743 11.92C63.8343 12.52 64.3276 12.9933 64.9543 13.34C65.5943 13.6733 66.321 13.84 67.1343 13.84C67.7743 13.84 68.3676 13.7267 68.9143 13.5C69.4743 13.2733 69.9543 12.9267 70.3543 12.46L71.1543 13.38C70.6876 13.94 70.101 14.3667 69.3943 14.66C68.701 14.9533 67.9343 15.1 67.0943 15.1ZM84.099 15.12C83.059 15.12 82.059 14.9533 81.099 14.62C80.1523 14.2733 79.419 13.8333 78.899 13.3L79.479 12.16C79.9723 12.64 80.6323 13.0467 81.459 13.38C82.299 13.7 83.179 13.86 84.099 13.86C84.979 13.86 85.6923 13.7533 86.239 13.54C86.799 13.3133 87.2057 13.0133 87.459 12.64C87.7257 12.2667 87.859 11.8533 87.859 11.4C87.859 10.8533 87.699 10.4133 87.379 10.08C87.0723 9.74667 86.6657 9.48667 86.159 9.3C85.6523 9.1 85.0923 8.92667 84.479 8.78C83.8657 8.63333 83.2523 8.48 82.639 8.32C82.0257 8.14667 81.459 7.92 80.939 7.64C80.4323 7.36 80.019 6.99333 79.699 6.54C79.3923 6.07333 79.239 5.46667 79.239 4.72C79.239 4.02667 79.419 3.39333 79.779 2.82C80.1523 2.23333 80.719 1.76667 81.479 1.42C82.239 1.06 83.2123 0.879999 84.399 0.879999C85.1857 0.879999 85.9657 0.993333 86.739 1.22C87.5123 1.43333 88.179 1.73333 88.739 2.12L88.239 3.3C87.639 2.9 86.999 2.60667 86.319 2.42C85.6523 2.23333 85.0057 2.14 84.379 2.14C83.539 2.14 82.8457 2.25333 82.299 2.48C81.7523 2.70667 81.3457 3.01333 81.079 3.4C80.8257 3.77333 80.699 4.2 80.699 4.68C80.699 5.22667 80.8523 5.66667 81.159 6C81.479 6.33333 81.8923 6.59333 82.399 6.78C82.919 6.96667 83.4857 7.13333 84.099 7.28C84.7123 7.42667 85.319 7.58667 85.919 7.76C86.5323 7.93333 87.0923 8.16 87.599 8.44C88.119 8.70667 88.5323 9.06667 88.839 9.52C89.159 9.97333 89.319 10.5667 89.319 11.3C89.319 11.98 89.1323 12.6133 88.759 13.2C88.3857 13.7733 87.8123 14.24 87.039 14.6C86.279 14.9467 85.299 15.12 84.099 15.12ZM93.3637 12.28L93.4037 10.46L99.9437 4.5H101.684L97.0637 8.92L96.2637 9.6L93.3637 12.28ZM92.2437 15V0.159999H93.6637V15H92.2437ZM100.384 15L96.0037 9.54L96.9237 8.44L102.124 15H100.384ZM104.255 15V4.5H105.675V15H104.255ZM104.975 2.18C104.682 2.18 104.435 2.08 104.235 1.88C104.035 1.68 103.935 1.44 103.935 1.16C103.935 0.879999 104.035 0.646665 104.235 0.459999C104.435 0.259999 104.682 0.159999 104.975 0.159999C105.269 0.159999 105.515 0.253332 105.715 0.439999C105.915 0.626666 106.015 0.859999 106.015 1.14C106.015 1.43333 105.915 1.68 105.715 1.88C105.529 2.08 105.282 2.18 104.975 2.18ZM109.626 15V0.159999H111.046V15H109.626ZM114.998 15V0.159999H116.418V15H114.998ZM123.189 15.1C122.322 15.1 121.502 14.98 120.729 14.74C119.955 14.4867 119.349 14.1733 118.909 13.8L119.549 12.68C119.975 13 120.522 13.28 121.189 13.52C121.855 13.7467 122.555 13.86 123.289 13.86C124.289 13.86 125.009 13.7067 125.449 13.4C125.889 13.08 126.109 12.66 126.109 12.14C126.109 11.7533 125.982 11.4533 125.729 11.24C125.489 11.0133 125.169 10.8467 124.769 10.74C124.369 10.62 123.922 10.52 123.429 10.44C122.935 10.36 122.442 10.2667 121.949 10.16C121.469 10.0533 121.029 9.9 120.629 9.7C120.229 9.48667 119.902 9.2 119.649 8.84C119.409 8.48 119.289 8 119.289 7.4C119.289 6.82667 119.449 6.31333 119.769 5.86C120.089 5.40667 120.555 5.05333 121.169 4.8C121.795 4.53333 122.555 4.4 123.449 4.4C124.129 4.4 124.809 4.49333 125.489 4.68C126.169 4.85333 126.729 5.08667 127.169 5.38L126.549 6.52C126.082 6.2 125.582 5.97333 125.049 5.84C124.515 5.69333 123.982 5.62 123.449 5.62C122.502 5.62 121.802 5.78667 121.349 6.12C120.909 6.44 120.689 6.85333 120.689 7.36C120.689 7.76 120.809 8.07333 121.049 8.3C121.302 8.52667 121.629 8.70667 122.029 8.84C122.442 8.96 122.889 9.06 123.369 9.14C123.862 9.22 124.349 9.32 124.829 9.44C125.322 9.54667 125.769 9.7 126.169 9.9C126.582 10.0867 126.909 10.36 127.149 10.72C127.402 11.0667 127.529 11.5267 127.529 12.1C127.529 12.7133 127.355 13.2467 127.009 13.7C126.675 14.14 126.182 14.4867 125.529 14.74C124.889 14.98 124.109 15.1 123.189 15.1Z" fill="white"/>
</svg>
