<svg width="189" height="19" viewBox="0 0 189 19" fill="none" xmlns="http://www.w3.org/2000/svg">
<path d="M6.53914 15.12C4.75247 15.12 3.34581 14.6067 2.31914 13.58C1.29247 12.5533 0.779141 11.0333 0.779141 9.02V0.999999H2.25914V8.96C2.25914 10.6133 2.63247 11.8333 3.37914 12.62C4.12581 13.4067 5.17914 13.8 6.53914 13.8C7.91247 13.8 8.97247 13.4067 9.71914 12.62C10.4658 11.8333 10.8391 10.6133 10.8391 8.96V0.999999H12.2791V9.02C12.2791 11.0333 11.7658 12.5533 10.7391 13.58C9.72581 14.6067 8.32581 15.12 6.53914 15.12ZM21.859 15.1C20.9523 15.1 20.1323 14.8933 19.399 14.48C18.6657 14.0533 18.079 13.4467 17.639 12.66C17.2123 11.86 16.999 10.8867 16.999 9.74C16.999 8.59333 17.2123 7.62667 17.639 6.84C18.0657 6.04 18.6457 5.43333 19.379 5.02C20.1123 4.60667 20.939 4.4 21.859 4.4C22.859 4.4 23.7523 4.62667 24.539 5.08C25.339 5.52 25.9657 6.14667 26.419 6.96C26.8723 7.76 27.099 8.68667 27.099 9.74C27.099 10.8067 26.8723 11.74 26.419 12.54C25.9657 13.34 25.339 13.9667 24.539 14.42C23.7523 14.8733 22.859 15.1 21.859 15.1ZM16.439 18.88V4.5H17.799V7.66L17.659 9.76L17.859 11.88V18.88H16.439ZM21.759 13.84C22.5057 13.84 23.1723 13.6733 23.759 13.34C24.3457 12.9933 24.8123 12.5133 25.159 11.9C25.5057 11.2733 25.679 10.5533 25.679 9.74C25.679 8.92667 25.5057 8.21333 25.159 7.6C24.8123 6.98667 24.3457 6.50667 23.759 6.16C23.1723 5.81333 22.5057 5.64 21.759 5.64C21.0123 5.64 20.339 5.81333 19.739 6.16C19.1523 6.50667 18.6857 6.98667 18.339 7.6C18.0057 8.21333 17.839 8.92667 17.839 9.74C17.839 10.5533 18.0057 11.2733 18.339 11.9C18.6857 12.5133 19.1523 12.9933 19.739 13.34C20.339 13.6733 21.0123 13.84 21.759 13.84ZM29.9937 15V0.159999H31.4137V15H29.9937ZM39.6448 15.1C38.6314 15.1 37.7181 14.8733 36.9048 14.42C36.1048 13.9533 35.4714 13.32 35.0048 12.52C34.5381 11.7067 34.3048 10.78 34.3048 9.74C34.3048 8.68667 34.5381 7.76 35.0048 6.96C35.4714 6.16 36.1048 5.53333 36.9048 5.08C37.7048 4.62667 38.6181 4.4 39.6448 4.4C40.6848 4.4 41.6048 4.62667 42.4048 5.08C43.2181 5.53333 43.8514 6.16 44.3048 6.96C44.7714 7.76 45.0048 8.68667 45.0048 9.74C45.0048 10.78 44.7714 11.7067 44.3048 12.52C43.8514 13.32 43.2181 13.9533 42.4048 14.42C41.5914 14.8733 40.6714 15.1 39.6448 15.1ZM39.6448 13.84C40.4048 13.84 41.0781 13.6733 41.6648 13.34C42.2514 12.9933 42.7114 12.5133 43.0448 11.9C43.3914 11.2733 43.5648 10.5533 43.5648 9.74C43.5648 8.91333 43.3914 8.19333 43.0448 7.58C42.7114 6.96667 42.2514 6.49333 41.6648 6.16C41.0781 5.81333 40.4114 5.64 39.6648 5.64C38.9181 5.64 38.2514 5.81333 37.6648 6.16C37.0781 6.49333 36.6114 6.96667 36.2648 7.58C35.9181 8.19333 35.7448 8.91333 35.7448 9.74C35.7448 10.5533 35.9181 11.2733 36.2648 11.9C36.6114 12.5133 37.0781 12.9933 37.6648 13.34C38.2514 13.6733 38.9114 13.84 39.6448 13.84ZM54.4252 15V12.68L54.3652 12.3V8.42C54.3652 7.52667 54.1119 6.84 53.6052 6.36C53.1119 5.88 52.3719 5.64 51.3852 5.64C50.7052 5.64 50.0586 5.75333 49.4452 5.98C48.8319 6.20667 48.3119 6.50667 47.8852 6.88L47.2452 5.82C47.7786 5.36667 48.4186 5.02 49.1652 4.78C49.9119 4.52667 50.6986 4.4 51.5252 4.4C52.8852 4.4 53.9319 4.74 54.6652 5.42C55.4119 6.08667 55.7852 7.10667 55.7852 8.48V15H54.4252ZM50.8052 15.1C50.0186 15.1 49.3319 14.9733 48.7452 14.72C48.1719 14.4533 47.7319 14.0933 47.4252 13.64C47.1186 13.1733 46.9652 12.64 46.9652 12.04C46.9652 11.4933 47.0919 11 47.3452 10.56C47.6119 10.1067 48.0386 9.74667 48.6252 9.48C49.2252 9.2 50.0252 9.06 51.0252 9.06H54.6452V10.12H51.0652C50.0519 10.12 49.3452 10.3 48.9452 10.66C48.5586 11.02 48.3652 11.4667 48.3652 12C48.3652 12.6 48.5986 13.08 49.0652 13.44C49.5319 13.8 50.1852 13.98 51.0252 13.98C51.8252 13.98 52.5119 13.8 53.0852 13.44C53.6719 13.0667 54.0986 12.5333 54.3652 11.84L54.6852 12.82C54.4186 13.5133 53.9519 14.0667 53.2852 14.48C52.6319 14.8933 51.8052 15.1 50.8052 15.1ZM63.8221 15.1C62.8221 15.1 61.9221 14.8733 61.1221 14.42C60.3354 13.9667 59.7154 13.34 59.2621 12.54C58.8088 11.7267 58.5821 10.7933 58.5821 9.74C58.5821 8.67333 58.8088 7.74 59.2621 6.94C59.7154 6.14 60.3354 5.52 61.1221 5.08C61.9221 4.62667 62.8221 4.4 63.8221 4.4C64.7421 4.4 65.5621 4.60667 66.2821 5.02C67.0154 5.43333 67.5954 6.04 68.0221 6.84C68.4621 7.62667 68.6821 8.59333 68.6821 9.74C68.6821 10.8733 68.4688 11.84 68.0421 12.64C67.6154 13.44 67.0354 14.0533 66.3021 14.48C65.5821 14.8933 64.7554 15.1 63.8221 15.1ZM63.9221 13.84C64.6688 13.84 65.3354 13.6733 65.9221 13.34C66.5221 12.9933 66.9888 12.5133 67.3221 11.9C67.6688 11.2733 67.8421 10.5533 67.8421 9.74C67.8421 8.91333 67.6688 8.19333 67.3221 7.58C66.9888 6.96667 66.5221 6.49333 65.9221 6.16C65.3354 5.81333 64.6688 5.64 63.9221 5.64C63.1888 5.64 62.5288 5.81333 61.9421 6.16C61.3554 6.49333 60.8888 6.96667 60.5421 7.58C60.1954 8.19333 60.0221 8.91333 60.0221 9.74C60.0221 10.5533 60.1954 11.2733 60.5421 11.9C60.8888 12.5133 61.3554 12.9933 61.9421 13.34C62.5288 13.6733 63.1888 13.84 63.9221 13.84ZM67.8821 15V11.84L68.0221 9.72L67.8221 7.6V0.159999H69.2421V15H67.8821ZM84.8112 15.12C83.7578 15.12 82.7845 14.9467 81.8912 14.6C80.9978 14.24 80.2245 13.74 79.5712 13.1C78.9178 12.46 78.4045 11.7067 78.0312 10.84C77.6712 9.97333 77.4912 9.02667 77.4912 8C77.4912 6.97333 77.6712 6.02667 78.0312 5.16C78.4045 4.29333 78.9178 3.54 79.5712 2.9C80.2378 2.26 81.0178 1.76667 81.9112 1.42C82.8045 1.06 83.7778 0.879999 84.8312 0.879999C85.8445 0.879999 86.7978 1.05333 87.6912 1.4C88.5845 1.73333 89.3378 2.24 89.9512 2.92L89.0112 3.86C88.4378 3.27333 87.8045 2.85333 87.1112 2.6C86.4178 2.33333 85.6712 2.2 84.8712 2.2C84.0312 2.2 83.2512 2.34667 82.5312 2.64C81.8112 2.92 81.1845 3.32667 80.6512 3.86C80.1178 4.38 79.6978 4.99333 79.3912 5.7C79.0978 6.39333 78.9512 7.16 78.9512 8C78.9512 8.84 79.0978 9.61333 79.3912 10.32C79.6978 11.0133 80.1178 11.6267 80.6512 12.16C81.1845 12.68 81.8112 13.0867 82.5312 13.38C83.2512 13.66 84.0312 13.8 84.8712 13.8C85.6712 13.8 86.4178 13.6667 87.1112 13.4C87.8045 13.1333 88.4378 12.7067 89.0112 12.12L89.9512 13.06C89.3378 13.74 88.5845 14.2533 87.6912 14.6C86.7978 14.9467 85.8378 15.12 84.8112 15.12ZM96.7974 15.1C95.7041 15.1 94.7441 14.8733 93.9174 14.42C93.0908 13.9533 92.4441 13.32 91.9774 12.52C91.5108 11.7067 91.2774 10.78 91.2774 9.74C91.2774 8.7 91.4974 7.78 91.9374 6.98C92.3908 6.18 93.0041 5.55333 93.7774 5.1C94.5641 4.63333 95.4441 4.4 96.4174 4.4C97.4041 4.4 98.2774 4.62667 99.0374 5.08C99.8108 5.52 100.417 6.14667 100.857 6.96C101.297 7.76 101.517 8.68667 101.517 9.74C101.517 9.80667 101.511 9.88 101.497 9.96C101.497 10.0267 101.497 10.1 101.497 10.18H92.3574V9.12H100.737L100.177 9.54C100.177 8.78 100.011 8.10667 99.6774 7.52C99.3574 6.92 98.9174 6.45333 98.3574 6.12C97.7974 5.78667 97.1508 5.62 96.4174 5.62C95.6974 5.62 95.0508 5.78667 94.4774 6.12C93.9041 6.45333 93.4574 6.92 93.1374 7.52C92.8174 8.12 92.6574 8.80667 92.6574 9.58V9.8C92.6574 10.6 92.8308 11.3067 93.1774 11.92C93.5374 12.52 94.0308 12.9933 94.6574 13.34C95.2974 13.6733 96.0241 13.84 96.8374 13.84C97.4774 13.84 98.0708 13.7267 98.6174 13.5C99.1774 13.2733 99.6574 12.9267 100.057 12.46L100.857 13.38C100.391 13.94 99.8041 14.3667 99.0974 14.66C98.4041 14.9533 97.6374 15.1 96.7974 15.1ZM104.408 15V4.5H105.768V7.36L105.628 6.86C105.921 6.06 106.414 5.45333 107.108 5.04C107.801 4.61333 108.661 4.4 109.688 4.4V5.78C109.634 5.78 109.581 5.78 109.528 5.78C109.474 5.76667 109.421 5.76 109.368 5.76C108.261 5.76 107.394 6.1 106.768 6.78C106.141 7.44667 105.828 8.4 105.828 9.64V15H104.408ZM116.048 15.1C115.061 15.1 114.301 14.8333 113.768 14.3C113.235 13.7667 112.968 13.0133 112.968 12.04V2.18H114.388V11.96C114.388 12.5733 114.541 13.0467 114.848 13.38C115.168 13.7133 115.621 13.88 116.208 13.88C116.835 13.88 117.355 13.7 117.768 13.34L118.268 14.36C117.988 14.6133 117.648 14.8 117.248 14.92C116.861 15.04 116.461 15.1 116.048 15.1ZM111.088 5.68V4.5H117.588V5.68H111.088ZM120.853 15V4.5H122.273V15H120.853ZM121.573 2.18C121.28 2.18 121.033 2.08 120.833 1.88C120.633 1.68 120.533 1.44 120.533 1.16C120.533 0.879999 120.633 0.646665 120.833 0.459999C121.033 0.259999 121.28 0.159999 121.573 0.159999C121.866 0.159999 122.113 0.253332 122.313 0.439999C122.513 0.626666 122.613 0.859999 122.613 1.14C122.613 1.43333 122.513 1.68 122.313 1.88C122.126 2.08 121.88 2.18 121.573 2.18ZM126.464 15V3.18C126.464 2.24667 126.737 1.49333 127.284 0.919999C127.831 0.346666 128.617 0.0599992 129.644 0.0599992C130.044 0.0599992 130.431 0.113333 130.804 0.22C131.177 0.326666 131.491 0.493333 131.744 0.719999L131.264 1.78C131.064 1.60667 130.831 1.48 130.564 1.4C130.297 1.30667 130.011 1.26 129.704 1.26C129.104 1.26 128.644 1.42667 128.324 1.76C128.004 2.09333 127.844 2.58667 127.844 3.24V4.84L127.884 5.5V15H126.464ZM124.584 5.68V4.5H131.084V5.68H124.584ZM133.004 15V4.5H134.424V15H133.004ZM133.724 2.18C133.431 2.18 133.184 2.08 132.984 1.88C132.784 1.68 132.684 1.44 132.684 1.16C132.684 0.879999 132.784 0.646665 132.984 0.459999C133.184 0.259999 133.431 0.159999 133.724 0.159999C134.017 0.159999 134.264 0.253332 134.464 0.439999C134.664 0.626666 134.764 0.859999 134.764 1.14C134.764 1.43333 134.664 1.68 134.464 1.88C134.277 2.08 134.031 2.18 133.724 2.18ZM142.772 15.1C141.732 15.1 140.798 14.8733 139.972 14.42C139.158 13.9533 138.518 13.32 138.052 12.52C137.585 11.7067 137.352 10.78 137.352 9.74C137.352 8.68667 137.585 7.76 138.052 6.96C138.518 6.16 139.158 5.53333 139.972 5.08C140.798 4.62667 141.732 4.4 142.772 4.4C143.665 4.4 144.472 4.57333 145.192 4.92C145.912 5.26667 146.478 5.78667 146.892 6.48L145.832 7.2C145.472 6.66667 145.025 6.27333 144.492 6.02C143.958 5.76667 143.378 5.64 142.752 5.64C142.005 5.64 141.332 5.81333 140.732 6.16C140.132 6.49333 139.658 6.96667 139.312 7.58C138.965 8.19333 138.792 8.91333 138.792 9.74C138.792 10.5667 138.965 11.2867 139.312 11.9C139.658 12.5133 140.132 12.9933 140.732 13.34C141.332 13.6733 142.005 13.84 142.752 13.84C143.378 13.84 143.958 13.7133 144.492 13.46C145.025 13.2067 145.472 12.82 145.832 12.3L146.892 13.02C146.478 13.7 145.912 14.22 145.192 14.58C144.472 14.9267 143.665 15.1 142.772 15.1ZM156.261 15V12.68L156.201 12.3V8.42C156.201 7.52667 155.948 6.84 155.441 6.36C154.948 5.88 154.208 5.64 153.221 5.64C152.541 5.64 151.895 5.75333 151.281 5.98C150.668 6.20667 150.148 6.50667 149.721 6.88L149.081 5.82C149.615 5.36667 150.255 5.02 151.001 4.78C151.748 4.52667 152.535 4.4 153.361 4.4C154.721 4.4 155.768 4.74 156.501 5.42C157.248 6.08667 157.621 7.10667 157.621 8.48V15H156.261ZM152.641 15.1C151.855 15.1 151.168 14.9733 150.581 14.72C150.008 14.4533 149.568 14.0933 149.261 13.64C148.955 13.1733 148.801 12.64 148.801 12.04C148.801 11.4933 148.928 11 149.181 10.56C149.448 10.1067 149.875 9.74667 150.461 9.48C151.061 9.2 151.861 9.06 152.861 9.06H156.481V10.12H152.901C151.888 10.12 151.181 10.3 150.781 10.66C150.395 11.02 150.201 11.4667 150.201 12C150.201 12.6 150.435 13.08 150.901 13.44C151.368 13.8 152.021 13.98 152.861 13.98C153.661 13.98 154.348 13.8 154.921 13.44C155.508 13.0667 155.935 12.5333 156.201 11.84L156.521 12.82C156.255 13.5133 155.788 14.0667 155.121 14.48C154.468 14.8933 153.641 15.1 152.641 15.1ZM164.798 15.1C163.811 15.1 163.051 14.8333 162.518 14.3C161.985 13.7667 161.718 13.0133 161.718 12.04V2.18H163.138V11.96C163.138 12.5733 163.291 13.0467 163.598 13.38C163.918 13.7133 164.371 13.88 164.958 13.88C165.585 13.88 166.105 13.7 166.518 13.34L167.018 14.36C166.738 14.6133 166.398 14.8 165.998 14.92C165.611 15.04 165.211 15.1 164.798 15.1ZM159.838 5.68V4.5H166.338V5.68H159.838ZM173.692 15.1C172.599 15.1 171.639 14.8733 170.812 14.42C169.985 13.9533 169.339 13.32 168.872 12.52C168.405 11.7067 168.172 10.78 168.172 9.74C168.172 8.7 168.392 7.78 168.832 6.98C169.285 6.18 169.899 5.55333 170.672 5.1C171.459 4.63333 172.339 4.4 173.312 4.4C174.299 4.4 175.172 4.62667 175.932 5.08C176.705 5.52 177.312 6.14667 177.752 6.96C178.192 7.76 178.412 8.68667 178.412 9.74C178.412 9.80667 178.405 9.88 178.392 9.96C178.392 10.0267 178.392 10.1 178.392 10.18H169.252V9.12H177.632L177.072 9.54C177.072 8.78 176.905 8.10667 176.572 7.52C176.252 6.92 175.812 6.45333 175.252 6.12C174.692 5.78667 174.045 5.62 173.312 5.62C172.592 5.62 171.945 5.78667 171.372 6.12C170.799 6.45333 170.352 6.92 170.032 7.52C169.712 8.12 169.552 8.80667 169.552 9.58V9.8C169.552 10.6 169.725 11.3067 170.072 11.92C170.432 12.52 170.925 12.9933 171.552 13.34C172.192 13.6733 172.919 13.84 173.732 13.84C174.372 13.84 174.965 13.7267 175.512 13.5C176.072 13.2733 176.552 12.9267 176.952 12.46L177.752 13.38C177.285 13.94 176.699 14.3667 175.992 14.66C175.299 14.9533 174.532 15.1 173.692 15.1ZM184.122 15.1C183.256 15.1 182.436 14.98 181.662 14.74C180.889 14.4867 180.282 14.1733 179.842 13.8L180.482 12.68C180.909 13 181.456 13.28 182.122 13.52C182.789 13.7467 183.489 13.86 184.222 13.86C185.222 13.86 185.942 13.7067 186.382 13.4C186.822 13.08 187.042 12.66 187.042 12.14C187.042 11.7533 186.916 11.4533 186.662 11.24C186.422 11.0133 186.102 10.8467 185.702 10.74C185.302 10.62 184.856 10.52 184.362 10.44C183.869 10.36 183.376 10.2667 182.882 10.16C182.402 10.0533 181.962 9.9 181.562 9.7C181.162 9.48667 180.836 9.2 180.582 8.84C180.342 8.48 180.222 8 180.222 7.4C180.222 6.82667 180.382 6.31333 180.702 5.86C181.022 5.40667 181.489 5.05333 182.102 4.8C182.729 4.53333 183.489 4.4 184.382 4.4C185.062 4.4 185.742 4.49333 186.422 4.68C187.102 4.85333 187.662 5.08667 188.102 5.38L187.482 6.52C187.016 6.2 186.516 5.97333 185.982 5.84C185.449 5.69333 184.916 5.62 184.382 5.62C183.436 5.62 182.736 5.78667 182.282 6.12C181.842 6.44 181.622 6.85333 181.622 7.36C181.622 7.76 181.742 8.07333 181.982 8.3C182.236 8.52667 182.562 8.70667 182.962 8.84C183.376 8.96 183.822 9.06 184.302 9.14C184.796 9.22 185.282 9.32 185.762 9.44C186.256 9.54667 186.702 9.7 187.102 9.9C187.516 10.0867 187.842 10.36 188.082 10.72C188.336 11.0667 188.462 11.5267 188.462 12.1C188.462 12.7133 188.289 13.2467 187.942 13.7C187.609 14.14 187.116 14.4867 186.462 14.74C185.822 14.98 185.042 15.1 184.122 15.1Z" fill="white"/>
</svg>
