<svg width="638" height="800" viewBox="0 0 638 800" fill="none" xmlns="http://www.w3.org/2000/svg">
<g opacity="0.6">
<path d="M296.723 259.909C295.612 256.21 287.488 246.265 274.764 234.126C232.63 193.932 204.03 133.909 222.153 78.57C226.755 64.5168 234.09 51.5119 243.736 40.3034L370.439 -106.924L777.914 -45.4141L679.691 388.109L620.653 596.777C609.191 637.287 566.893 660.675 526.49 648.842C497.305 640.294 476.063 615.119 472.548 584.912L469.848 561.702C465.315 522.747 440.565 489.074 404.739 473.121L364.402 455.159C313.132 432.328 290.28 365.004 295.83 309.155C298.332 283.98 297.955 264.01 296.723 259.909Z" fill="url(#paint0_linear_543_1368)"/>
<path d="M231.557 303.777C230.299 299.584 221.106 288.319 206.702 274.565C158.901 228.919 126.437 160.791 147.003 97.9772C152.224 82.0313 160.544 67.274 171.485 54.5533L315.22 -112.557L777.391 -42.8047L665.921 449.219L598.913 686.101C585.916 732.047 537.941 758.573 492.118 745.15C459.016 735.453 434.926 706.895 430.946 672.633L427.882 646.259C422.747 602.051 394.666 563.834 354.012 545.724L308.296 525.359C250.138 499.451 224.221 423.092 230.53 359.739C233.379 331.133 232.955 308.435 231.557 303.777Z" fill="url(#paint1_linear_543_1368)"/>
<path d="M237.942 254.699C236.496 249.94 225.837 237.028 209.179 221.319C155.494 170.696 119.264 94.619 142.291 24.5153C148.163 6.63784 157.532 -9.89343 169.852 -24.1167L331.463 -210.693L852.27 -131.883L727.555 418.096L652.699 682.087C638.011 733.884 583.929 763.79 532.25 748.691C494.94 737.79 467.749 705.657 463.171 667.058L459.731 638.05C453.864 588.575 422.342 545.86 376.797 525.666L324.786 502.604C259.329 473.581 230.09 387.508 236.985 316.238C240.031 284.745 239.508 259.853 237.942 254.699Z" stroke="#FF8383" stroke-width="6"/>
</g>
<defs>
<linearGradient id="paint0_linear_543_1368" x1="1389.45" y1="-320.47" x2="-4.26082" y2="337.805" gradientUnits="userSpaceOnUse">
<stop stop-color="#CF7D8A"/>
<stop offset="1" stop-color="#FFB6B6" stop-opacity="0"/>
</linearGradient>
<linearGradient id="paint1_linear_543_1368" x1="1471.06" y1="-355.054" x2="-110.296" y2="391.266" gradientUnits="userSpaceOnUse">
<stop stop-color="#CF7D8A"/>
<stop offset="1" stop-color="#FFB6B6" stop-opacity="0"/>
</linearGradient>
</defs>
</svg>
