<svg width="638" height="800" viewBox="0 0 638 800" fill="none" xmlns="http://www.w3.org/2000/svg">
<g opacity="0.6">
<path d="M296.725 259.909C295.614 256.21 287.49 246.265 274.766 234.126C232.632 193.932 204.032 133.909 222.155 78.57C226.757 64.5168 234.092 51.5119 243.738 40.3034L370.441 -106.924L777.916 -45.4141L679.693 388.109L620.655 596.777C609.193 637.287 566.895 660.675 526.492 648.842C497.307 640.294 476.065 615.119 472.55 584.912L469.85 561.702C465.317 522.747 440.567 489.074 404.741 473.121L364.404 455.159C313.134 432.328 290.282 365.004 295.832 309.155C298.334 283.98 297.957 264.01 296.725 259.909Z" fill="url(#paint0_linear_139_658)"/>
<path d="M231.558 303.779C230.3 299.586 221.107 288.321 206.703 274.567C158.902 228.921 126.438 160.793 147.004 97.9791C152.225 82.0332 160.545 67.276 171.486 54.5553L315.221 -112.555L777.392 -42.8027L665.922 449.221L598.914 686.103C585.917 732.049 537.942 758.575 492.119 745.152C459.017 735.455 434.927 706.897 430.947 672.635L427.883 646.26C422.748 602.053 394.667 563.836 354.013 545.726L308.296 525.361C250.139 499.453 224.222 423.094 230.531 359.74C233.38 331.135 232.956 308.437 231.558 303.779Z" fill="url(#paint1_linear_139_658)"/>
<path d="M237.943 254.699C236.497 249.94 225.838 237.028 209.18 221.319C155.495 170.696 119.265 94.619 142.292 24.5153C148.164 6.63784 157.533 -9.89343 169.853 -24.1167L331.464 -210.693L852.271 -131.883L727.556 418.096L652.7 682.087C638.012 733.884 583.929 763.79 532.25 748.691C494.941 737.79 467.75 705.657 463.172 667.058L459.732 638.05C453.865 588.575 422.343 545.86 376.798 525.666L324.787 502.604C259.33 473.581 230.091 387.508 236.986 316.238C240.032 284.745 239.509 259.853 237.943 254.699Z" stroke="#FF8383" stroke-width="6"/>
</g>
<defs>
<linearGradient id="paint0_linear_139_658" x1="1389.45" y1="-320.47" x2="-4.25887" y2="337.805" gradientUnits="userSpaceOnUse">
<stop stop-color="#CF7D8A"/>
<stop offset="1" stop-color="#FFB6B6" stop-opacity="0"/>
</linearGradient>
<linearGradient id="paint1_linear_139_658" x1="1471.06" y1="-355.052" x2="-110.296" y2="391.267" gradientUnits="userSpaceOnUse">
<stop stop-color="#CF7D8A"/>
<stop offset="1" stop-color="#FFB6B6" stop-opacity="0"/>
</linearGradient>
</defs>
</svg>
