<svg width="615" height="468" viewBox="0 0 615 468" fill="none" xmlns="http://www.w3.org/2000/svg">
<path d="M236 351.732C232.622 353.422 225.111 361.737 216.147 374.403C177.869 428.497 117.48 473.94 51.6198 466.608C35.4939 464.813 19.8483 460.007 5.49579 452.439L-185.5 351.732L-208 -83L292.592 -71.5L541.545 -53.3947C585.72 -50.182 618.646 -11.3226 614.562 32.7803C611.601 64.7677 589.585 91.786 558.855 101.147L530.564 109.765C488.773 122.495 456.857 156.416 446.693 198.904L436.617 241.024C422.602 299.611 357.628 337.069 297.574 341.808C265.891 344.308 240.599 349.431 236 351.732Z" fill="url(#paint0_linear_139_653)"/>
<defs>
<linearGradient id="paint0_linear_139_653" x1="-647.5" y1="-659" x2="304.5" y2="706" gradientUnits="userSpaceOnUse">
<stop stop-color="#CF7D8A"/>
<stop offset="1" stop-color="#FFB6B6" stop-opacity="0"/>
</linearGradient>
</defs>
</svg>
