<svg width="727" height="565" viewBox="0 0 727 565" fill="none" xmlns="http://www.w3.org/2000/svg">
<path d="M243.292 413.684C238.936 415.879 229.161 426.825 217.542 443.468C169.472 512.32 92.9189 569.892 9.46985 560.533C-11.0504 558.231 -30.9513 552.075 -49.1867 542.388L-291.455 413.684L-320 -142L315.089 -127.3L630.159 -104.214C686.646 -100.075 728.747 -50.3957 723.563 6.00494C719.805 46.8952 691.717 81.4641 652.462 93.512L617.046 104.381C563.994 120.664 523.534 163.828 510.715 217.822L497.81 272.174C480.055 346.952 397.004 394.862 320.399 401.08C280.676 404.304 249.077 410.768 243.292 413.684Z" stroke="#FF8383" stroke-width="6"/>
</svg>
