<svg width="729" height="542" viewBox="0 0 729 542" fill="none" xmlns="http://www.w3.org/2000/svg">
<path d="M298.913 410.083C295.086 411.996 286.579 421.403 276.426 435.735C232.945 497.111 164.401 548.693 89.6455 540.377C71.3483 538.342 53.5954 532.892 37.3082 524.309L-179.464 410.083L-205 -83L363.142 -69.9564L645.746 -49.4168C695.849 -45.7753 733.194 -1.70073 728.559 48.3197C725.198 84.6003 700.223 115.243 665.367 125.854L633.222 135.639C585.795 150.078 549.569 188.566 538.028 236.781L526.602 284.515C510.694 350.974 436.998 393.457 368.872 398.82C332.878 401.654 304.136 407.471 298.913 410.083Z" fill="url(#paint0_linear_139_655)"/>
<defs>
<linearGradient id="paint0_linear_139_655" x1="-703.806" y1="-736.312" x2="375.737" y2="812.542" gradientUnits="userSpaceOnUse">
<stop stop-color="#CF7D8A"/>
<stop offset="1" stop-color="#FFB6B6" stop-opacity="0"/>
</linearGradient>
</defs>
</svg>
